<svg xmlns="http://www.w3.org/2000/svg" viewBox="0 0 1288 2207"><title>crowd_travel_blue_mobile</title><g id="b9e100ba-58b0-453b-ae0b-e955e1e1821d" data-name="Layer 2"><line x1="-129.05" y1="2076.5" x2="1414.05" y2="2211.5" style="fill:none;stroke:#22c8ee;stroke-miterlimit:10"/><line x1="-129.05" y1="1383.16" x2="1414.05" y2="1518.17" style="fill:none;stroke:#22c8ee;stroke-miterlimit:10"/><line x1="-129.05" y1="689.83" x2="1414.05" y2="824.84" style="fill:none;stroke:#22c8ee;stroke-miterlimit:10"/><line x1="-129.05" y1="-3.5" x2="1414.05" y2="131.5" style="fill:none;stroke:#22c8ee;stroke-miterlimit:10"/></g><g id="a7714a17-0917-40f2-9382-b63421baa554" data-name="Layer 1"><polygon points="535.56 2033.92 542.57 2114.85 489.25 2099.22 535.56 2033.92" style="fill:#22c8ee"/><path d="M531.77,2094.06a60.07,60.07,0,0,0-5.26,18.56,63,63,0,0,1-15.24-4.48s3.15,4.61,7.19,10.88c3.07,4.76,7.23,11.39,7.23,11.39l-1.55,2.64a43.77,43.77,0,0,1-13.3-5.88c-4.08-2.72-8.95-8.25-8.95-8.25l-7.77-2.83a43.86,43.86,0,0,1,6.51-9.08" style="fill:none;stroke:#1d1d1b;stroke-width:1.0055863181678781px"/><path d="M606.6,1970.1a20.93,20.93,0,0,0,10.51-11c.77-2.2.6-3.84-.3-4.72l-3.61-3.56m-9.11,13.25,3.82-6.32-.48-4.61-3.81,6.32Zm-6.06-2.39c-1.53,4.39.68,6.57,5,4.87a20.86,20.86,0,0,0,10.51-11c1.54-4.38-.68-6.56-4.94-4.87A20.91,20.91,0,0,0,598,1961.66Zm-41.86,38.69s17,.9,28.56-5.15c14-7.3,18.23-24.27,18.23-24.27l-4.63-4.55m17.95-1.62s1.9,4.38-.17,8.18c-2.73,5-8.58,5.85-8.58,5.85,4,4.7,7.23,9.53,7.23,9.53a80,80,0,0,1-19.21,15.2c-14,7.61-31.86,4.87-31.86,4.87" style="fill:none;stroke:#1d1d1b;stroke-width:0.9976275894072915px"/><rect x="420.08" y="1850" width="400.03" height="299.78" style="fill:none"/><polygon points="570.06 2060.31 510.57 2057.64 513.23 1998.15 571.97 2000.02 570.06 2060.31" style="fill:#22c8ee"/><path d="M506.68,1988.54l74.75-19.1c5.26,20.58-5.22,39.42-27.7,45.16-23.29,6-41.79-5.48-47.05-26.06" style="fill:#22c8ee"/><path d="M545.54,2030.73a60,60,0,0,1-8.12,10.5A68.12,68.12,0,0,1,529,2048,81,81,0,0,1,518,2025.87c-4.68-15.43,1.56-32.7,1.56-32.7m9.39-5.92s-4.31,16.74-.63,29.47a49.47,49.47,0,0,0,10.67,18.71" style="fill:none;stroke:#1d1d1b;stroke-width:1.0055863181678781px"/><rect x="420.08" y="1850" width="400.03" height="299.78" style="fill:none"/><polygon points="551.09 2048.69 594.84 2106.87 546.9 2120.31 551.09 2048.69" style="fill:#22c8ee"/><path d="M575.73,2097.81a60,60,0,0,0,2.39,19.14,62.94,62.94,0,0,1-15.79,1.81s4.7,3,10.87,7.22c4.68,3.19,11.09,7.68,11.09,7.68l-.39,3a43.6,43.6,0,0,1-14.55-.23c-4.81-.91-11.45-4.11-11.45-4.11l-8.26.42a43.7,43.7,0,0,1,2.46-10.9" style="fill:none;stroke:#1d1d1b;stroke-width:1.0055863181678781px"/><path d="M532.25,1957.87c-13.28,10.37-30.43,8.57-42.17-6.46l46.14-36c11.73,15,9.31,32.11-4,42.48" style="fill:#22c8ee"/><path d="M555.51,1969.5s-23.16-4.22-28.75-21.21c-5.39-16.4,9.21-32.81,9.21-32.81s24.7,3.48,30.09,19.89c5.59,17-10.55,34.13-10.55,34.13" style="fill:#22c8ee"/><path d="M569.73,1929.22s-2.55,10.58-2,16.82,3.37,9.26,3.37,9.26a20.9,20.9,0,0,1-3.12,1.4,10.45,10.45,0,0,1-3.21.36,7.69,7.69,0,0,0-.12,2.79,6.16,6.16,0,0,0,.79,2.35,6.67,6.67,0,0,1-3.81,1.24c-3.73-.35-3.78-3.36-3.78-3.36m-1.69.41a4.94,4.94,0,0,1,2-.73,4.74,4.74,0,0,1,2.1.34" style="fill:none;stroke:#1d1d1b;stroke-width:1.0055863181678781px"/><path d="M558.55,1946a2.12,2.12,0,1,1,2.29-1.61,2,2,0,0,1-2.29,1.61" style="fill:#1d1d1b"/><path d="M734.16,1996s10-2.5,22.27-6.94,25.17-10.86,25.17-10.86l-1-9.13s3.79-.76,5.16-4.14a6.36,6.36,0,0,0-1.15-6.24,17,17,0,0,0,5.46-4,5.94,5.94,0,0,0,1.61-4.29s-16.17,11-32.89,20.54-35.87,18.69-35.87,18.69" style="fill:none;stroke:#1d1d1b;stroke-width:1.0055863181678781px"/><polygon points="725.05 2102.06 722.11 2137.27 686.9 2134.34 689.34 2099.55 725.05 2102.06" style="fill:#22c8ee"/><polygon points="777.42 2060.89 806.93 2062.83 804.98 2092.34 775.84 2090.8 777.42 2060.89" style="fill:#22c8ee"/><path d="M731.83,2110.62c-38.44,2.68-68.66-22.66-71.69-66.16-2.92-42,23.54-70.76,62-73.43s68.62,22.16,71.55,64.14c3,43.5-23.4,72.78-61.84,75.45" style="fill:#22c8ee"/><path d="M709.69,1940.52l-20.2,43.27c-11.91-5.56-16.82-18-10.74-31,6.29-13.48,19-17.85,30.94-12.29" style="fill:#22c8ee"/><path d="M729,1972.72c-8.1,15.65-25.1,21.38-42.68,12.16l28.12-54.35c17.58,9.22,22.65,26.54,14.56,42.19" style="fill:#22c8ee"/><path d="M720.08,1930.44a35.62,35.62,0,0,1,13.71,5.55,32.18,32.18,0,0,1,9.44,10.67c1.33,2.74.44,4.39-1.9,5.53l-8.22,4s4.3,4,1.9,7c-2.54,3.14-7.66-.2-7.66-.2" style="fill:none;stroke:#1d1d1b;stroke-width:1.0055863181678781px"/><path d="M782.37,2065.93a56.8,56.8,0,0,0,18.15-1.57,59.29,59.29,0,0,1,1.14,14.92s3-4.31,7.2-10c3.17-4.29,7.64-10.15,7.64-10.15l2.84.47a41.14,41.14,0,0,1-.73,13.68c-1,4.49-4.29,10.63-4.29,10.63l.1,7.78a41.65,41.65,0,0,1-10.2-2.7" style="fill:none;stroke:#1d1d1b;stroke-width:1.0055863181678781px"/><path d="M718.18,2108.65a61.85,61.85,0,0,0,2.4,19.75,64.31,64.31,0,0,1-16.27,1.82s4.83,3.14,11.18,7.48c4.81,3.3,11.4,8,11.4,8l-.41,3.13a45.42,45.42,0,0,1-15-.28c-5-1-11.79-4.29-11.79-4.29l-8.51.41a45.31,45.31,0,0,1,2.56-11.24" style="fill:none;stroke:#1d1d1b;stroke-width:1.0055863181678781px"/><path d="M718,1942.82c-.95.46-2.32-.4-3.06-1.92s-.57-3.12.38-3.58,2.31.39,3,1.91.58,3.13-.37,3.59" style="fill:#1d1d1b"/><path d="M658.12,2021.29s21.36,4.55,35.73-.34c15.27-5.19,26.8-17.49,30.49-21l-19.75-.93v1.81h-3.83l0-9.64h3.83V1993l67.73-3.38,0,12.48-37.93-1.65a6.84,6.84,0,0,1-1.22,6.78c-2.7,3-6.95,2.39-6.95,2.39l5,10.24a87.6,87.6,0,0,1-25.84,13.87c-17.57,5.74-39.47-.62-39.47-.62m60.52-68a4.23,4.23,0,0,1,2.26-3.55" style="fill:none;stroke:#1d1d1b;stroke-width:1.006419451020345px"/><path d="M624.24,2050.85l-6.31,73.92c-20.35-1.74-34.14-17.21-32.24-39.44,2-23,18.19-36.22,38.55-34.48" style="fill:#22c8ee"/><path d="M669.45,2015c-11-4-16.2-14.82-11.63-27.3,4.42-12,15.32-16.77,26.3-12.75s16.25,14.68,11.84,26.72c-4.57,12.48-15.53,17.35-26.51,13.33" style="fill:#22c8ee"/><rect x="420.08" y="1850" width="400.03" height="299.78" style="fill:none"/><polygon points="576.1 2069.21 633.55 1981.27 675.4 2039.97 576.1 2069.21" style="fill:#22c8ee"/><path d="M679.87,2006.81a5.64,5.64,0,0,1,2.1-1.32,5.53,5.53,0,0,1,2.46-.1" style="fill:none;stroke:#1d1d1b;stroke-width:1.0055863181678781px"/><path d="M618.88,2103.54a57,57,0,0,0,4.45,17.73,59.23,59.23,0,0,1-14.62,3.51s4.76,2.31,11,5.54c4.76,2.46,11.29,5.95,11.29,5.95l0,2.9a41.3,41.3,0,0,1-13.68,1.45c-4.62-.3-11.23-2.55-11.23-2.55l-7.71,1.34a41.46,41.46,0,0,1,1.06-10.53" style="fill:none;stroke:#1d1d1b;stroke-width:1.0055863181678781px"/><path d="M687.9,1969.05s-.43,12.34,1.62,19.15,5.88,9.55,5.88,9.55a22.67,22.67,0,0,1-3.16,2.25,11.92,11.92,0,0,1-3.5,1.12,8.73,8.73,0,0,0,.5,3.13,7,7,0,0,0,1.42,2.44,7.61,7.61,0,0,1-4,2.23c-4.24.43-5-2.9-5-2.9" style="fill:none;stroke:#1d1d1b;stroke-width:1.063287149119897px"/><path d="M679.31,1990.14a2.4,2.4,0,1,1,2.18-2.3,2.26,2.26,0,0,1-2.18,2.3" style="fill:#1d1d1b"/><path d="M637.79,1958s13.21-6.27,22.19.29c8.66,6.32,7.24,19.88,7.24,19.88s-13.72,7.19-22.39.87c-9-6.55-7-21-7-21" style="fill:#22c8ee"/><rect x="420.08" y="1850" width="400.03" height="299.78" style="fill:none"/><polygon points="625.29 2019.86 632.83 2086.67 555.66 2027.88 625.29 2019.86" style="fill:#22c8ee"/><path d="M606.2,2049.4a67.42,67.42,0,0,1-15-1.4,77.94,77.94,0,0,1-11.58-3.92A91.8,91.8,0,0,1,594.06,2020c11.92-13.86,32.25-18.37,32.25-18.37m11.34,5.38s-18.64,6-28.56,17.29a55.8,55.8,0,0,0-11.37,21.63" style="fill:none;stroke:#1d1d1b;stroke-width:1.0055863181678781px"/><rect x="420.08" y="1850" width="400.03" height="299.78" style="fill:none"/><polygon points="420.88 2091.55 421.96 1989.45 442.19 1989.75 439.29 2091.83 420.88 2091.55" style="fill:#22c8ee"/><polygon points="444.89 2080.8 437.31 1978.97 457.49 1977.56 463.26 2079.52 444.89 2080.8" style="fill:#22c8ee"/><path d="M494.16,1927.1s-15.6-16.23-10.41-32.55c5-15.74,25.51-20.29,25.51-20.29s17.2,16.54,12.2,32.28c-5.18,16.31-27.3,20.56-27.3,20.56" style="fill:#22c8ee"/><polygon points="440.07 2002.47 491.74 1914.39 474.15 1904.39 424.07 1993.37 440.07 2002.47" style="fill:#22c8ee"/><path d="M501.63,1853.57c12-7,25.78-3.68,33.72,9.87l-41.59,24.38c-7.95-13.55-4.11-27.23,7.87-34.25" style="fill:#22c8ee"/><path d="M510.4,1880.54s8.86,2.67,13.37,4.25a8.58,8.58,0,0,1,5.63,10.87c-1.45,4.56-5.21,6.4-10.81,5.44a40.32,40.32,0,0,1-5.68-1.44s-1.74,6.15-2.79,10.39c-.56,2.26-1.17,6.28-1.17,6.28a7.47,7.47,0,0,1-4-.61,10.53,10.53,0,0,1-3.69-2.69,10.64,10.64,0,0,0-1,6c.5,3.19,2.34,4.08,2.34,4.08" style="fill:none;stroke:#1d1d1b;stroke-width:1.0055863181678781px"/><path d="M484.24,1944.59s11,.32,24.87-.74,29-3.95,29-3.95l1.58-9.69s4.12.3,6.49-2.78.61-6.75.61-6.75a18.14,18.14,0,0,0,6.76-2.54,6.36,6.36,0,0,0,2.88-4s-19.77,6.69-39.68,11.69-42.22,8.94-42.22,8.94" style="fill:none;stroke:#1d1d1b;stroke-width:1.0055863181678781px"/><path d="M503.44,1892.87c-1.07-.34-1.58-1.75-1.13-3.16s1.67-2.26,2.74-1.92,1.58,1.75,1.13,3.15-1.67,2.27-2.74,1.93" style="fill:#1d1d1b"/><path d="M466.5,2072.6c.09,2.57.29,6.22.72,10.33a90.42,90.42,0,0,0,2.82,15.53s-4.13.38-8.8.45c0,0-.25,5.47,2.36,9.09,3.26,4.53,8.58,6.08,13.61,7.48s2.79,8.41,2.79,8.41l2.11.68-.32,3.47s-3.64.21-12.09-1.12a52.7,52.7,0,0,1-7.47-1.79" style="fill:none;stroke:#1d1d1b"/><path d="M446.76,2067s0,6.24.79,14.2a90.42,90.42,0,0,0,2.82,15.53s-4.12.38-8.79.45c0,0-.25,5.47,2.35,9.09,3.26,4.53,8.59,6.08,13.61,7.48s2.79,9,2.79,9l2.11.68-.32,3.47s-3.64.2-12.09-1.12a39.31,39.31,0,0,1-13.17-4.36l-1.88,2.78L422.35,2123l-.11-4.51,2.55-.4s.1-4.94.95-11.5,1.4-9.88,1.4-9.88-3.24-.24-7-.77" style="fill:none;stroke:#1d1d1b;stroke-width:1.0055863181678781px"/><path d="M462,1962.05s10.76,2.51,24.52,4.24,29.18,1.9,29.18,1.9l3.48-9.18s4,1.12,6.92-1.43,1.94-6.49,1.94-6.49a18.27,18.27,0,0,0,7.13-1.15,6.34,6.34,0,0,0,3.62-3.29s-20.72,2.61-41.23,3.54-43.15.34-43.15.34" style="fill:none;stroke:#1d1d1b;stroke-width:1.0055863181678781px"/><rect x="420.08" y="1850" width="400.03" height="299.78" style="fill:none"/></g></svg>