<svg xmlns="http://www.w3.org/2000/svg" viewBox="0 0 2460 1751"><title>crowd_travel_yellow_desktop</title><g id="ba2ed30d-e0cf-4c1f-b1bb-79ff3ff650ce" data-name="Layer 2"><line x1="-147.81" y1="1485.67" x2="2571.59" y2="1723.59" style="fill:none;stroke:#fef377;stroke-miterlimit:10;stroke-width:0.699999988079071px"/><line x1="-147.81" y1="990.46" x2="2571.59" y2="1228.38" style="fill:none;stroke:#fef377;stroke-miterlimit:10;stroke-width:0.699999988079071px"/><line x1="-147.81" y1="495.25" x2="2571.59" y2="733.16" style="fill:none;stroke:#fef377;stroke-miterlimit:10;stroke-width:0.699999988079071px"/><line x1="-147.81" y1="0.04" x2="2571.59" y2="237.95" style="fill:none;stroke:#fef377;stroke-miterlimit:10;stroke-width:0.699999988079071px"/></g><g id="a8b2765a-ca61-467c-9e36-46a3011041d8" data-name="Layer 1"><polygon points="835.93 1487.94 841.8 1555.67 797.17 1542.59 835.93 1487.94" style="fill:#fff56e"/><path d="M832.76,1538.27a50.33,50.33,0,0,0-4.4,15.53,52.54,52.54,0,0,1-12.75-3.75s2.63,3.87,6,9.11c2.57,4,6,9.53,6,9.53l-1.29,2.21a36.65,36.65,0,0,1-11.14-4.92,49,49,0,0,1-7.48-6.9l-6.51-2.37a36.61,36.61,0,0,1,5.45-7.61" style="fill:none;stroke:#1d1d1b;stroke-width:0.8416399780172126px"/><path d="M895.39,1434.52a17.49,17.49,0,0,0,8.8-9.23c.64-1.83.5-3.21-.25-3.94l-3-3m-7.61,11.1,3.19-5.29-.4-3.86-3.2,5.29Zm-5.08-2c-1.28,3.67.57,5.49,4.14,4.07a17.51,17.51,0,0,0,8.8-9.22c1.29-3.67-.57-5.5-4.14-4.08A17.49,17.49,0,0,0,888.22,1427.46Zm-35,32.37s14.19.76,23.9-4.31c11.7-6.1,15.25-20.3,15.25-20.3l-3.87-3.81m15-1.36s1.59,3.67-.14,6.84c-2.28,4.19-7.18,4.9-7.18,4.9,3.33,3.93,6.05,8,6.05,8a67.13,67.13,0,0,1-16.08,12.72c-11.71,6.37-26.66,4.08-26.66,4.08" style="fill:none;stroke:#1d1d1b;stroke-width:0.8349788051491199px"/><polygon points="864.81 1510.02 815.02 1507.79 817.25 1458 866.41 1459.56 864.81 1510.02" style="fill:#fff56e"/><path d="M811.76,1450l62.57-16c4.4,17.22-4.37,33-23.19,37.8-19.49,5-35-4.59-39.38-21.82" style="fill:#fff56e"/><path d="M844.29,1485.27a49.82,49.82,0,0,1-6.8,8.78,57.36,57.36,0,0,1-7,5.67,67.75,67.75,0,0,1-9.28-18.52c-3.92-12.92,1.31-27.37,1.31-27.37m7.85-5s-3.61,14-.53,24.67a41.57,41.57,0,0,0,8.93,15.66" style="fill:none;stroke:#1d1d1b;stroke-width:0.8416399780172126px"/><polygon points="848.94 1500.3 885.55 1548.99 845.42 1560.24 848.94 1500.3" style="fill:#fff56e"/><path d="M869.56,1541.41a49.83,49.83,0,0,0,2,16,52.91,52.91,0,0,1-13.22,1.52s3.94,2.53,9.1,6c3.92,2.66,9.28,6.42,9.28,6.42l-.33,2.54a36.5,36.5,0,0,1-12.17-.19,49,49,0,0,1-9.59-3.44l-6.91.35a36.73,36.73,0,0,1,2.06-9.13" style="fill:none;stroke:#1d1d1b;stroke-width:0.8416399780172126px"/><path d="M833.17,1424.28c-11.12,8.68-25.48,7.18-35.3-5.4l38.62-30.15c9.82,12.58,7.79,26.87-3.32,35.55" style="fill:#fff56e"/><path d="M852.63,1434s-19.38-3.52-24.06-17.75c-4.51-13.73,7.7-27.46,7.7-27.46s20.68,2.92,25.19,16.65c4.68,14.23-8.83,28.56-8.83,28.56" style="fill:#fff56e"/><path d="M864.54,1400.31s-2.14,8.85-1.67,14.08,2.81,7.75,2.81,7.75a17.44,17.44,0,0,1-2.6,1.16,8.58,8.58,0,0,1-2.69.3,6.6,6.6,0,0,0-.1,2.34,5.16,5.16,0,0,0,.66,2,5.57,5.57,0,0,1-3.19,1c-3.12-.29-3.16-2.81-3.16-2.81m-1.41.35a4.12,4.12,0,0,1,1.67-.62,4.19,4.19,0,0,1,1.77.29" style="fill:none;stroke:#1d1d1b;stroke-width:0.8416399780172126px"/><path d="M855.18,1414.31a1.77,1.77,0,1,1,1.91-1.35,1.66,1.66,0,0,1-1.91,1.35" style="fill:#1d1d1b"/><polygon points="739.95 1536.17 740.86 1450.71 757.79 1450.97 755.36 1536.4 739.95 1536.17" style="fill:#fff56e"/><polygon points="760.05 1527.17 753.7 1441.94 770.59 1440.76 775.42 1526.1 760.05 1527.17" style="fill:#fff56e"/><path d="M801.29,1398.53s-13.06-13.59-8.72-27.24c4.19-13.18,21.35-17,21.35-17s14.4,13.84,10.21,27c-4.33,13.65-22.84,17.21-22.84,17.21" style="fill:#fff56e"/><polygon points="756.01 1461.61 799.26 1387.89 784.54 1379.52 742.62 1453.99 756.01 1461.61" style="fill:#fff56e"/><path d="M807.53,1337c10-5.87,21.58-3.08,28.23,8.26L801,1365.65c-6.65-11.34-3.44-22.79,6.58-28.66" style="fill:#fff56e"/><path d="M814.88,1359.56s7.41,2.24,11.19,3.56a7.18,7.18,0,0,1,4.71,9.1c-1.21,3.81-4.37,5.35-9,4.55a34.65,34.65,0,0,1-4.76-1.21s-1.45,5.15-2.33,8.7c-.46,1.89-1,5.25-1,5.25a6.25,6.25,0,0,1-3.32-.5,8.83,8.83,0,0,1-3.09-2.26,8.93,8.93,0,0,0-.83,5c.42,2.67,2,3.41,2,3.41" style="fill:none;stroke:#1d1d1b;stroke-width:0.8416399780172126px"/><path d="M793,1413.17s9.24.26,20.82-.62,24.25-3.31,24.25-3.31l1.32-8.1a6.78,6.78,0,0,0,5.44-2.33,5.69,5.69,0,0,0,.5-5.65A15.26,15.26,0,0,0,851,1391a5.31,5.31,0,0,0,2.42-3.3s-16.56,5.59-33.22,9.78-35.33,7.48-35.33,7.48" style="fill:none;stroke:#1d1d1b;stroke-width:0.8416399780172126px"/><path d="M809.05,1369.88a2.31,2.31,0,1,1,2.3-1.61,2,2,0,0,1-2.3,1.61" style="fill:#1d1d1b"/><path d="M778.14,1520.31c.07,2.15.24,5.2.6,8.64a75.82,75.82,0,0,0,2.35,13s-3.45.32-7.36.38c0,0-.21,4.58,2,7.61,2.73,3.78,7.19,5.08,11.4,6.26s2.33,7,2.33,7l1.77.57-.27,2.9a55.24,55.24,0,0,1-10.12-.94,46.14,46.14,0,0,1-6.25-1.49" style="fill:none;stroke:#1d1d1b;stroke-width:0.8416399780172126px"/><path d="M761.61,1515.61s0,5.23.67,11.89a75.81,75.81,0,0,0,2.35,13s-3.45.32-7.36.38c0,0-.21,4.58,2,7.61,2.73,3.79,7.18,5.09,11.39,6.26s2.33,7.49,2.33,7.49l1.77.57-.27,2.9a54.05,54.05,0,0,1-10.12-.94,33,33,0,0,1-11-3.64l-1.58,2.32-10.57-1-.09-3.77,2.14-.33s.08-4.13.79-9.62,1.17-8.28,1.17-8.28-2.71-.2-5.85-.65" style="fill:none;stroke:#1d1d1b;stroke-width:0.8416399780172126px"/><path d="M774.4,1427.79s9,2.09,20.53,3.54,24.42,1.59,24.42,1.59l2.91-7.68a6.77,6.77,0,0,0,5.79-1.2,5.68,5.68,0,0,0,1.62-5.43,15.24,15.24,0,0,0,6-1,5.3,5.3,0,0,0,3-2.75s-17.34,2.18-34.5,3-36.12.28-36.12.28" style="fill:none;stroke:#1d1d1b;stroke-width:0.8416399780172126px"/><path d="M1639.9,1512.36s-7.91-3.54-17.32-9-19.14-12.66-19.14-12.66l2.18-7.37a6.34,6.34,0,0,1-3.64-4.18,5.31,5.31,0,0,1,1.87-5,14.34,14.34,0,0,1-3.91-4.1,5,5,0,0,1-.7-3.77s11.71,11.46,24.08,21.77,26.79,20.68,26.79,20.68" style="fill:none;stroke:#1d1d1b;stroke-width:0.8416399780172126px"/><polygon points="1631.78 1601.05 1629.01 1630.5 1658.46 1633.27 1661.57 1604.25 1631.78 1601.05" style="fill:#fff56e"/><polygon points="1594.7 1559.42 1570.11 1556.67 1567.36 1581.27 1591.6 1584.3 1594.7 1559.42" style="fill:#fff56e"/><path d="M1624.93,1607.11c31.28,7.87,59.91-8.56,68.82-43.95,8.59-34.15-9-61.76-40.24-69.63s-59.81,8.15-68.4,42.3c-8.91,35.39,8.55,63.41,39.82,71.28" style="fill:#fff56e"/><path d="M1668.24,1470.23l10.27,38.62c10.63-2.82,16.5-12.32,13.41-23.94-3.19-12-13-17.51-23.68-14.68" style="fill:#fff56e"/><path d="M1647.56,1493.91c4.37,14.08,17.53,21.31,33.38,16.3l-15.16-48.92c-15.85,5-22.58,18.53-18.22,32.62" style="fill:#fff56e"/><path d="M1650.38,1486.14s-4.71,2-6.34-1c-1.55-2.79,2.6-5.48,2.6-5.48l-6.19-4.51c-1.76-1.29-2.25-2.78-.74-4.84a26.79,26.79,0,0,1,9.34-7.4,29.86,29.86,0,0,1,12.12-2.55" style="fill:none;stroke:#1d1d1b;stroke-width:0.8416399780172126px"/><path d="M1568.47,1578.64a34.83,34.83,0,0,1-8.8.72l1.23-6.39a46.4,46.4,0,0,1-2-9.39,34.56,34.56,0,0,1,1.42-11.38l2.41,0s2.82,5.49,4.8,9.49c2.6,5.28,4.46,9.27,4.46,9.27a49.3,49.3,0,0,1,3.14-12.12,47.28,47.28,0,0,0,14.72,4" style="fill:none;stroke:#1d1d1b;stroke-width:0.8416399780172126px"/><path d="M1653,1631.48a38,38,0,0,1,.45,9.64l-7-1.59a50.78,50.78,0,0,1-10.35,1.79,37.73,37.73,0,0,1-12.38-2l.12-2.64s6.11-2.86,10.57-4.87c5.86-2.65,10.3-4.52,10.3-4.52a54.35,54.35,0,0,1-13.13-3.89,51.91,51.91,0,0,0,4.89-15.92" style="fill:none;stroke:#1d1d1b;stroke-width:0.8416399780172126px"/><path d="M1661,1470.89c.72.52,2,0,2.8-1.12s.93-2.5.22-3-2,0-2.8,1.13-.93,2.49-.22,3" style="fill:#1d1d1b"/><path d="M1690.68,1552.94s-19,2-32.61-5.31a73,73,0,0,1-19.24-15.24l5.6-7.7a7,7,0,0,1-5.37-3,5.73,5.73,0,0,1,0-5.77l-31.49-4.23,1.86-10.27,55.3,12.77.28-1.51,3.15.58-1.44,7.93-3.15-.57.27-1.49-16.41-2.14c2.52,3.47,10.2,15.3,22,21.83,11.12,6.15,29.39,5.54,29.39,5.54m-49.33-59.63a4.25,4.25,0,0,1,1.1,1.45,4.15,4.15,0,0,1,.24,1.81" style="fill:none;stroke:#1d1d1b;stroke-width:0.8423372805788795px"/><path d="M1722.39,1573.72l-5.7,61.83c17,1.57,30.66-9.15,32.38-27.74,1.77-19.27-9.66-32.52-26.68-34.09" style="fill:#fff56e"/><path d="M1690.42,1537.5c9.64-1.69,15.53-9.82,13.6-20.78-1.86-10.57-10.15-16.07-19.78-14.37s-15.56,9.69-13.7,20.26c1.93,11,10.24,16.59,19.88,14.89" style="fill:#fff56e"/><polygon points="1759.34 1595.94 1724.96 1515.02 1681.84 1557.21 1759.34 1595.94" style="fill:#fff56e"/><path d="M1679.5,1527.39a4.67,4.67,0,0,1,2,.45,4.76,4.76,0,0,1,1.53,1.39" style="fill:none;stroke:#1d1d1b;stroke-width:0.8416399780172126px"/><path d="M1731.3,1641.66a34.46,34.46,0,0,1-.68,8.83l-6.15-2.24a46.48,46.48,0,0,1-9.63.45,34.73,34.73,0,0,1-11.06-3.22l.41-2.39s5.9-1.91,10.18-3.23c5.65-1.74,9.91-2.94,9.91-2.94a49.63,49.63,0,0,1-11.52-5.05,47.68,47.68,0,0,0,6.27-13.95" style="fill:none;stroke:#1d1d1b;stroke-width:0.8416399780172126px"/><path d="M1744.36,1573.28l50.39,36.27c10-13.88,7.68-31.07-7.48-42-15.7-11.3-32.92-8.17-42.91,5.71" style="fill:#fff56e"/><path d="M1801.61,1604.11a34.74,34.74,0,0,1,7.26,5.07l-5,4.17a46.17,46.17,0,0,1-4.5,8.52,34.31,34.31,0,0,1-8.38,7.9l-1.85-1.57s1.34-6,2.38-10.41c1.36-5.75,2.49-10,2.49-10a49.55,49.55,0,0,1-10.2,7.37,47.62,47.62,0,0,0-8.84-12.49" style="fill:none;stroke:#1d1d1b;stroke-width:0.8416399780172126px"/><path d="M1682,1496.94s-1.46,10.23-4.16,15.54-6.25,7-6.25,7a18.86,18.86,0,0,0,2.27,2.31,10,10,0,0,0,2.72,1.44,7.24,7.24,0,0,1-.87,2.51,5.91,5.91,0,0,1-1.53,1.8,6.33,6.33,0,0,0,2.95,2.42c3.43,1,4.53-1.65,4.53-1.65" style="fill:none;stroke:#1d1d1b;stroke-width:0.8899335210146071px"/><path d="M1686,1515.58a2,2,0,0,0,.56-3.94,1.9,1.9,0,0,0-2,1.73,1.88,1.88,0,0,0,1.46,2.21" style="fill:#1d1d1b"/><path d="M1724.9,1495.26s-10-7.11-18.33-3c-8.07,3.93-8.9,15.32-8.9,15.32s10.25,8,18.32,4c8.36-4.08,8.91-16.3,8.91-16.3" style="fill:#fff56e"/><polygon points="1726.09 1548.03 1710.03 1601.96 1782.27 1564.9 1726.09 1548.03" style="fill:#fff56e"/><path d="M1727.93,1532.87s16.08,6.71,23.86,19.89a76.86,76.86,0,0,1,8.34,22,66.21,66.21,0,0,1-10.13,1.52,56.55,56.55,0,0,1-12.54-1m7.5-1.61a46.91,46.91,0,0,0-6.18-19.5c-6.51-10.74-21-18.44-21-18.44" style="fill:none;stroke:#1d1d1b;stroke-width:0.8416399780172126px"/></g></svg>