<svg xmlns="http://www.w3.org/2000/svg" viewBox="0 0 2460 1751"><title>crowd_collect_yellow_desktop</title><g id="Layer_2" data-name="Layer 2"><line x1="-120.12" y1="1721.59" x2="2599.28" y2="1483.67" style="fill:none;stroke:#fef377;stroke-miterlimit:10;stroke-width:0.699999988079071px"/><line x1="-136.28" y1="1444.65" x2="2583.12" y2="1206.73" style="fill:none;stroke:#fef377;stroke-miterlimit:10;stroke-width:0.699999988079071px"/><line x1="-152.43" y1="1167.71" x2="2566.96" y2="929.79" style="fill:none;stroke:#fef377;stroke-miterlimit:10;stroke-width:0.699999988079071px"/><line x1="-217.1" y1="890.77" x2="2502.3" y2="652.85" style="fill:none;stroke:#fef377;stroke-miterlimit:10;stroke-width:0.699999988079071px"/><line x1="-233.18" y1="613.83" x2="2486.21" y2="375.91" style="fill:none;stroke:#fef377;stroke-miterlimit:10;stroke-width:0.699999988079071px"/><line x1="-249.04" y1="336.89" x2="2470.35" y2="98.97" style="fill:none;stroke:#fef377;stroke-miterlimit:10;stroke-width:0.699999988079071px"/><line x1="-265.49" y1="59.95" x2="2453.9" y2="-177.96" style="fill:none;stroke:#fef377;stroke-miterlimit:10;stroke-width:0.699999988079071px"/></g><g id="Layer_1" data-name="Layer 1"><path d="M1555.73,1489.68l-11.25-3.61c-6.65-2.15-11.21-3.86-11.21-3.86" style="fill:none;stroke:#1d1d1b;stroke-width:1.100000023841858px"/><path d="M1584.16,1505.34l3.48,53.84c14.82-1,25.08-12,24-28.19-1.08-16.78-12.69-26.61-27.51-25.65" style="fill:#fef377"/><path d="M1637.24,1499.54c-13.66-5.86-27.88-.47-34.5,15l47.42,20.35c6.63-15.45.73-29.47-12.92-35.32" style="fill:#fef377"/><path d="M1551.82,1478.58c8-2.76,12-10.53,8.86-19.67-3-8.82-10.89-12.42-18.93-9.66s-12,10.42-9,19.25c3.14,9.14,11,12.84,19.08,10.08" style="fill:#fef377"/><polygon points="1618.88 1519.41 1578.42 1454.61 1547.12 1496.66 1618.88 1519.41" style="fill:#fef377"/><path d="M1587.26,1543.73a41,41,0,0,1-3.5,12.82,43.36,43.36,0,0,0,10.58,2.78s-3.5,1.6-8.11,3.86c-3.5,1.72-8.3,4.15-8.3,4.15l0,2.11a30.24,30.24,0,0,0,9.93,1.27,40.77,40.77,0,0,0,8.2-1.69l5.59,1.09a30.6,30.6,0,0,0-.61-7.68" style="fill:none;stroke:#1d1d1b;stroke-width:1.100000023841858px"/><path d="M1544.37,1472.49a4,4,0,0,0-1.51-1,4,4,0,0,0-1.79-.11" style="fill:none;stroke:#1d1d1b;stroke-width:0.717521667480469px"/><path d="M1539.09,1444.91s.13,9-1.46,13.9-4.42,6.86-4.42,6.86a16.93,16.93,0,0,0,2.26,1.68,8.86,8.86,0,0,0,2.53.87,6.2,6.2,0,0,1-.41,2.27,5,5,0,0,1-1.07,1.75,5.53,5.53,0,0,0,2.86,1.68c3.08.38,3.67-2,3.67-2" style="fill:none;stroke:#1d1d1b;stroke-width:1.100000023841858px"/><path d="M1545,1460.37a1.74,1.74,0,1,0-1.55-1.7,1.64,1.64,0,0,0,1.55,1.7" style="fill:#1d1d1b"/><path d="M1575.69,1437.66s-9.51-4.76-16.14-.13c-6.39,4.47-5.56,14.35-5.56,14.35s9.87,5.44,16.27,1c6.62-4.63,5.43-15.19,5.43-15.19" style="fill:#fef377"/><polygon points="1583.86 1482.79 1577.37 1531.25 1634.36 1489.67 1583.86 1482.79" style="fill:#fef377"/><polygon points="1529.55 1490.25 1496.65 1493.22 1493.18 1455.37 1525.59 1452.02 1529.55 1490.25" style="fill:#fef377"/><line x1="1529.95" y1="1484.26" x2="1495.19" y2="1488.94" style="fill:none;stroke:#1d1d1b;stroke-width:1.100000023841858px"/><line x1="1529.44" y1="1479.39" x2="1494.58" y2="1483" style="fill:none;stroke:#1d1d1b;stroke-width:1.100000023841858px"/><line x1="1528.94" y1="1474.53" x2="1493.96" y2="1477.06" style="fill:none;stroke:#1d1d1b;stroke-width:1.100000023841858px"/><line x1="1528.32" y1="1468.59" x2="1493.46" y2="1472.2" style="fill:none;stroke:#1d1d1b;stroke-width:1.100000023841858px"/><line x1="1527.71" y1="1462.65" x2="1492.95" y2="1467.34" style="fill:none;stroke:#1d1d1b;stroke-width:1.100000023841858px"/><line x1="1527.21" y1="1457.79" x2="1492.34" y2="1461.4" style="fill:none;stroke:#1d1d1b;stroke-width:1.100000023841858px"/><path d="M1548.3,1500.39s-8,1-18,1.32-21.26-.7-21.26-.7l-1.86-6.89a6.63,6.63,0,0,1-6-2.58,6.75,6.75,0,0,1-.89-6.51c5.63,1.14,15.19,3.08,23.19,4.25,14.77,2.15,31.21,3.32,31.21,3.32" style="fill:none;stroke:#1d1d1b;stroke-width:1.100000023841858px"/><path d="M1744.24,1402.94c1.78,2.39,4.78,6.47,7.46,9.7,4.94,6,10.86,12.13,10.86,12.13" style="fill:none;stroke:#1d1d1b;stroke-width:1.100000023841858px"/><polygon points="1774.49 1531.02 1761.77 1457.86 1747.29 1460.44 1761.31 1533.37 1774.49 1531.02" style="fill:#fef377"/><polygon points="1750.62 1525.7 1757.66 1451.78 1743 1450.45 1737.29 1524.49 1750.62 1525.7" style="fill:#fef377"/><polygon points="1744.66 1459.14 1765.17 1387.76 1779.26 1392.01 1757.48 1463.01 1744.66 1459.14" style="fill:#fef377"/><path d="M1752.47,1399.64s16.1-2.94,20-14.77c3.75-11.41-6.41-22.82-6.41-22.82s-17.19,2.44-20.93,13.85c-3.88,11.83,7.36,23.74,7.36,23.74" style="fill:#fef377"/><path d="M1779.34,1353.1c-4.08-9.24-13.65-13.14-24.09-8.52l14.17,32.06c10.44-4.61,14-14.31,9.92-23.54" style="fill:#fef377"/><path d="M1762.69,1365.27s-6.36-2.19-9.7-3.18a6.24,6.24,0,0,0-7.94,4c-1.08,3.31.36,6,4.07,7.8a28,28,0,0,0,4,1.57s-1.59,4.37-2.77,7.32c-.64,1.57-2,4.2-2,4.2a5.38,5.38,0,0,0,2.59,1.33,7.69,7.69,0,0,0,3.33,0,7.72,7.72,0,0,1-2,4,3.8,3.8,0,0,1-3.11,1.41" style="fill:none;stroke:#1d1d1b;stroke-width:1.100000023841858px"/><path d="M1761.55,1375.51a2,2,0,1,0-.8-2.31,1.76,1.76,0,0,0,.8,2.31" style="fill:#1d1d1b"/><path d="M1755.94,1515.07a102.2,102.2,0,0,1-.79,10.31,65.16,65.16,0,0,1-2.28,11.25s3,.34,6.39.46c0,0,.1,4-1.85,6.57-2.44,3.24-6.33,4.29-10,5.24s-2.16,6.46-2.16,6.46l-1.54.46.18,2.53a47.19,47.19,0,0,0,8.8-.63,28.46,28.46,0,0,0,9.65-3l1.33,2.06,9.2-.67.14-3.28-1.85-.32a83.78,83.78,0,0,0-.51-8.37c-.52-4.79-.87-7.22-.87-7.22s2.35-.12,5.09-.45" style="fill:none;stroke:#1d1d1b;stroke-width:1.100000023841858px"/><path d="M1741.51,1518.85c-.11,1.87-.31,4.52-.68,7.5a66.36,66.36,0,0,1-2.28,11.25s3,.34,6.39.46c0,0,.1,4-1.85,6.57-2.44,3.24-6.33,4.29-10,5.24s-2.15,6.07-2.15,6.07l-1.55.46.18,2.53a47.28,47.28,0,0,0,8.81-.63,40.17,40.17,0,0,0,5.46-1.19" style="fill:none;stroke:#1d1d1b;stroke-width:1.100000023841858px"/><polygon points="1700 1347.51 1732.66 1342.61 1741.86 1401.56 1709.71 1406.82 1700 1347.51" style="fill:#fef377"/><line x1="1741.56" y1="1390.69" x2="1706.96" y2="1396.35" style="fill:none;stroke:#1d1d1b;stroke-width:1.100000023841858px"/><line x1="1740.59" y1="1384.79" x2="1706.17" y2="1391.52" style="fill:none;stroke:#1d1d1b;stroke-width:1.100000023841858px"/><line x1="1739.8" y1="1379.97" x2="1705.21" y2="1385.63" style="fill:none;stroke:#1d1d1b;stroke-width:1.100000023841858px"/><line x1="1739.01" y1="1375.14" x2="1704.25" y2="1379.73" style="fill:none;stroke:#1d1d1b;stroke-width:1.100000023841858px"/><line x1="1738.05" y1="1369.25" x2="1703.46" y2="1374.91" style="fill:none;stroke:#1d1d1b;stroke-width:1.100000023841858px"/><line x1="1737.09" y1="1363.35" x2="1702.67" y2="1370.08" style="fill:none;stroke:#1d1d1b;stroke-width:1.100000023841858px"/><line x1="1736.3" y1="1358.53" x2="1701.7" y2="1364.19" style="fill:none;stroke:#1d1d1b;stroke-width:1.100000023841858px"/><line x1="1735.51" y1="1353.7" x2="1700.74" y2="1358.29" style="fill:none;stroke:#1d1d1b;stroke-width:1.100000023841858px"/><line x1="1734.54" y1="1347.81" x2="1699.95" y2="1353.47" style="fill:none;stroke:#1d1d1b;stroke-width:1.100000023841858px"/><line x1="1742.45" y1="1396.62" x2="1707.75" y2="1401.17" style="fill:none;stroke:#1d1d1b;stroke-width:1.100000023841858px"/><path d="M1750.55,1429.9s-7.27-3.4-15.91-8.61-17.54-12-17.54-12l2.14-6.81a6.65,6.65,0,0,1-.93-11.38c4.13,4,11.14,10.77,17.25,16.06,11.29,9.77,24.51,19.6,24.51,19.6" style="fill:none;stroke:#1d1d1b;stroke-width:1.100000023841858px"/><path d="M762,1528.92c5.75,17,22,25.4,41.25,18.89l-20-59c-19.21,6.5-27,23.09-21.29,40.06" style="fill:#fef377"/><polygon points="749.06 1595.61 798.63 1591.8 794.82 1542.22 745.85 1545.35 749.06 1595.61" style="fill:#fef377"/><polygon points="783.49 1633.94 795.86 1591.27 765.59 1593.98 783.49 1633.94" style="fill:#fef377"/><polygon points="755.44 1631.13 784.84 1597.82 756.31 1587.35 755.44 1631.13" style="fill:#fef377"/><path d="M790.39,1515.93a25,25,0,0,1,8.1,6.58,22.61,22.61,0,0,1,4.14,9.14c.33,2.12-.61,3-2.43,3.32l-6.35,1.11s2,3.5-.19,5-5.12-1.72-5.12-1.72" style="fill:none;stroke:#1d1d1b;stroke-width:1.100000023841858px"/><path d="M787.45,1540.63a3,3,0,0,1,2.28-1.94" style="fill:none;stroke:#1d1d1b;stroke-width:1.100000023841858px"/><path d="M788.11,1523.66c-.27-1.32-1.16-2.25-2-2.09s-1.27,1.37-1,2.69" style="fill:none;stroke:#1d1d1b;stroke-width:1.100000023841858px"/><path d="M765.75,1614.69a43.49,43.49,0,0,0-2.78,13.73,45.82,45.82,0,0,1-11.29-2.41s2.53,3.17,5.81,7.48c2.48,3.28,5.86,7.86,5.86,7.86l-1,2a32.19,32.19,0,0,1-10-3.53,42.44,42.44,0,0,1-6.93-5.49l-5.78-1.62a31.93,31.93,0,0,1,4.21-6.94" style="fill:none;stroke:#1d1d1b;stroke-width:1.100000023841858px"/><path d="M791,1612.58a43.79,43.79,0,0,0,4.09,13.4,45.52,45.52,0,0,1-11.07,3.25s3.74,1.59,8.67,3.82c3.75,1.7,8.9,4.12,8.9,4.12l.09,2.22a32,32,0,0,1-10.44,1.64,43.21,43.21,0,0,1-8.71-1.52l-5.85,1.32a31.51,31.51,0,0,1,.4-8.1" style="fill:none;stroke:#1d1d1b;stroke-width:1.100000023841858px"/><polygon points="746.51 1586.98 755.99 1424.1 727.01 1422.29 714.68 1584.99 746.51 1586.98" style="fill:#fef377"/><line x1="713.41" y1="1579.95" x2="748.47" y2="1581.06" style="fill:none;stroke:#1d1d1b;stroke-width:1.100000023841858px"/><line x1="713.79" y1="1573.99" x2="748.77" y2="1576.18" style="fill:none;stroke:#1d1d1b;stroke-width:1.100000023841858px"/><line x1="714.16" y1="1568.03" x2="749.08" y2="1571.3" style="fill:none;stroke:#1d1d1b;stroke-width:1.100000023841858px"/><line x1="714.46" y1="1563.15" x2="749.45" y2="1565.34" style="fill:none;stroke:#1d1d1b;stroke-width:1.100000023841858px"/><line x1="714.77" y1="1558.27" x2="749.82" y2="1559.38" style="fill:none;stroke:#1d1d1b;stroke-width:1.100000023841858px"/><line x1="715.14" y1="1552.31" x2="750.13" y2="1554.5" style="fill:none;stroke:#1d1d1b;stroke-width:1.100000023841858px"/><line x1="715.52" y1="1546.35" x2="750.43" y2="1549.62" style="fill:none;stroke:#1d1d1b;stroke-width:1.100000023841858px"/><line x1="715.82" y1="1541.47" x2="750.81" y2="1543.66" style="fill:none;stroke:#1d1d1b;stroke-width:1.100000023841858px"/><line x1="716.13" y1="1536.59" x2="751.18" y2="1537.7" style="fill:none;stroke:#1d1d1b;stroke-width:1.100000023841858px"/><line x1="716.5" y1="1530.63" x2="751.48" y2="1532.82" style="fill:none;stroke:#1d1d1b;stroke-width:1.100000023841858px"/><line x1="716.87" y1="1524.67" x2="751.79" y2="1527.94" style="fill:none;stroke:#1d1d1b;stroke-width:1.100000023841858px"/><line x1="717.18" y1="1519.79" x2="752.16" y2="1521.98" style="fill:none;stroke:#1d1d1b;stroke-width:1.100000023841858px"/><line x1="717.48" y1="1514.91" x2="752.54" y2="1516.02" style="fill:none;stroke:#1d1d1b;stroke-width:1.100000023841858px"/><line x1="717.86" y1="1508.95" x2="752.84" y2="1511.14" style="fill:none;stroke:#1d1d1b;stroke-width:1.100000023841858px"/><line x1="718.23" y1="1502.99" x2="753.15" y2="1506.26" style="fill:none;stroke:#1d1d1b;stroke-width:1.100000023841858px"/><line x1="718.53" y1="1498.11" x2="753.52" y2="1500.3" style="fill:none;stroke:#1d1d1b;stroke-width:1.100000023841858px"/><line x1="718.84" y1="1493.23" x2="753.89" y2="1494.34" style="fill:none;stroke:#1d1d1b;stroke-width:1.100000023841858px"/><line x1="719.21" y1="1487.27" x2="754.2" y2="1489.46" style="fill:none;stroke:#1d1d1b;stroke-width:1.100000023841858px"/><line x1="719.59" y1="1481.31" x2="754.5" y2="1484.58" style="fill:none;stroke:#1d1d1b;stroke-width:1.100000023841858px"/><line x1="719.89" y1="1476.43" x2="754.88" y2="1478.62" style="fill:none;stroke:#1d1d1b;stroke-width:1.100000023841858px"/><line x1="720.2" y1="1471.55" x2="755.25" y2="1472.66" style="fill:none;stroke:#1d1d1b;stroke-width:1.100000023841858px"/><line x1="720.57" y1="1465.59" x2="755.55" y2="1467.78" style="fill:none;stroke:#1d1d1b;stroke-width:1.100000023841858px"/><line x1="720.94" y1="1459.63" x2="755.86" y2="1462.9" style="fill:none;stroke:#1d1d1b;stroke-width:1.100000023841858px"/><line x1="721.25" y1="1454.75" x2="756.23" y2="1456.94" style="fill:none;stroke:#1d1d1b;stroke-width:1.100000023841858px"/><line x1="721.55" y1="1449.87" x2="756.61" y2="1450.98" style="fill:none;stroke:#1d1d1b;stroke-width:1.100000023841858px"/><line x1="721.93" y1="1443.91" x2="756.91" y2="1446.1" style="fill:none;stroke:#1d1d1b;stroke-width:1.100000023841858px"/><line x1="722.3" y1="1437.95" x2="757.22" y2="1441.22" style="fill:none;stroke:#1d1d1b;stroke-width:1.100000023841858px"/><line x1="722.6" y1="1433.07" x2="757.59" y2="1435.26" style="fill:none;stroke:#1d1d1b;stroke-width:1.100000023841858px"/><line x1="722.91" y1="1428.19" x2="757.96" y2="1429.3" style="fill:none;stroke:#1d1d1b;stroke-width:1.100000023841858px"/><path d="M767.82,1555s-6.87,4.16-14.9,10.25-16.15,13.84-16.15,13.84l2.85,6.54a6.66,6.66,0,0,0-3.1,5.79,6.76,6.76,0,0,0,3.38,5.63c3.68-4.41,9.93-11.9,15.45-17.81,10.18-10.92,22.28-22.1,22.28-22.1" style="fill:none;stroke:#1d1d1b;stroke-width:1.100000023841858px"/><path d="M1706.41,1473l-42.71-36.39c-10,11.76-9.2,27.41,3.64,38.36,13.31,11.34,29.05,9.79,39.07-2" style="fill:#fef377"/><polygon points="1678.66 1491.77 1672.35 1550.5 1711.35 1539.94 1678.66 1491.77" style="fill:#fef377"/><path d="M1680.51,1535.55a43.39,43.39,0,0,1,3.54,13.57,45.75,45.75,0,0,0,11.15-3s-2.35,3.31-5.39,7.8c-2.3,3.42-5.42,8.18-5.42,8.18l1.08,1.94a31.91,31.91,0,0,0,9.76-4.07,42.81,42.81,0,0,0,6.63-5.87l5.69-1.94a31.58,31.58,0,0,0-4.59-6.7" style="fill:none;stroke:#1d1d1b;stroke-width:1.100000023841858px"/><polygon points="1642.05 1499.62 1681.76 1516.92 1699.05 1477.21 1660.1 1459.64 1642.05 1499.62" style="fill:#fef377"/><polygon points="1667.14 1502.27 1634.46 1543.92 1669.12 1554.4 1667.14 1502.27" style="fill:#fef377"/><path d="M1648.49,1537.62a43.49,43.49,0,0,1-2,13.88,45.58,45.58,0,0,0,11.45,1.55s-3.46,2.13-8,5.09c-3.45,2.24-8.18,5.41-8.18,5.41l.24,2.22a32.24,32.24,0,0,0,10.58,0,43.42,43.42,0,0,0,8.39-2.82l6,.43a32,32,0,0,0-1.63-8" style="fill:none;stroke:#1d1d1b;stroke-width:1.100000023841858px"/><path d="M1696.35,1440.25c8.16,9.14,20.67,10.08,31,.85L1699,1409.34c-10.35,9.23-10.84,21.77-2.68,30.91" style="fill:#fef377"/><path d="M1678.07,1445.46s17.12,0,23.33-11.45c6-11-2.33-24.67-2.33-24.67s-18.13-.71-24.12,10.33c-6.2,11.44,3.12,25.79,3.12,25.79" style="fill:#fef377"/><path d="M1678.77,1438.93a3,3,0,0,0-2.89-.81" style="fill:none;stroke:#1d1d1b;stroke-width:0.717521667480469px"/><path d="M1673.12,1414.8s.46,7.9-.75,12.29a11.89,11.89,0,0,1-3.61,6.19,14.78,14.78,0,0,0,2,1.4,7.69,7.69,0,0,0,2.25.68,5.62,5.62,0,0,1-.27,2,4.43,4.43,0,0,1-.87,1.58,4.83,4.83,0,0,0,2.57,1.38c2.71.23,3.13-1.91,3.13-1.91" style="fill:none;stroke:#1d1d1b;stroke-width:1.100000023841858px"/><polygon points="1618.32 1479.26 1618.44 1316.11 1647.47 1316 1650.22 1479.14 1618.32 1479.26" style="fill:#fef377"/><line x1="1651.78" y1="1474.19" x2="1616.72" y2="1473.23" style="fill:none;stroke:#1d1d1b;stroke-width:1.100000023841858px"/><line x1="1651.76" y1="1468.21" x2="1616.7" y2="1468.34" style="fill:none;stroke:#1d1d1b;stroke-width:1.100000023841858px"/><line x1="1651.74" y1="1462.24" x2="1616.69" y2="1463.45" style="fill:none;stroke:#1d1d1b;stroke-width:1.100000023841858px"/><line x1="1651.72" y1="1457.35" x2="1616.67" y2="1457.48" style="fill:none;stroke:#1d1d1b;stroke-width:1.100000023841858px"/><line x1="1651.7" y1="1452.46" x2="1616.64" y2="1451.51" style="fill:none;stroke:#1d1d1b;stroke-width:1.100000023841858px"/><line x1="1651.68" y1="1446.49" x2="1616.63" y2="1446.62" style="fill:none;stroke:#1d1d1b;stroke-width:1.100000023841858px"/><line x1="1651.66" y1="1440.52" x2="1616.61" y2="1441.73" style="fill:none;stroke:#1d1d1b;stroke-width:1.100000023841858px"/><line x1="1651.64" y1="1435.63" x2="1616.59" y2="1435.76" style="fill:none;stroke:#1d1d1b;stroke-width:1.100000023841858px"/><line x1="1651.62" y1="1430.74" x2="1616.56" y2="1429.79" style="fill:none;stroke:#1d1d1b;stroke-width:1.100000023841858px"/><line x1="1651.6" y1="1424.77" x2="1616.55" y2="1424.9" style="fill:none;stroke:#1d1d1b;stroke-width:1.100000023841858px"/><line x1="1651.58" y1="1418.8" x2="1616.53" y2="1420.01" style="fill:none;stroke:#1d1d1b;stroke-width:1.100000023841858px"/><line x1="1651.56" y1="1413.91" x2="1616.51" y2="1414.04" style="fill:none;stroke:#1d1d1b;stroke-width:1.100000023841858px"/><line x1="1651.54" y1="1409.02" x2="1616.48" y2="1408.06" style="fill:none;stroke:#1d1d1b;stroke-width:1.100000023841858px"/><line x1="1651.52" y1="1403.05" x2="1616.47" y2="1403.18" style="fill:none;stroke:#1d1d1b;stroke-width:1.100000023841858px"/><line x1="1651.5" y1="1397.07" x2="1616.45" y2="1398.29" style="fill:none;stroke:#1d1d1b;stroke-width:1.100000023841858px"/><line x1="1651.48" y1="1392.19" x2="1616.43" y2="1392.31" style="fill:none;stroke:#1d1d1b;stroke-width:1.100000023841858px"/><line x1="1651.46" y1="1387.3" x2="1616.4" y2="1386.34" style="fill:none;stroke:#1d1d1b;stroke-width:1.100000023841858px"/><line x1="1651.44" y1="1381.32" x2="1616.39" y2="1381.45" style="fill:none;stroke:#1d1d1b;stroke-width:1.100000023841858px"/><line x1="1651.42" y1="1375.35" x2="1616.37" y2="1376.56" style="fill:none;stroke:#1d1d1b;stroke-width:1.100000023841858px"/><line x1="1651.4" y1="1370.46" x2="1616.35" y2="1370.59" style="fill:none;stroke:#1d1d1b;stroke-width:1.100000023841858px"/><line x1="1651.38" y1="1365.57" x2="1616.33" y2="1364.62" style="fill:none;stroke:#1d1d1b;stroke-width:1.100000023841858px"/><line x1="1651.36" y1="1359.6" x2="1616.31" y2="1359.73" style="fill:none;stroke:#1d1d1b;stroke-width:1.100000023841858px"/><line x1="1651.34" y1="1353.63" x2="1616.29" y2="1354.84" style="fill:none;stroke:#1d1d1b;stroke-width:1.100000023841858px"/><line x1="1651.32" y1="1348.74" x2="1616.27" y2="1348.87" style="fill:none;stroke:#1d1d1b;stroke-width:1.100000023841858px"/><line x1="1651.3" y1="1343.85" x2="1616.25" y2="1342.9" style="fill:none;stroke:#1d1d1b;stroke-width:1.100000023841858px"/><line x1="1651.28" y1="1337.88" x2="1616.23" y2="1338.01" style="fill:none;stroke:#1d1d1b;stroke-width:1.100000023841858px"/><line x1="1651.26" y1="1331.91" x2="1616.21" y2="1333.12" style="fill:none;stroke:#1d1d1b;stroke-width:1.100000023841858px"/><line x1="1651.24" y1="1327.02" x2="1616.19" y2="1327.15" style="fill:none;stroke:#1d1d1b;stroke-width:1.100000023841858px"/><line x1="1651.22" y1="1322.13" x2="1616.17" y2="1321.17" style="fill:none;stroke:#1d1d1b;stroke-width:1.100000023841858px"/><path d="M1674.12,1475.22s-7.12,3.72-16.5,7.42-20.21,6.62-20.21,6.62l-4.11-5.83a6.64,6.64,0,0,1-6.55-.36,6.74,6.74,0,0,1-3.06-5.81c5.67-.86,15.32-2.31,23.24-4,14.61-3,30.45-7.57,30.45-7.57" style="fill:none;stroke:#1d1d1b;stroke-width:1.100000023841858px"/><path d="M1678.89,1428.42a1.74,1.74,0,1,0-1.55-1.7,1.64,1.64,0,0,0,1.55,1.7" style="fill:#1d1d1b"/><path d="M827.43,1487.29,819.12,1521c-9.28-2.29-14.53-10.45-12-20.59,2.59-10.51,11.06-15.42,20.34-13.13" style="fill:#fef377"/><polygon points="861.16 1600.37 864.03 1625.91 838.5 1628.78 835.34 1603.62 861.16 1600.37" style="fill:#fef377"/><polygon points="892.72 1563.62 914.05 1560.84 916.82 1582.17 895.81 1585.18 892.72 1563.62" style="fill:#fef377"/><path d="M867.21,1605.53c-27.05,7.32-52.18-6.49-60.47-37.1-8-29.54,6.81-53.8,33.86-61.12s52.08,6.13,60.09,35.67c8.29,30.6-6.44,55.22-33.48,62.55" style="fill:#fef377"/><path d="M845.75,1507.54c-3.61,12.31-15,18.82-29,14.73l12.54-42.76c13.93,4.08,20,15.72,16.41,28" style="fill:#fef377"/><path d="M857.19,1606a45,45,0,0,0,4.5,13.76,47,47,0,0,1-11.35,3.59s3.89,1.55,9,3.76c3.9,1.68,9.26,4.07,9.26,4.07l.14,2.29a32.88,32.88,0,0,1-10.73,1.91,43.85,43.85,0,0,1-9-1.39l-6,1.49a33.2,33.2,0,0,1,.24-8.38" style="fill:none;stroke:#1d1d1b;stroke-width:1.100000023841858px"/><path d="M833.42,1478.64a26,26,0,0,1,10.57,2,23.4,23.4,0,0,1,8.23,6.28c1.34,1.77.94,3.07-.57,4.21l-5.3,4s3.64,2.28,2.35,4.73-5.5.93-5.5.93" style="fill:none;stroke:#1d1d1b;stroke-width:1.100000023841858px"/><path d="M842.84,1502.54a3.15,3.15,0,0,1,1.12-2.85" style="fill:none;stroke:#1d1d1b;stroke-width:0.717521667480469px"/><polygon points="838.84 1416.18 875.95 1530.27 903.61 1521.46 869.23 1406.49 838.84 1416.18" style="fill:#fef377"/><line x1="872.32" y1="1410.99" x2="839.25" y2="1422.66" style="fill:none;stroke:#1d1d1b;stroke-width:1.100000023841858px"/><line x1="874.13" y1="1416.68" x2="840.73" y2="1427.32" style="fill:none;stroke:#1d1d1b;stroke-width:1.100000023841858px"/><line x1="875.95" y1="1422.37" x2="842.22" y2="1431.98" style="fill:none;stroke:#1d1d1b;stroke-width:1.100000023841858px"/><line x1="877.43" y1="1427.03" x2="844.03" y2="1437.67" style="fill:none;stroke:#1d1d1b;stroke-width:1.100000023841858px"/><line x1="878.92" y1="1431.68" x2="845.85" y2="1443.36" style="fill:none;stroke:#1d1d1b;stroke-width:1.100000023841858px"/><line x1="880.73" y1="1437.37" x2="847.33" y2="1448.02" style="fill:none;stroke:#1d1d1b;stroke-width:1.100000023841858px"/><line x1="882.54" y1="1443.07" x2="848.81" y2="1452.68" style="fill:none;stroke:#1d1d1b;stroke-width:1.100000023841858px"/><line x1="884.03" y1="1447.72" x2="850.63" y2="1458.37" style="fill:none;stroke:#1d1d1b;stroke-width:1.100000023841858px"/><line x1="885.51" y1="1452.38" x2="852.44" y2="1464.06" style="fill:none;stroke:#1d1d1b;stroke-width:1.100000023841858px"/><line x1="887.32" y1="1458.07" x2="853.93" y2="1468.72" style="fill:none;stroke:#1d1d1b;stroke-width:1.100000023841858px"/><line x1="889.14" y1="1463.76" x2="855.41" y2="1473.37" style="fill:none;stroke:#1d1d1b;stroke-width:1.100000023841858px"/><line x1="890.62" y1="1468.42" x2="857.22" y2="1479.06" style="fill:none;stroke:#1d1d1b;stroke-width:1.100000023841858px"/><line x1="892.11" y1="1473.08" x2="859.04" y2="1484.75" style="fill:none;stroke:#1d1d1b;stroke-width:1.100000023841858px"/><line x1="893.92" y1="1478.77" x2="860.52" y2="1489.41" style="fill:none;stroke:#1d1d1b;stroke-width:1.100000023841858px"/><line x1="895.73" y1="1484.46" x2="862.01" y2="1494.07" style="fill:none;stroke:#1d1d1b;stroke-width:1.100000023841858px"/><line x1="897.22" y1="1489.12" x2="863.82" y2="1499.76" style="fill:none;stroke:#1d1d1b;stroke-width:1.100000023841858px"/><line x1="898.7" y1="1493.78" x2="865.63" y2="1505.45" style="fill:none;stroke:#1d1d1b;stroke-width:1.100000023841858px"/><line x1="900.52" y1="1499.47" x2="867.12" y2="1510.11" style="fill:none;stroke:#1d1d1b;stroke-width:1.100000023841858px"/><line x1="902.33" y1="1505.16" x2="868.6" y2="1514.77" style="fill:none;stroke:#1d1d1b;stroke-width:1.100000023841858px"/><line x1="903.81" y1="1509.81" x2="870.42" y2="1520.46" style="fill:none;stroke:#1d1d1b;stroke-width:1.100000023841858px"/><line x1="905.3" y1="1514.47" x2="872.23" y2="1526.15" style="fill:none;stroke:#1d1d1b;stroke-width:1.100000023841858px"/><path d="M854,1543.62s8-.35,18-1.83,20.81-4.39,20.81-4.39l.64-7.1a6.64,6.64,0,0,0,5.49-3.6,6.71,6.71,0,0,0-.26-6.55c-5.34,2.09-14.42,5.66-22.1,8.2-14.17,4.69-30.15,8.69-30.15,8.69" style="fill:none;stroke:#1d1d1b;stroke-width:1.100000023841858px"/><path d="M896.22,1562.08A45,45,0,0,0,910,1557.6a47.18,47.18,0,0,1,3.57,11.36s1.56-3.88,3.78-9c1.68-3.89,4.09-9.25,4.09-9.25l2.29-.14a33.09,33.09,0,0,1,1.89,10.74,44.35,44.35,0,0,1-1.42,9l1.48,6a33.19,33.19,0,0,1-8.38-.26" style="fill:none;stroke:#1d1d1b;stroke-width:1.100000023841858px"/><path d="M833.47,1487.57a2,2,0,1,1,.09-2.44,1.76,1.76,0,0,1-.09,2.44" style="fill:#1d1d1b"/></g></svg>