<svg xmlns="http://www.w3.org/2000/svg" viewBox="0 0 1288 2207"><g id="Layer_2" data-name="Layer 2"><line x1="-129.05" y1="2076.5" x2="1414.05" y2="2211.5" style="fill:none;stroke:#22c8ee;stroke-miterlimit:10"/><line x1="-129.05" y1="1383.16" x2="1414.05" y2="1518.17" style="fill:none;stroke:#22c8ee;stroke-miterlimit:10"/><line x1="-129.05" y1="689.83" x2="1414.05" y2="824.84" style="fill:none;stroke:#22c8ee;stroke-miterlimit:10"/><line x1="-129.05" y1="-3.5" x2="1414.05" y2="131.5" style="fill:none;stroke:#22c8ee;stroke-miterlimit:10"/></g><g id="Layer_1" data-name="Layer 1"><path d="M568.46,1973.82s4.5-9,8.94-20.87,7.87-25.49,7.87-25.49l-7.4-5a7.35,7.35,0,0,0,.2-6.44,6.17,6.17,0,0,0-5.34-3.09,16.55,16.55,0,0,0,.49-6.57,5.77,5.77,0,0,0-2.15-3.9s-2.07,18.93-5.59,37.32-8.84,38.37-8.84,38.37" style="fill:none;stroke:#231f20;stroke-width:1.5px"/><polygon points="533.08 2085.55 528.13 2119.58 494.1 2114.64 498.54 2080.99 533.08 2085.55" style="fill:#22c8ee"/><path d="M539.16,2094.27c-37.5.31-65.36-26.1-65.71-68.54-.35-41,27.07-67.34,64.57-67.65s65.35,25.61,65.69,66.56c.36,42.44-27.05,69.31-64.55,69.63" style="fill:#22c8ee"/><path d="M526,2091.54a60.06,60.06,0,0,0,1.17,19.33,62.85,62.85,0,0,1-15.92.8s4.51,3.34,10.41,7.94c4.48,3.49,10.61,8.4,10.61,8.4l-.59,3a44.11,44.11,0,0,1-14.54-1.17c-4.76-1.22-11.2-4.86-11.2-4.86l-8.29-.11a44.15,44.15,0,0,1,3.16-10.77" style="fill:none;stroke:#231f20;stroke-width:1.5px"/><path d="M514.17,1926.63l7.26,45.91c-12.64,2-23.35-5.35-25.53-19.15-2.27-14.31,5.63-24.76,18.27-26.76" style="fill:#22c8ee"/><path d="M547.28,1942.1c1.94,17.06-8.76,31-28.06,33.2L512.49,1916c19.3-2.19,32.85,9,34.79,26.06" style="fill:#22c8ee"/><path d="M517.07,1912.84a34.63,34.63,0,0,1,14.09-3,31.29,31.29,0,0,1,13.42,3.47c2.56,1.49,2.74,3.3,1.47,5.49l-4.45,7.71s5.67.92,5.35,4.61c-.35,3.92-6.3,4-6.3,4" style="fill:none;stroke:#231f20;stroke-width:1.5px"/><path d="M522.14,1924c-.51.89-2.08.94-3.51.12s-2.16-2.21-1.64-3.1,2.08-.94,3.51-.12,2.16,2.21,1.64,3.1" style="fill:#231f20"/><path d="M488.48,1989.41s-7-7.25-14.81-17.22-15.17-22-15.17-22l5.55-7s-2.74-2.59-2.13-6.08a6.19,6.19,0,0,1,4.17-4.55,16.61,16.61,0,0,1-2.45-6.12,5.79,5.79,0,0,1,.88-4.36s7.68,17.43,16.56,33.91,20,33.93,20,33.93" style="fill:none;stroke:#231f20;stroke-width:1.5px"/><polygon points="586.4 2048.66 614.95 2052.3 611.31 2080.86 583.09 2077.63 586.4 2048.66" style="fill:#22c8ee"/><path d="M590.91,2053.85a55.26,55.26,0,0,0,17.72-.44,57.46,57.46,0,0,1,.23,14.56s3.19-4,7.58-9.26c3.34-4,8-9.41,8-9.41l2.73.63a39.94,39.94,0,0,1-1.52,13.24,53.53,53.53,0,0,1-4.8,10.07l-.37,7.57a40.35,40.35,0,0,1-9.74-3.23" style="fill:none;stroke:#231f20;stroke-width:1.5px"/><path d="M519.06,1864.54l7.12-1.45m-48.7,9.91,7.12-1.45m7.55,11.22-4,6.09m27.43-41.61-4,6.09m5,24.47,6.07,4m-41.49-27.59,6.07,4m11.14-7.54-1.45-7.16m3.93,13.25A11.33,11.33,0,0,1,513,1868.22c0,5.86-5.11,8-3.09,18l.38,1.9a2.4,2.4,0,0,1-1.09,2.52.88.88,0,0,1,.05.15,2.76,2.76,0,1,1-5.4,1.1.81.81,0,0,1,0-.16,2.42,2.42,0,0,1-2-1.89l-.38-1.9a21,21,0,0,0-1.56-4.85,16.17,16.17,0,0,0-3.59-4.84c-2.31-2.23-4.59-3.8-5.44-8A11.19,11.19,0,0,1,500.79,1856.85Z" style="fill:none;stroke:#231f20;stroke-width:1.5px"/><polygon points="811.62 2049.33 836.68 2134.77 884.92 2097.58 811.62 2049.33" style="fill:#22c8ee"/><path d="M839.41,2109.2a66,66,0,0,1,12.8,16.94,69.27,69.27,0,0,0,13.84-10.71s-1.38,6-3,14.05c-1.25,6.11-2.85,14.59-2.85,14.59l2.63,2.09a48.31,48.31,0,0,0,11.3-11.36c3.09-4.43,5.88-12.06,5.88-12.06l6.84-6A48.25,48.25,0,0,0,876.5,2110" style="fill:none;stroke:#231f20;stroke-width:1.5px"/><polygon points="796.48 2067.69 732.63 2115.56 778.99 2144.36 796.48 2067.69" style="fill:#22c8ee"/><path d="M755.46,2111.84a65.74,65.74,0,0,1-8.39,19.46,69.75,69.75,0,0,0,16.15,6.77s-5.9,1.75-13.71,4.27c-5.93,1.92-14.09,4.69-14.09,4.69l-.52,3.32a48.39,48.39,0,0,0,15.46,4.23c5.38.52,13.39-.81,13.39-.81l8.61,3a48,48,0,0,0,.74-12.26" style="fill:none;stroke:#231f20;stroke-width:1.5px"/><path d="M732,1955.32a19.13,19.13,0,0,1-.2-4.27c8-2.94,14.19-9,16.18-17,3.47-14-7.16-28.69-23.75-32.81s-32.86,3.88-36.33,17.88,7.15,28.69,23.74,32.81a35.89,35.89,0,0,0,9.88,1,22.37,22.37,0,0,0,3.49,6.24c4.59,5.83,13.68,7.58,13.68,7.58S733,1961.22,732,1955.32Z" style="fill:none;stroke:#231f20;stroke-width:1.5px"/><path d="M787.62,1985.13c8.54,16.38,26.48,22.37,45,12.7L802.93,1941c-18.53,9.67-23.86,27.81-15.31,44.18" style="fill:#22c8ee"/><path d="M759.13,1986.19s25,6.3,38.31-8.12c12.82-13.93,5.7-36.92,5.7-36.92s-26.23-7.73-39,6.19c-13.29,14.43-5,38.85-5,38.85" style="fill:#22c8ee"/><path d="M766.78,1961.31a2.32,2.32,0,1,0-1.56-2.64,2.17,2.17,0,0,0,1.56,2.64" style="fill:#231f20"/><path d="M763.11,1939.47s-2.32,11.73-5.8,17.71-7.79,7.7-7.79,7.7a23.31,23.31,0,0,0,2.55,2.82,12.28,12.28,0,0,0,3.13,1.83,8.22,8.22,0,0,1-1.18,2.84,6.76,6.76,0,0,1-1.9,2,7.09,7.09,0,0,0,3.44,2.47,6.07,6.07,0,0,0,5.31-.93s.37,5.51-4.6,7.72" style="fill:none;stroke:#231f20;stroke-width:1.5px"/><polygon points="786.89 2090.01 846.59 2063.6 820.18 2003.9 760.93 2029.2 786.89 2090.01" style="fill:#22c8ee"/><path d="M825.85,1996.09l-78.32,9.1c2.82,22,19.93,36.47,43.49,33.74,24.4-2.84,37.65-20.83,34.83-42.84" style="fill:#22c8ee"/><path d="M791.16,2055.5a65.3,65.3,0,0,0,12.51,7.51,75.28,75.28,0,0,0,11.3,3.6,89.18,89.18,0,0,0,2.52-27.11c-1.37-17.68-14.67-32.89-14.67-32.89m-12-2.31s11.1,15.43,12.42,29.94a54.56,54.56,0,0,1-3.45,23.43" style="fill:none;stroke:#231f20;stroke-width:1.5px"/><path d="M709.72,1930.32l-.16,2.76-2.54-.14.16-2.76Zm2.54.14,2.54.15-.16,2.75-2.54-.14Zm4.92,3,.16-2.76,2.54.14-.16,2.76Z"/><path d="M724.49,1927.88a4.14,4.14,0,0,1,1.78-3.34l1.23-1a3.39,3.39,0,0,0,1.48-2.4c.08-1.36-.9-2.31-2.53-2.4-2-.11-3.41,1.18-3.73,3.4l-1.92-.47a5.21,5.21,0,0,1,5.8-4.75c2.78.16,4.53,1.87,4.4,4.27a4.57,4.57,0,0,1-2.12,3.43l-1.33,1.08a3,3,0,0,0-1.32,2.38l0,.89-1.75-.1Zm-.44,3.25,2.54.14-.16,2.76-2.54-.15Z"/></g></svg>