<svg xmlns="http://www.w3.org/2000/svg" viewBox="0 0 2460 1751"><g id="Layer_2" data-name="Layer 2"><line x1="-147.81" y1="1485.67" x2="2571.59" y2="1723.59" style="fill:none;stroke:#fef377;stroke-miterlimit:10;stroke-width:0.699999988079071px"/><line x1="-147.81" y1="990.46" x2="2571.59" y2="1228.38" style="fill:none;stroke:#fef377;stroke-miterlimit:10;stroke-width:0.699999988079071px"/><line x1="-147.81" y1="495.25" x2="2571.59" y2="733.16" style="fill:none;stroke:#fef377;stroke-miterlimit:10;stroke-width:0.699999988079071px"/><line x1="-147.81" y1="0.04" x2="2571.59" y2="237.95" style="fill:none;stroke:#fef377;stroke-miterlimit:10;stroke-width:0.699999988079071px"/></g><g id="Layer_1" data-name="Layer 1"><path d="M833.39,1458.79s3.12-6.25,6.19-14.46,5.45-17.65,5.45-17.65l-5.12-3.48a5.09,5.09,0,0,0,.13-4.46,4.28,4.28,0,0,0-3.7-2.14,11.5,11.5,0,0,0,.35-4.55,4,4,0,0,0-1.49-2.7s-1.44,13.11-3.88,25.85-6.12,26.57-6.12,26.57" style="fill:none;stroke:#231f20;stroke-width:0.8416000008583069px"/><polygon points="808.88 1536.17 805.46 1559.75 781.88 1556.32 784.96 1533.02 808.88 1536.17" style="fill:#fff56e"/><path d="M813.09,1542.21c-26,.22-45.27-18.07-45.51-47.47-.24-28.36,18.75-46.64,44.72-46.85s45.27,17.73,45.5,46.1c.25,29.39-18.74,48-44.71,48.22" style="fill:#fff56e"/><path d="M804,1540.32a41.71,41.71,0,0,0,.8,13.4,43.93,43.93,0,0,1-11,.55s3.12,2.31,7.21,5.49c3.1,2.42,7.35,5.83,7.35,5.83l-.41,2.08a30.31,30.31,0,0,1-10.07-.8,40.76,40.76,0,0,1-7.76-3.37l-5.74-.08a30.5,30.5,0,0,1,2.19-7.45" style="fill:none;stroke:#231f20;stroke-width:0.8416000008583069px"/><path d="M795.79,1426.1l5,31.8c-8.75,1.38-16.17-3.7-17.68-13.26-1.57-9.91,3.9-17.15,12.66-18.54" style="fill:#fff56e"/><path d="M818.72,1436.82c1.34,11.82-6.07,21.48-19.44,23l-4.66-41c13.37-1.52,22.76,6.23,24.1,18" style="fill:#fff56e"/><path d="M797.8,1416.56a23.82,23.82,0,0,1,9.75-2.07,21.56,21.56,0,0,1,9.3,2.41c1.77,1,1.9,2.28,1,3.8l-3.08,5.33s3.92.64,3.7,3.2c-.24,2.71-4.36,2.77-4.36,2.77" style="fill:none;stroke:#231f20;stroke-width:0.8416000008583069px"/><path d="M801.31,1424.25c-.36.61-1.45.65-2.43.08s-1.5-1.53-1.14-2.15,1.44-.65,2.43-.08,1.49,1.53,1.14,2.15" style="fill:#231f20"/><path d="M778,1469.58s-4.85-5-10.26-11.92-10.5-15.2-10.5-15.2l3.84-4.86a5.08,5.08,0,0,1-1.47-4.21,4.28,4.28,0,0,1,2.89-3.15,11.46,11.46,0,0,1-1.7-4.24,4,4,0,0,1,.61-3s5.31,12.07,11.47,23.49,13.82,23.5,13.82,23.5" style="fill:none;stroke:#231f20;stroke-width:0.8416000008583069px"/><polygon points="845.81 1510.63 865.59 1513.15 863.07 1532.92 843.52 1530.69 845.81 1510.63" style="fill:#fff56e"/><path d="M848.94,1514.22a38.23,38.23,0,0,0,12.27-.31,39.55,39.55,0,0,1,.16,10.09s2.21-2.78,5.25-6.41c2.31-2.76,5.56-6.52,5.56-6.52l1.9.44a28.06,28.06,0,0,1-1.06,9.17,37.05,37.05,0,0,1-3.33,7l-.25,5.24a27.82,27.82,0,0,1-6.75-2.23" style="fill:none;stroke:#231f20;stroke-width:0.8416000008583069px"/><path d="M799.17,1383.1l4.93-1M770.37,1389l4.93-1m5.23,7.77-2.78,4.21m19-28.81-2.77,4.21m3.45,17,4.2,2.8M772.88,1376l4.2,2.8m7.72-5.22-1-5m2.73,9.18a7.83,7.83,0,0,1,8.46,7.87c0,4.06-3.54,5.57-2.14,12.44l.27,1.31a1.67,1.67,0,0,1-.76,1.75.45.45,0,0,1,0,.11,1.9,1.9,0,1,1-3.73.76.45.45,0,0,1,0-.11,1.69,1.69,0,0,1-1.39-1.32l-.26-1.31a14.59,14.59,0,0,0-1.08-3.36,11.15,11.15,0,0,0-2.49-3.35c-1.6-1.55-3.18-2.63-3.77-5.52A7.74,7.74,0,0,1,786.52,1377.78Z" style="fill:none;stroke:#231f20;stroke-width:0.8416000008583069px"/><polygon points="1669.73 1553.83 1690.04 1623.05 1729.12 1592.93 1669.73 1553.83" style="fill:#fff56e"/><path d="M1692.25,1602.34a53.4,53.4,0,0,1,10.36,13.72,56.09,56.09,0,0,0,11.22-8.68s-1.12,4.87-2.46,11.39c-1,5-2.32,11.82-2.32,11.82l2.14,1.69a39.17,39.17,0,0,0,9.15-9.21,52.62,52.62,0,0,0,4.77-9.76l5.54-4.88a39.16,39.16,0,0,0-8.35-5.44" style="fill:none;stroke:#231f20;stroke-width:0.8416000008583069px"/><polygon points="1657.46 1568.71 1605.74 1607.49 1643.29 1630.83 1657.46 1568.71" style="fill:#fff56e"/><path d="M1624.23,1604.47a53,53,0,0,1-6.8,15.77,56,56,0,0,0,13.09,5.48s-4.78,1.42-11.11,3.47c-4.8,1.55-11.42,3.79-11.42,3.79l-.41,2.7a39.61,39.61,0,0,0,12.53,3.43,53,53,0,0,0,10.84-.67l7,2.42a39.28,39.28,0,0,0,.6-9.93" style="fill:none;stroke:#231f20;stroke-width:0.8416000008583069px"/><path d="M1605.22,1477.67a15.35,15.35,0,0,1-.16-3.46c6.49-2.38,11.49-7.27,13.1-13.75,2.82-11.34-5.79-23.24-19.23-26.58s-26.62,3.14-29.44,14.48,5.79,23.24,19.24,26.58a29.1,29.1,0,0,0,8,.86,17.87,17.87,0,0,0,2.83,5c3.71,4.72,11.08,6.14,11.08,6.14S1606,1482.45,1605.22,1477.67Z" style="fill:none;stroke:#231f20;stroke-width:0.8416000008583069px"/><path d="M1650.29,1501.82c6.92,13.27,21.45,18.12,36.46,10.28L1662.69,1466c-15,7.84-19.33,22.54-12.4,35.8" style="fill:#fff56e"/><path d="M1627.21,1502.67s20.27,5.11,31-6.57c10.39-11.28,4.63-29.91,4.63-29.91s-21.26-6.26-31.65,5c-10.76,11.69-4,31.47-4,31.47" style="fill:#fff56e"/><path d="M1633.4,1482.52a1.88,1.88,0,1,0-1.26-2.14,1.77,1.77,0,0,0,1.26,2.14" style="fill:#231f20"/><path d="M1630.43,1464.82s-1.87,9.51-4.7,14.35-6.31,6.24-6.31,6.24a18.52,18.52,0,0,0,2.07,2.28,9.59,9.59,0,0,0,2.53,1.49,6.6,6.6,0,0,1-1,2.3,5.57,5.57,0,0,1-1.54,1.61,5.74,5.74,0,0,0,2.78,2,4.87,4.87,0,0,0,4.3-.75s.3,4.47-3.72,6.26" style="fill:none;stroke:#231f20;stroke-width:0.8416000008583069px"/><polygon points="1649.7 1586.79 1698.06 1565.4 1676.67 1517.03 1628.66 1537.52 1649.7 1586.79" style="fill:#fff56e"/><path d="M1681.26,1510.7l-63.45,7.37c2.28,17.83,16.15,29.55,35.23,27.33,19.77-2.29,30.5-16.87,28.22-34.7" style="fill:#fff56e"/><path d="M1653.16,1558.83a53.62,53.62,0,0,0,10.13,6.09,61.55,61.55,0,0,0,9.16,2.91,72.35,72.35,0,0,0,2-22c-1.11-14.33-11.89-26.65-11.89-26.65m-9.71-1.87s9,12.5,10.07,24.26a44,44,0,0,1-2.8,19" style="fill:none;stroke:#231f20;stroke-width:0.8416000008583069px"/><text transform="matrix(1, 0.06, -0.06, 1, 1586.22, 1458.22)" style="font-size:14.830463409423828px;font-family:Ideal-Regular, Ideal"><tspan style="letter-spacing:-0.06696783742232267em">...</tspan><tspan x="8.91" y="0">?</tspan></text></g></svg>