<svg xmlns="http://www.w3.org/2000/svg" viewBox="0 0 1288 2207"><title>crowd_collect_yellow_mobile</title><g id="Layer_2" data-name="Layer 2"><line x1="-129.05" y1="2211.5" x2="1414.05" y2="2076.5" style="fill:none;stroke:#fef377;stroke-miterlimit:10"/><line x1="-129.05" y1="1864.84" x2="1414.05" y2="1729.83" style="fill:none;stroke:#fef377;stroke-miterlimit:10"/><line x1="-129.05" y1="1518.17" x2="1414.05" y2="1383.16" style="fill:none;stroke:#fef377;stroke-miterlimit:10"/><line x1="-129.05" y1="1171.5" x2="1414.05" y2="1036.5" style="fill:none;stroke:#fef377;stroke-miterlimit:10"/><line x1="-129.05" y1="824.84" x2="1414.05" y2="689.83" style="fill:none;stroke:#fef377;stroke-miterlimit:10"/><line x1="-129.05" y1="478.17" x2="1414.05" y2="343.16" style="fill:none;stroke:#fef377;stroke-miterlimit:10"/><line x1="-129.05" y1="131.5" x2="1414.05" y2="-3.5" style="fill:none;stroke:#fef377;stroke-miterlimit:10"/></g><g id="Layer_1" data-name="Layer 1"><path d="M659.56,2043.6l39.85-48.23c13.28,11,15.41,28.32,3.43,42.82-12.41,15-30,16.38-43.28,5.41" style="fill:#fef377"/><polygon points="693.66 2058.8 711.96 2122.07 667.09 2118.02 693.66 2058.8" style="fill:#fef377"/><path d="M700.1,2107.23a48.56,48.56,0,0,0-1.26,15.59,51,51,0,0,1-12.83-1.17s3.23,3.18,7.43,7.52c3.19,3.3,7.54,7.93,7.54,7.93l-.81,2.34a35.63,35.63,0,0,1-11.51-2.58,47.79,47.79,0,0,1-8.42-5.16l-6.62-1a35.37,35.37,0,0,1,3.75-8.25" style="fill:none;stroke:#1d1d1b"/><polygon points="735.37 2060.34 695.13 2087.01 668.45 2046.77 707.82 2019.92 735.37 2060.34" style="fill:#fef377"/><polygon points="708.34 2068.1 752.28 2107.51 716.26 2125.73 708.34 2068.1" style="fill:#fef377"/><path d="M735.66,2103.3a48.46,48.46,0,0,0,4.91,14.85,50.6,50.6,0,0,1-12.27,3.92s4.21,1.67,9.78,4c4.22,1.8,10,4.36,10,4.36l.16,2.48a35.83,35.83,0,0,1-11.6,2.1,47.66,47.66,0,0,1-9.76-1.47l-6.51,1.63a35.87,35.87,0,0,1,.24-9.06" style="fill:none;stroke:#1d1d1b"/><path d="M664.26,2005.66c-7.19,11.62-20.74,15.07-33.89,6.94l25-40.37c13.15,8.14,16.11,21.81,8.92,33.43" style="fill:#fef377"/><path d="M685.34,2007.84s-18.8,3.3-27.83-8c-8.71-11-2.22-27.54-2.22-27.54s19.77-4.29,28.48,6.67c9,11.35,1.57,28.92,1.57,28.92" style="fill:#fef377"/><path d="M683.31,2000.81a4.05,4.05,0,0,1,1.32-1.13,3.92,3.92,0,0,1,1.7-.33" style="fill:none;stroke:#1d1d1b;stroke-width:0.8px"/><path d="M684.84,1973.21s1,8.77,3.2,13.36,5.17,6.09,5.17,6.09a16.91,16.91,0,0,1-2,1.94,8.36,8.36,0,0,1-2.34,1.17,6.19,6.19,0,0,0,.7,2.16,5,5,0,0,0,1.25,1.57,5.35,5.35,0,0,1-2.55,2c-2.93.78-3.81-1.49-3.81-1.49" style="fill:none;stroke:#1d1d1b"/><polygon points="757.49 2033.38 725.77 1854.26 693.87 1859.77 722.44 2039.43 757.49 2033.38" style="fill:#fef377"/><line x1="719.77" y1="2034.29" x2="758.08" y2="2026.46" style="fill:none;stroke:#1d1d1b"/><line x1="718.64" y1="2027.73" x2="757.15" y2="2021.08" style="fill:none;stroke:#1d1d1b"/><line x1="717.5" y1="2021.17" x2="756.22" y2="2015.71" style="fill:none;stroke:#1d1d1b"/><line x1="716.58" y1="2015.8" x2="755.09" y2="2009.15" style="fill:none;stroke:#1d1d1b"/><line x1="715.65" y1="2010.42" x2="753.96" y2="2002.59" style="fill:none;stroke:#1d1d1b"/><line x1="714.52" y1="2003.86" x2="753.03" y2="1997.22" style="fill:none;stroke:#1d1d1b"/><line x1="713.39" y1="1997.3" x2="752.11" y2="1991.85" style="fill:none;stroke:#1d1d1b"/><line x1="712.46" y1="1991.93" x2="750.97" y2="1985.28" style="fill:none;stroke:#1d1d1b"/><line x1="711.53" y1="1986.56" x2="749.84" y2="1978.72" style="fill:none;stroke:#1d1d1b"/><line x1="710.4" y1="1980" x2="748.91" y2="1973.35" style="fill:none;stroke:#1d1d1b"/><line x1="709.27" y1="1973.43" x2="747.99" y2="1967.98" style="fill:none;stroke:#1d1d1b"/><line x1="708.34" y1="1968.06" x2="746.86" y2="1961.42" style="fill:none;stroke:#1d1d1b"/><line x1="707.41" y1="1962.69" x2="745.72" y2="1954.85" style="fill:none;stroke:#1d1d1b"/><line x1="706.28" y1="1956.13" x2="744.8" y2="1949.48" style="fill:none;stroke:#1d1d1b"/><line x1="705.15" y1="1949.57" x2="743.87" y2="1944.11" style="fill:none;stroke:#1d1d1b"/><line x1="704.22" y1="1944.2" x2="742.74" y2="1937.55" style="fill:none;stroke:#1d1d1b"/><line x1="703.3" y1="1938.82" x2="741.6" y2="1930.99" style="fill:none;stroke:#1d1d1b"/><line x1="702.16" y1="1932.26" x2="740.68" y2="1925.62" style="fill:none;stroke:#1d1d1b"/><line x1="701.03" y1="1925.7" x2="739.75" y2="1920.24" style="fill:none;stroke:#1d1d1b"/><line x1="700.1" y1="1920.33" x2="738.62" y2="1913.68" style="fill:none;stroke:#1d1d1b"/><line x1="699.18" y1="1914.96" x2="737.49" y2="1907.12" style="fill:none;stroke:#1d1d1b"/><line x1="698.05" y1="1908.39" x2="736.56" y2="1901.75" style="fill:none;stroke:#1d1d1b"/><line x1="696.91" y1="1901.83" x2="735.63" y2="1896.38" style="fill:none;stroke:#1d1d1b"/><line x1="695.99" y1="1896.46" x2="734.5" y2="1889.82" style="fill:none;stroke:#1d1d1b"/><line x1="695.06" y1="1891.09" x2="733.37" y2="1883.25" style="fill:none;stroke:#1d1d1b"/><line x1="693.93" y1="1884.53" x2="732.44" y2="1877.88" style="fill:none;stroke:#1d1d1b"/><line x1="692.79" y1="1877.97" x2="731.51" y2="1872.51" style="fill:none;stroke:#1d1d1b"/><line x1="691.87" y1="1872.59" x2="730.38" y2="1865.95" style="fill:none;stroke:#1d1d1b"/><line x1="690.94" y1="1867.22" x2="729.25" y2="1859.39" style="fill:none;stroke:#1d1d1b"/><path d="M695.44,2039.75s8.53,2.7,19.56,5,23.47,3.36,23.47,3.36l3.38-7.2a7.41,7.41,0,0,0,7.13-1.66,7.52,7.52,0,0,0,2.23-7c-6.4.15-17.27.43-26.28.15-16.64-.5-34.91-2.41-34.91-2.41" style="fill:none;stroke:#1d1d1b"/><path d="M825.84,2033.73l11.65-6.15c6.89-3.64,11.57-6.4,11.57-6.4" style="fill:none;stroke:#1d1d1b"/><path d="M797.66,2056.42l6.6,59.79c-16.46,1.82-29.86-8.32-31.85-26.3-2.06-18.63,8.78-31.67,25.25-33.49" style="fill:#fef377"/><path d="M738.25,2060.33c13.86-9.08,30.52-5.92,40.78,9.76l-48.13,31.52c-10.27-15.68-6.51-32.21,7.35-41.28" style="fill:#fef377"/><path d="M828,2020.78c-9.36-1.47-15.21-9.24-13.54-19.88,1.62-10.28,9.55-15.75,18.92-14.28s15.23,9.12,13.62,19.39c-1.68,10.65-9.63,16.25-19,14.77" style="fill:#fef377"/><polygon points="762.25 2078.59 794.13 1999.62 836.64 2039.72 762.25 2078.59" style="fill:#fef377"/><path d="M801.68,2099.18a46.26,46.26,0,0,0,6.32,13.4,47.94,47.94,0,0,1-11.07,5.09s4.15,1.09,9.65,2.68c4.17,1.2,9.92,3,9.92,3l.44,2.31a33.63,33.63,0,0,1-10.66,3.31,45.19,45.19,0,0,1-9.33-.27l-5.92,2.28a33.41,33.41,0,0,1-.82-8.54" style="fill:none;stroke:#1d1d1b"/><path d="M835,2012.65a4.6,4.6,0,0,1,1.47-1.38,4.51,4.51,0,0,1,1.94-.47" style="fill:none;stroke:#1d1d1b;stroke-width:0.8px"/><path d="M835.44,1981.35s1.59,9.88,4.3,15,6.18,6.67,6.18,6.67a18.79,18.79,0,0,1-2.16,2.29,9.82,9.82,0,0,1-2.61,1.43,7.08,7.08,0,0,0,.89,2.42,5.61,5.61,0,0,0,1.51,1.72,6.13,6.13,0,0,1-2.81,2.39c-3.31,1-4.42-1.52-4.42-1.52" style="fill:none;stroke:#1d1d1b"/><path d="M831.92,1999.47a1.94,1.94,0,1,1,1.37-2.17,1.82,1.82,0,0,1-1.37,2.17" style="fill:#1d1d1b"/><path d="M793.85,1980.47s9.52-7.06,17.69-3.26c7.89,3.66,8.89,14.68,8.89,14.68s-9.79,7.88-17.67,4.21c-8.17-3.8-8.91-15.63-8.91-15.63" style="fill:#fef377"/><polygon points="793.62 2031.6 810.12 2083.56 739.5 2048.93 793.62 2031.6" style="fill:#fef377"/><polygon points="854.7 2029.29 891.39 2026.17 887.88 1983.94 851.64 1986.53 854.7 2029.29" style="fill:#fef377"/><line x1="853.1" y1="2022.78" x2="892.17" y2="2021.2" style="fill:none;stroke:#1d1d1b"/><line x1="852.71" y1="2017.34" x2="891.69" y2="2014.55" style="fill:none;stroke:#1d1d1b"/><line x1="852.32" y1="2011.9" x2="891.22" y2="2007.91" style="fill:none;stroke:#1d1d1b"/><line x1="851.85" y1="2005.26" x2="890.83" y2="2002.47" style="fill:none;stroke:#1d1d1b"/><line x1="851.37" y1="1998.62" x2="890.44" y2="1997.04" style="fill:none;stroke:#1d1d1b"/><line x1="850.98" y1="1993.18" x2="889.97" y2="1990.4" style="fill:none;stroke:#1d1d1b"/><path d="M836.07,2044.05s8.95-.39,20.08-2,23.2-4.88,23.2-4.88l.71-7.93a7.4,7.4,0,0,0,6.12-4,7.54,7.54,0,0,0-.28-7.32c-6,2.34-16.08,6.32-24.64,9.15-15.81,5.23-33.63,9.69-33.63,9.69" style="fill:none;stroke:#1d1d1b"/><path d="M628.12,1970.78c-1.48,3-4,8-6.31,12.09-4.27,7.51-9.57,15.43-9.57,15.43" style="fill:none;stroke:#1d1d1b"/><polygon points="619.7 2117.27 619.51 2034.47 635.91 2034.51 634.63 2117.3 619.7 2117.27" style="fill:#fef377"/><polygon points="644.89 2106.81 622.85 2027 638.68 2022.71 659.3 2102.9 644.89 2106.81" style="fill:#fef377"/><polygon points="638.54 2032.57 602.21 1958.16 587.56 1965.56 625.22 2039.3 638.54 2032.57" style="fill:#fef377"/><path d="M618.46,1968.75s-18.26-.11-24.81-12.34c-6.32-11.81,2.63-26.31,2.63-26.31s19.34-.65,25.66,11.16c6.55,12.24-3.48,27.49-3.48,27.49" style="fill:#fef377"/><path d="M579.94,1922.84c2.69-10.92,12.44-17.06,24.8-14l-9.35,38c-12.36-3-18.14-13-15.45-23.94" style="fill:#fef377"/><path d="M600.58,1933s6.56-3.64,10-5.37a7,7,0,0,1,9.5,2.88c1.83,3.42.76,6.65-3,9.35a32,32,0,0,1-4,2.49s2.59,4.49,4.47,7.5c1,1.6,3,4.23,3,4.23a6,6,0,0,1-2.59,2,8.61,8.61,0,0,1-3.65.63,8.62,8.62,0,0,0,2.92,4c2.14,1.51,3.69.94,3.69.94" style="fill:none;stroke:#1d1d1b"/><path d="M603.8,1944a2.24,2.24,0,1,1,.44-2.69,1.95,1.95,0,0,1-.44,2.69" style="fill:#1d1d1b"/><path d="M637,2096.16a113.19,113.19,0,0,0,2.86,11.17,72.86,72.86,0,0,0,4.68,11.91s-3.22,1-6.93,1.74c0,0,.67,4.4,3.31,6.86,3.3,3.09,7.78,3.49,12,3.81s3.63,6.68,3.63,6.68l1.78.21.29,2.81a52.81,52.81,0,0,1-9.79,1,31.81,31.81,0,0,1-11.16-1.4l-1.07,2.51-10.23,1.06-.79-3.58,2-.71s-.7-3.94-1.06-9.29-.44-8.09-.44-8.09-2.61.32-5.68.49" style="fill:none;stroke:#1d1d1b"/><path d="M653.57,2097.52c.47,2,1.2,4.9,2.19,8.1a74,74,0,0,0,4.68,11.91s-3.22.95-6.92,1.74c0,0,.66,4.4,3.3,6.87,3.31,3.08,7.79,3.48,12,3.8s3.54,6.26,3.54,6.26l1.78.21.29,2.81a52.81,52.81,0,0,1-9.79,1,44.46,44.46,0,0,1-6.22-.25" style="fill:none;stroke:#1d1d1b"/><polygon points="665.97 1901.35 629.16 1902.29 630.47 1968.81 666.79 1968.36 665.97 1901.35" style="fill:#fef377"/><line x1="628.7" y1="1956.8" x2="667.78" y2="1956.32" style="fill:none;stroke:#1d1d1b"/><line x1="628.62" y1="1950.15" x2="667.71" y2="1950.87" style="fill:none;stroke:#1d1d1b"/><line x1="628.55" y1="1944.7" x2="667.63" y2="1944.21" style="fill:none;stroke:#1d1d1b"/><line x1="628.48" y1="1939.24" x2="667.55" y2="1937.55" style="fill:none;stroke:#1d1d1b"/><line x1="628.4" y1="1932.59" x2="667.48" y2="1932.1" style="fill:none;stroke:#1d1d1b"/><line x1="628.32" y1="1925.93" x2="667.41" y2="1926.65" style="fill:none;stroke:#1d1d1b"/><line x1="628.25" y1="1920.48" x2="667.33" y2="1919.99" style="fill:none;stroke:#1d1d1b"/><line x1="628.18" y1="1915.03" x2="667.25" y2="1913.34" style="fill:none;stroke:#1d1d1b"/><line x1="628.1" y1="1908.37" x2="667.18" y2="1907.89" style="fill:none;stroke:#1d1d1b"/><line x1="628.87" y1="1963.5" x2="667.85" y2="1961.77" style="fill:none;stroke:#1d1d1b"/><path d="M626.41,2001.6s7.33-5.14,15.81-12.53,16.92-16.61,16.92-16.61l-3.66-7.06a7.42,7.42,0,0,0,3-6.67,7.52,7.52,0,0,0-4.18-6c-3.76,5.18-10.14,14-15.84,21C628,1986.61,615.35,2000,615.35,2000" style="fill:none;stroke:#1d1d1b"/><path d="M514.63,1985.94l-9.27,37.59c-10.35-2.55-16.2-11.65-13.41-23,2.88-11.72,12.32-17.2,22.68-14.64" style="fill:#fef377"/><polygon points="552.24 2112.02 555.44 2140.49 526.96 2143.69 523.44 2115.63 552.24 2112.02" style="fill:#fef377"/><polygon points="587.42 2071.04 611.2 2067.94 614.29 2091.72 590.87 2095.08 587.42 2071.04" style="fill:#fef377"/><path d="M559,2117.76c-30.16,8.17-58.18-7.23-67.43-41.36-8.92-32.93,7.6-60,37.76-68.15s58.07,6.84,67,39.78c9.25,34.12-7.17,61.56-37.32,69.73" style="fill:#fef377"/><path d="M535.05,2008.51c-4,13.73-16.74,21-32.28,16.43l14-47.68c15.54,4.55,22.33,17.53,18.3,31.25" style="fill:#fef377"/><path d="M547.81,2118.34a50.23,50.23,0,0,0,5,15.34,52.53,52.53,0,0,1-12.66,4s4.34,1.73,10.07,4.19c4.34,1.87,10.32,4.54,10.32,4.54l.16,2.55a36.43,36.43,0,0,1-12,2.13,49,49,0,0,1-10.06-1.55l-6.7,1.66a36.73,36.73,0,0,1,.27-9.34" style="fill:none;stroke:#1d1d1b"/><path d="M521.31,1976.29a28.91,28.91,0,0,1,11.78,2.26,26,26,0,0,1,9.18,7c1.49,2,1,3.42-.64,4.69l-5.91,4.48s4.06,2.54,2.62,5.27c-1.53,2.89-6.13,1-6.13,1" style="fill:none;stroke:#1d1d1b"/><path d="M531.81,2002.94a3.5,3.5,0,0,1,1.24-3.17" style="fill:none;stroke:#1d1d1b;stroke-width:0.8px"/><polygon points="527.35 1906.65 568.73 2033.86 599.57 2024.03 561.23 1895.85 527.35 1906.65" style="fill:#fef377"/><line x1="564.68" y1="1900.86" x2="527.8" y2="1913.88" style="fill:none;stroke:#1d1d1b"/><line x1="566.7" y1="1907.21" x2="529.46" y2="1919.07" style="fill:none;stroke:#1d1d1b"/><line x1="568.72" y1="1913.55" x2="531.12" y2="1924.27" style="fill:none;stroke:#1d1d1b"/><line x1="570.37" y1="1918.74" x2="533.14" y2="1930.61" style="fill:none;stroke:#1d1d1b"/><line x1="572.03" y1="1923.94" x2="535.16" y2="1936.96" style="fill:none;stroke:#1d1d1b"/><line x1="574.05" y1="1930.28" x2="536.81" y2="1942.15" style="fill:none;stroke:#1d1d1b"/><line x1="576.07" y1="1936.63" x2="538.47" y2="1947.34" style="fill:none;stroke:#1d1d1b"/><line x1="577.73" y1="1941.82" x2="540.49" y2="1953.69" style="fill:none;stroke:#1d1d1b"/><line x1="579.38" y1="1947.01" x2="542.51" y2="1960.03" style="fill:none;stroke:#1d1d1b"/><line x1="581.41" y1="1953.36" x2="544.17" y2="1965.23" style="fill:none;stroke:#1d1d1b"/><line x1="583.43" y1="1959.7" x2="545.82" y2="1970.42" style="fill:none;stroke:#1d1d1b"/><line x1="585.08" y1="1964.9" x2="547.85" y2="1976.76" style="fill:none;stroke:#1d1d1b"/><line x1="586.74" y1="1970.09" x2="549.87" y2="1983.11" style="fill:none;stroke:#1d1d1b"/><line x1="588.76" y1="1976.44" x2="551.52" y2="1988.3" style="fill:none;stroke:#1d1d1b"/><line x1="590.78" y1="1982.78" x2="553.18" y2="1993.5" style="fill:none;stroke:#1d1d1b"/><line x1="592.44" y1="1987.97" x2="555.2" y2="1999.84" style="fill:none;stroke:#1d1d1b"/><line x1="594.09" y1="1993.17" x2="557.22" y2="2006.19" style="fill:none;stroke:#1d1d1b"/><line x1="596.11" y1="1999.51" x2="558.88" y2="2011.38" style="fill:none;stroke:#1d1d1b"/><line x1="598.14" y1="2005.86" x2="560.53" y2="2016.57" style="fill:none;stroke:#1d1d1b"/><line x1="599.79" y1="2011.05" x2="562.55" y2="2022.92" style="fill:none;stroke:#1d1d1b"/><line x1="601.45" y1="2016.24" x2="564.58" y2="2029.26" style="fill:none;stroke:#1d1d1b"/><path d="M544.23,2048.74s8.94-.38,20.07-2,23.2-4.89,23.2-4.89l.71-7.92a7.44,7.44,0,0,0,6.13-4,7.53,7.53,0,0,0-.29-7.31c-6,2.33-16.08,6.32-24.64,9.15-15.81,5.22-33.63,9.69-33.63,9.69" style="fill:none;stroke:#1d1d1b;stroke-width:0.8px"/><path d="M591.32,2069.32a50.17,50.17,0,0,0,15.35-5,52.4,52.4,0,0,1,4,12.67s1.75-4.33,4.22-10.06c1.88-4.34,4.56-10.31,4.56-10.31l2.55-.16a36.58,36.58,0,0,1,2.11,12,48.88,48.88,0,0,1-1.58,10l1.65,6.71a36.72,36.72,0,0,1-9.34-.29" style="fill:none;stroke:#1d1d1b;stroke-width:0.8px"/><path d="M446.64,2032.35c6.4,18.93,24.57,28.32,46,21.07l-22.25-65.73c-21.42,7.25-30.14,25.74-23.73,44.66" style="fill:#fef377"/><polygon points="432.25 2106.71 487.52 2102.46 483.27 2047.18 428.67 2050.67 432.25 2106.71" style="fill:#fef377"/><polygon points="470.63 2149.44 484.43 2101.86 450.68 2104.89 470.63 2149.44" style="fill:#fef377"/><polygon points="439.36 2146.31 472.14 2109.17 440.34 2097.5 439.36 2146.31" style="fill:#fef377"/><path d="M478.33,2017.86a28,28,0,0,1,9,7.34,25.25,25.25,0,0,1,4.62,10.19c.37,2.37-.69,3.4-2.71,3.71l-7.08,1.24s2.27,3.9-.21,5.57c-2.64,1.77-5.72-1.92-5.72-1.92" style="fill:none;stroke:#1d1d1b"/><path d="M475.05,2045.41a3.41,3.41,0,0,1,2.55-2.17" style="fill:none;stroke:#1d1d1b;stroke-width:0.8px"/><path d="M475.78,2026.49c-.29-1.47-1.28-2.52-2.2-2.33s-1.42,1.53-1.12,3" style="fill:none;stroke:#1d1d1b"/><path d="M450.86,2128a48.48,48.48,0,0,0-3.11,15.3,51,51,0,0,1-12.58-2.68s2.82,3.54,6.48,8.35c2.77,3.65,6.53,8.75,6.53,8.75l-1.09,2.23A35.6,35.6,0,0,1,436,2156a47.83,47.83,0,0,1-7.73-6.12l-6.45-1.81a35.48,35.48,0,0,1,4.7-7.73" style="fill:none;stroke:#1d1d1b"/><path d="M479,2125.62a48.58,48.58,0,0,0,4.56,14.94,50.79,50.79,0,0,1-12.34,3.64s4.16,1.76,9.67,4.25c4.17,1.89,9.91,4.59,9.91,4.59l.11,2.47a35.42,35.42,0,0,1-11.64,1.84,48.06,48.06,0,0,1-9.71-1.7l-6.53,1.48a35.41,35.41,0,0,1,.45-9" style="fill:none;stroke:#1d1d1b"/><polygon points="429.41 2097.09 439.97 1915.48 407.67 1913.46 393.91 2094.87 429.41 2097.09" style="fill:#fef377"/><line x1="392.5" y1="2089.25" x2="431.58" y2="2090.48" style="fill:none;stroke:#1d1d1b"/><line x1="392.92" y1="2082.6" x2="431.93" y2="2085.04" style="fill:none;stroke:#1d1d1b"/><line x1="393.33" y1="2075.96" x2="432.27" y2="2079.6" style="fill:none;stroke:#1d1d1b"/><line x1="393.68" y1="2070.51" x2="432.68" y2="2072.96" style="fill:none;stroke:#1d1d1b"/><line x1="394.02" y1="2065.07" x2="433.1" y2="2066.31" style="fill:none;stroke:#1d1d1b"/><line x1="394.43" y1="2058.43" x2="433.44" y2="2060.87" style="fill:none;stroke:#1d1d1b"/><line x1="394.85" y1="2051.78" x2="433.78" y2="2055.43" style="fill:none;stroke:#1d1d1b"/><line x1="395.19" y1="2046.34" x2="434.19" y2="2048.78" style="fill:none;stroke:#1d1d1b"/><line x1="395.53" y1="2040.9" x2="434.61" y2="2042.14" style="fill:none;stroke:#1d1d1b"/><line x1="395.94" y1="2034.26" x2="434.95" y2="2036.7" style="fill:none;stroke:#1d1d1b"/><line x1="396.36" y1="2027.61" x2="435.29" y2="2031.26" style="fill:none;stroke:#1d1d1b"/><line x1="396.7" y1="2022.17" x2="435.71" y2="2024.61" style="fill:none;stroke:#1d1d1b"/><line x1="397.04" y1="2016.73" x2="436.12" y2="2017.97" style="fill:none;stroke:#1d1d1b"/><line x1="397.46" y1="2010.08" x2="436.46" y2="2012.52" style="fill:none;stroke:#1d1d1b"/><line x1="397.87" y1="2003.44" x2="436.8" y2="2007.08" style="fill:none;stroke:#1d1d1b"/><line x1="398.21" y1="1998" x2="437.22" y2="2000.44" style="fill:none;stroke:#1d1d1b"/><line x1="398.55" y1="1992.56" x2="437.64" y2="1993.79" style="fill:none;stroke:#1d1d1b"/><line x1="398.97" y1="1985.91" x2="437.98" y2="1988.35" style="fill:none;stroke:#1d1d1b"/><line x1="399.39" y1="1979.27" x2="438.32" y2="1982.91" style="fill:none;stroke:#1d1d1b"/><line x1="399.73" y1="1973.82" x2="438.73" y2="1976.27" style="fill:none;stroke:#1d1d1b"/><line x1="400.07" y1="1968.38" x2="439.15" y2="1969.62" style="fill:none;stroke:#1d1d1b"/><line x1="400.48" y1="1961.74" x2="439.49" y2="1964.18" style="fill:none;stroke:#1d1d1b"/><line x1="400.9" y1="1955.09" x2="439.83" y2="1958.74" style="fill:none;stroke:#1d1d1b"/><line x1="401.24" y1="1949.65" x2="440.24" y2="1952.09" style="fill:none;stroke:#1d1d1b"/><line x1="401.58" y1="1944.21" x2="440.66" y2="1945.45" style="fill:none;stroke:#1d1d1b"/><line x1="401.99" y1="1937.57" x2="441" y2="1940.01" style="fill:none;stroke:#1d1d1b"/><line x1="402.41" y1="1930.92" x2="441.34" y2="1934.57" style="fill:none;stroke:#1d1d1b"/><line x1="402.75" y1="1925.48" x2="441.76" y2="1927.92" style="fill:none;stroke:#1d1d1b"/><line x1="403.09" y1="1920.04" x2="442.17" y2="1921.27" style="fill:none;stroke:#1d1d1b"/><path d="M453.17,2061.44s-7.66,4.63-16.62,11.43-18,15.43-18,15.43l3.18,7.29a7.4,7.4,0,0,0-3.45,6.45,7.5,7.5,0,0,0,3.77,6.28c4.1-4.91,11.07-13.26,17.22-19.86,11.35-12.17,24.84-24.64,24.84-24.64" style="fill:none;stroke:#1d1d1b;stroke-width:0.8px"/><path d="M681.14,1989.29a1.95,1.95,0,1,1,1.37-2.17,1.82,1.82,0,0,1-1.37,2.17" style="fill:#1d1d1b"/><path d="M521.36,1986.24a2.24,2.24,0,1,1,.1-2.71,1.95,1.95,0,0,1-.1,2.71" style="fill:#1d1d1b"/></g></svg>