<svg id="Layer_1" data-name="Layer 1" xmlns="http://www.w3.org/2000/svg" viewBox="0 0 1000 1000"><title>03</title><rect x="-2" y="-1" width="1005" height="1003" style="fill:#fef377"/><line x1="-100.61" y1="1071.69" x2="1149.61" y2="962.31" style="fill:none;stroke:#ff4646;stroke-miterlimit:10"/><line x1="-100.61" y1="980.86" x2="1149.61" y2="871.48" style="fill:none;stroke:#ff4646;stroke-miterlimit:10"/><line x1="-100.61" y1="890.02" x2="1149.61" y2="780.64" style="fill:none;stroke:#ff4646;stroke-miterlimit:10"/><line x1="-100.61" y1="799.19" x2="1149.61" y2="689.81" style="fill:none;stroke:#ff4646;stroke-miterlimit:10"/><line x1="-100.61" y1="708.36" x2="1149.61" y2="598.98" style="fill:none;stroke:#ff4646;stroke-miterlimit:10"/><line x1="-100.61" y1="617.52" x2="1149.61" y2="508.14" style="fill:none;stroke:#ff4646;stroke-miterlimit:10"/><line x1="-100.61" y1="526.69" x2="1149.61" y2="417.31" style="fill:none;stroke:#ff4646;stroke-miterlimit:10"/><line x1="-100.61" y1="435.86" x2="1149.61" y2="326.48" style="fill:none;stroke:#ff4646;stroke-miterlimit:10"/><line x1="-100.61" y1="345.02" x2="1149.61" y2="235.64" style="fill:none;stroke:#ff4646;stroke-miterlimit:10"/><line x1="-100.61" y1="254.19" x2="1149.61" y2="144.81" style="fill:none;stroke:#ff4646;stroke-miterlimit:10"/><line x1="-100.61" y1="163.36" x2="1149.61" y2="53.98" style="fill:none;stroke:#ff4646;stroke-miterlimit:10"/><line x1="-100.61" y1="72.52" x2="1149.61" y2="-36.86" style="fill:none;stroke:#ff4646;stroke-miterlimit:10"/><line x1="1033.36" y1="1097.11" x2="923.98" y2="-153.11" style="fill:none;stroke:#ff4646;stroke-miterlimit:10"/><line x1="942.52" y1="1097.11" x2="833.14" y2="-153.11" style="fill:none;stroke:#ff4646;stroke-miterlimit:10"/><line x1="851.69" y1="1097.11" x2="742.31" y2="-153.11" style="fill:none;stroke:#ff4646;stroke-miterlimit:10"/><line x1="760.86" y1="1097.11" x2="651.48" y2="-153.11" style="fill:none;stroke:#ff4646;stroke-miterlimit:10"/><line x1="670.02" y1="1097.11" x2="560.64" y2="-153.11" style="fill:none;stroke:#ff4646;stroke-miterlimit:10"/><line x1="579.19" y1="1097.11" x2="469.81" y2="-153.11" style="fill:none;stroke:#ff4646;stroke-miterlimit:10"/><line x1="488.36" y1="1097.11" x2="378.98" y2="-153.11" style="fill:none;stroke:#ff4646;stroke-miterlimit:10"/><line x1="397.52" y1="1097.11" x2="288.14" y2="-153.11" style="fill:none;stroke:#ff4646;stroke-miterlimit:10"/><line x1="306.69" y1="1097.11" x2="197.31" y2="-153.11" style="fill:none;stroke:#ff4646;stroke-miterlimit:10"/><line x1="215.86" y1="1097.11" x2="106.48" y2="-153.11" style="fill:none;stroke:#ff4646;stroke-miterlimit:10"/><line x1="125.02" y1="1097.11" x2="15.64" y2="-153.11" style="fill:none;stroke:#ff4646;stroke-miterlimit:10"/><line x1="34.19" y1="1097.11" x2="-75.19" y2="-153.11" style="fill:none;stroke:#ff4646;stroke-miterlimit:10"/></svg>