<svg id="Layer_1" data-name="Layer 1" xmlns="http://www.w3.org/2000/svg" viewBox="0 0 297 375"><title>figure-3</title><path d="M212.11,214.48s35.65,3.58,51-18.93c14.8-21.72.35-51.86.35-51.86s-37.6-5.3-52.39,16.43c-15.33,22.51,1.07,54.36,1.07,54.36" style="fill:#fff56e"/><polygon points="170.89 356.22 230.4 205.03 260.19 217.22 198.01 367.31 170.89 356.22" style="fill:#fff56e"/><polygon points="53.03 306.7 200.57 374.74 213.92 345.44 65.18 280.04 53.03 306.7" style="fill:#fff56e"/><polygon points="121.13 219.22 216.1 351.06 189.73 369.52 97.13 236.02 121.13 219.22" style="fill:#fff56e"/><polygon points="19.4 339.4 117.72 210.04 143.08 229.86 42.49 357.44 19.4 339.4" style="fill:#fff56e"/><path d="M62.51,294.47a105.14,105.14,0,0,1-29.1,17.17c5,12.27,14.39,23.82,14.39,23.82s-9.23-3.28-21.64-7.34C16.73,325,3.65,321,3.65,321l-3.79,3.79a76.65,76.65,0,0,0,15.88,19.93c6.41,5.69,18,11.48,18,11.48L42,368.05A76.69,76.69,0,0,0,54.44,353" style="fill:none;stroke:#1d1d1b;stroke-width:1.6px"/><path d="M296.82,132.92C293.84,111,276.1,97,251.34,100.4l10.35,76c24.75-3.37,38.11-21.61,35.13-43.49" style="fill:#fff56e"/><path d="M200,244.08s-11.24-13.51-23.5-31.86S153,172.07,153,172.07l10.57-11.49s-4.42-4.86-2.9-10.86,7.85-7.38,7.85-7.38-3.19-5.61-3.45-11c-.25-5.13,2.1-7.49,2.1-7.49s11.06,31.33,24.36,61.16,30.28,61.62,30.28,61.62" style="fill:none;stroke:#1d1d1b;stroke-width:1.6px"/><path d="M254.44,148.43S242.39,140,236,135.86c-6.76-4.32-14.85-2.65-19.13,3.63s-2.88,12.82,3.82,18.87a64.15,64.15,0,0,0,7.38,5.7s-6,8.22-10.27,13.7c-2.28,2.92-6.71,7.64-6.71,7.64a11.87,11.87,0,0,0,4.66,4.36,16.82,16.82,0,0,0,7,2,16.86,16.86,0,0,1-6.53,7.14c-4.49,2.51-7.4,1.08-7.4,1.08" style="fill:none;stroke:#1d1d1b;stroke-width:1.6px"/><path d="M245.85,169.25c1.48,1,3.74.25,5.06-1.68s1.2-4.33-.28-5.33-3.75-.26-5.07,1.68-1.19,4.32.29,5.33" style="fill:#1d1d1b"/><path d="M199.91,289s-13.71-11-29.38-26.54-31.05-34.65-31.05-34.65l8.07-13.37s-5.3-3.88-5-10.06,6.22-8.81,6.22-8.81-4.24-4.86-5.57-10.05c-1.27-5,.57-7.76.57-7.76s17.08,28.49,36.06,55.07,41.95,54.35,41.95,54.35" style="fill:none;stroke:#1d1d1b;stroke-width:1.6px"/><path d="M87.07,286.46A105,105,0,0,1,61,265c-9.82,8.89-17.47,21.66-17.47,21.66s-.07-9.79-.5-22.84c-.32-9.91-1-23.61-1-23.61l-4.86-2.26A77,77,0,0,0,23.9,259.67c-3.15,8-4.64,20.81-4.64,20.81L10.9,292.31a76.79,76.79,0,0,0,18.43,6.58" style="fill:none;stroke:#1d1d1b;stroke-width:1.6px"/></svg>