<?xml version="1.0" encoding="utf-8"?>
<!-- Generator: Adobe Illustrator 23.0.6, SVG Export Plug-In . SVG Version: 6.00 Build 0)  -->
<svg version="1.1" xmlns="http://www.w3.org/2000/svg" xmlns:xlink="http://www.w3.org/1999/xlink" x="0px" y="0px"
	 viewBox="0 0 599 1012" style="enable-background:new 0 0 599 1012;" xml:space="preserve">
<style type="text/css">
	.st0{fill:none;stroke:#FF4646;stroke-width:0.9852;stroke-miterlimit:10;}
	.st1{fill:#E6B4C8;}
	.st2{fill:#FFF56E;}
	.st3{fill:none;stroke:#1D1D1B;stroke-width:1.6;}
	.st4{fill:none;stroke:#1D1D1B;stroke-width:1.692;}
	.st5{fill:#1D1D1B;}
	.st6{fill:#FFFFFF;fill-opacity:0;}
	.st7{fill:#00C8F0;}
	.st8{fill:none;stroke:#1D1D1B;stroke-width:1.5;}
	.st9{fill:none;}
	.st10{fill:none;stroke:#1D1D1B;stroke-width:1.4133;}
	.st11{fill:none;stroke:#1D1D1B;stroke-width:1.5252;}
	.st12{fill:none;stroke:#1D1D1B;stroke-width:1.6129;}
	.st13{display:none;}
	.st14{display:inline;fill:#00C8F0;}
	.st15{display:inline;}
	.st16{fill:none;stroke:#1D1D1B;stroke-width:1.1553;}
	.st17{fill:none;stroke:#1D1D1B;stroke-width:1.2217;}
	.st18{fill:none;stroke:#1D1D1B;stroke-width:1.1773;}
	.st19{fill:none;stroke:#1D1D1B;stroke-width:1.4;}
</style>
<g id="background">
</g>
<g id="background-vertical">
	<path class="st0" d="M-745.6,148.3L1284-29.2 M1270.9-178.7L-758.7-1.1 M1257.7-329.3L-771.8-151.8 M1323.3,419.5L-706.3,597
		 M-719.4,447.6L1310.2,270 M-732.6,297L1297,119.4 M-680,898.3l2029.6-177.6 M-693,748.9l2029.6-177.6 M-653.8,1197.6l2029.6-177.6
		 M-667,1047l2029.6-177.6 M-77.2-497.1L94.3,1463.1 M72.3-510.2L243.8,1450 M222.9-523.4l171.5,1960.2 M-525.9-457.8l171.5,1960.2
		 M-204.9,1489.3L-376.4-470.9 M-673.9-440.8l171.5,1960.2 M-225.8-484.1l171.5,1960.2 M672-562.6l171.5,1960.2 M821.5-575.7
		L993,1384.5 M972.1-588.9l171.5,1960.2 M1125.1-601.9l171.5,1960.2 M372.8-536.5l171.5,1960.2 M523.4-549.6l171.5,1960.2"/>
</g>
<g id="background_solo">
</g>
<g id="Layer_1">
</g>
<g id="vertical_person_unten">
	<polygon class="st7" points="118.2,912.4 122.1,961.9 72.6,965.8 68.1,917 	"/>
	<polygon class="st7" points="181.5,843.4 222.9,839.5 226.8,880.8 186.1,885.3 	"/>
	<path class="st7" d="M60.3,691.8l-18.2,64.6c-17.8-5-27.4-21.1-21.9-40.5C25.8,695.7,42.5,686.8,60.3,691.8"/>
	<path class="st7" d="M94.4,732.1c-7.8,23.5-30.2,35.4-56.9,26.6l27-81.8C91.1,685.7,102.1,708.6,94.4,732.1"/>
	<g>
		<path class="st8" d="M91.8,747.1c0,0,27.4-16.8,37.8-36.6c11-21,10.9-45.8,11.2-53.4l-22,19.1l1.8,1.9l-4.1,3.9l-9.8-10.2l4.1-3.9
			l1.9,1.9l68.8-72.4l12.7,13.3L152,647.5c0,0,5.4,2.4,5.6,8.5c0.2,6-5,9.6-5,9.6s10.5,3.9,15.7,5.9c0,0-2.5,20.5-13.5,41
			c-12.9,23.9-42.7,39.4-42.7,39.4"/>
		<path class="st9" d="M106.6,762.9c0,0,40.2-28.2,43.3-31.1c3.1-2.9,23.1-32.3,23.1-32.3s11.2-31.1,9-33.4s-10.4-4.7-10.4-4.7
			l-3.5-9.8l37.5-38.7l-26.3-27.5c0,0-84.2,87.7-83.5,90c0.7,2.3,19,16.9,19,16.9l7.6-4.3l2.8,10.5c0,0-18.6,28-22.3,28.6
			s-25.8,17.3-25.8,17.3L106.6,762.9z"/>
	</g>
	<path class="st7" d="M129.5,922.7c-52.7,12.4-100.4-15.9-114.4-75.5C1.5,789.6,31.7,743.7,84.4,731.3
		c52.7-12.4,100.2,15.2,113.8,72.8C212.2,863.7,182.2,910.3,129.5,922.7"/>
	<g>
		<path class="st10" d="M61.3,776.9c0,0-0.7,28,9.9,46.8c7.2,12.9,17.8,21.5,23.8,25.6"/>
		<path class="st10" d="M103.6,839.5c0,0-2.7,9-9,19.6c-3.4,5.8-10.8,13.8-10.8,13.8s-15.3-12.9-25.7-30.9
			c-13.1-22.7-9.6-52.2-9.6-52.2"/>
		<path class="st6" d="M43.4,786.3c0,0-7.1,38,4.4,53c11.5,15,35.3,38.9,35.3,38.9l28.3-41.5l-17.7-0.9l-27.4-65.4L43.4,786.3z"/>
	</g>
	<g>
		<path class="st10" d="M189.5,849.3c13.9-1.1,24.8-6.3,24.8-6.3c3.9,9.2,5,20.4,5,20.4s3.2-6.7,7.7-15.4c3.4-6.7,8.3-15.8,8.3-15.8
			l4.1,0c1.2,4.1,2.6,11,2.1,19.1c-0.4,6.5-3.5,15.7-3.5,15.7l1.9,10.8c0,0-7.6,0.4-14.8-1.4"/>
		<path class="st6" d="M181.2,849c0,0,39.7,33.6,41.5,32.7c1.8-0.9,18.5,0,18.5,0l3.5-54.8L181.2,849z"/>
	</g>
	<g>
		<path class="st8" d="M75.6,674.3c0,0,10.3,0.5,19.9,6c7.5,4.3,12.9,11,14.6,13.7c2.2,3.7,1.2,6.1-1.9,8c-2.7,1.7-11,6.7-11,6.7
			s6.5,5.1,3.6,9.6c-3.2,4.7-10.7,0.7-10.7,0.7"/>
		<path class="st5" d="M72.4,693.1c-1.2,0.9-3.3,0-4.7-2c-1.4-1.9-1.5-4.2-0.3-5.1c1.2-0.9,3.3,0,4.7,2
			C73.4,690,73.6,692.3,72.4,693.1"/>
		<path class="st10" d="M89.1,722.3c0,0-0.2-1.6,0.5-3c0.6-1.4,1.9-2.4,1.9-2.4"/>
		<path class="st6" d="M84,707.6l-3.5,15l9.7,5.3l16.8-1.8v-13.2l10.6-9.7l-6.2-17.7L99,674.1c0,0-20.3-9.7-29.1-7.1
			c-8.8,2.6-8.8,14.1-8.8,14.1l-0.9,9.7l15,11.5L84,707.6z"/>
	</g>
	<g>
		<polygon class="st6" points="117.6,960.3 137.9,972.6 134.4,981.5 93.7,981.5 76.1,985 77.8,962.9 107,920.5 117.6,924.9 
			122,953.2 		"/>
		<path class="st10" d="M110.1,923.1c1.8,15.2,7.8,26.9,7.8,26.9c-10,4.6-22.2,6.2-22.2,6.2s7.4,3.3,17.2,7.9
			c7.4,3.5,17.6,8.5,17.6,8.5l0.1,4.4c-4.4,1.4-12,3.3-20.9,3c-7.1-0.2-17.3-3.3-17.3-3.3l-11.7,2.5c0,0-0.7-8.3,1-16.2"/>
	</g>
</g>
<g id="vertical_person_oben">
	<path class="st7" d="M514.7,106.5l80-79.1c-21.8-22-53.2-23.1-77.3,0.7C492.5,52.7,492.9,84.4,514.7,106.5"/>
	<path class="st7" d="M475.5-4.9c-17.7,25.4-12.6,56.7,16.1,76.8L553-16.5C524.3-36.5,493.2-30.3,475.5-4.9"/>
	<path class="st7" d="M379.1,191.7c-1.9-17.6-16-29.2-36-27c-19.3,2.1-30.2,16.5-28.3,34.1c1.9,17.6,15.7,29.3,35.1,27.1
		C369.9,223.7,381.1,209.4,379.1,191.7"/>
	<polygon class="st7" points="501.2,88.6 346.1,125.2 408.3,215.1 	"/>
	<polygon class="st7" points="445.3,110.5 547.3,109.2 444.3,4.2 	"/>
	<g>
		<path class="st11" d="M434.8,177.4c0,0-1.8,17.1-6.3,38.3c-4.5,21.2-12.1,44-12.1,44l-15.3,0.5c0,0-0.4,6.4-5.6,9.5
			c-5.3,3.1-10.6-0.4-10.6-0.4s-1.7,6.1-5.3,9.9c-3.4,3.7-6.7,3.7-6.7,3.7s14.4-29.2,26.3-59c11.9-29.8,22.6-63.5,22.6-63.5"/>
		<path class="st6" d="M419.4,264.1c0-1,20.7-87.6,20.7-87.6l-19-24.1L364.9,288L419.4,264.1z"/>
	</g>
	<g>
		<path class="st11" d="M539.3,5.5c7-13.4,16.8-22.1,16.8-22.1c-7.6-7.8-18.3-13.6-18.3-13.6s8-0.4,18.7-1.1
			c8.1-0.6,19.3-1.5,19.3-1.5l1.7-4.1c-3.6-2.9-9.9-7.3-18.2-10.2c-6.6-2.3-17.2-3.2-17.2-3.2l-9.9-6.5c0,0-3.6,7.4-4.8,15.3"/>
		<path class="st6" d="M538.4,10.7l-4.3-5.1L549.7-16c0,0-22.9-15.7-22.8-17c0.1-1.3-3.2-9.8-3.2-9.8l6.4-17.7l13.7,6l37.2,15
			l-1,10.7l-26.7,3.6l8.8,7.6L538.4,10.7z"/>
	</g>
	<g>
		<polygon class="st6" points="633.4,31.3 628.3,20.6 614.3,3.8 601.6,-11.6 593.4,-18.5 579.9,2.6 591.5,31.4 567.9,44.8 
			574.6,52.9 603.5,40 600,26.8 626.2,36 		"/>
		<path class="st11" d="M572.9,48.1c12.4-8.7,25-12,25-12c-3.2-10.4-10.1-20.4-10.1-20.4s7.3,3.3,17.2,7.5
			c7.5,3.2,17.9,7.4,17.9,7.4l3.4-2.8c-1.9-4.2-5.5-11-11.6-17.4c-4.8-5.1-13.9-10.6-13.9-10.6l-5.9-10.3c0,0-6.5,5-11.2,11.5"/>
	</g>
	<g>
		<path class="st11" d="M383.4,140.3c0,0,19.7-22.2,41.4-29.2c14.9-4.8,29.3-3.7,37-2.6"/>
		<path class="st11" d="M461.4,122.4c0,0,4.4-8.9,7.2-21.7c1.5-7,1.6-18.5,1.6-18.5s-21.2-1-42.2,5.4c-26.5,8.1-45.1,33.6-45.1,33.6
			"/>
		<polygon class="st6" points="463.6,128.4 476.3,104 473.5,75.1 422.6,83.5 401.7,95 376.3,119.8 375.9,142.9 382.9,147.7 
			414.3,121.8 446.9,113.7 458,116.2 457.2,126.5 		"/>
	</g>
	<g>
		<path class="st11" d="M360.8,203.1c0,0-1.7,1-2.7,2.6c-1,1.6-1,3.6-1,3.6"/>
		<path class="st12" d="M302.3,201.3c0,0,18.3,3.8,27.6,9.3c9.3,5.5,11.9,12.1,11.9,12.1s2.8-2,4.5-3.8c1.8-1.9,2.9-4.8,2.9-4.8
			s2.2,0.4,4.4,1.9c2.2,1.5,3.1,3,3.1,3s3.6-2,4.7-5c2.2-6.1-2.5-8.4-2.5-8.4"/>
		<path class="st5" d="M336.4,196.3c0.4-1.7-0.9-3.4-2.9-3.8c-1.9-0.4-3.8,0.7-4.2,2.4c-0.4,1.7,0.9,3.4,2.9,3.8
			C334.2,199.1,336.1,198,336.4,196.3"/>
		<path class="st6" d="M340.1,229.1l24.6-8.2l1.5-18.2l-7.8-6.5c0,0-31.7-9.8-32.6-9.7c-1,0-29.5,3.5-29.5,3.5l4.2,19L340.1,229.1z"
			/>
	</g>
	<path class="st7" d="M306.7,124.5c0,0-14,17.2-7.6,32.8c6.2,15.1,26.7,17.9,26.7,17.9s15.6-17.6,9.4-32.7
		C328.8,126.9,306.7,124.5,306.7,124.5"/>
</g>
<g id="horizontal_person_rechts" class="st13">
</g>
<g id="horizontal_person_rechts_new">
</g>
<g id="horizontal_person_links">
</g>
</svg>
