<svg id="Layer_1" data-name="Layer 1" xmlns="http://www.w3.org/2000/svg" viewBox="0 0 267 375"><title>figure-2</title><path d="M137,222.62,147.32,340.2c32.38-2.83,54.26-27.5,51.17-62.86-3.21-36.64-29.08-57.55-61.46-54.72" style="fill:#e6b4c8"/><path d="M253.17,265.54c-8.69-31.32-37.34-48.22-72.78-38.39l30.17,108.79c35.44-9.83,51.3-39.08,42.61-70.4" style="fill:#e6b4c8"/><path d="M146.24,84.86c18.53-1.62,31-16,29.19-37.11-1.78-20.32-16.57-32.11-35.11-30.49s-31,15.8-29.27,36.13c1.84,21.06,16.66,33.09,35.19,31.47" style="fill:#e6b4c8"/><polygon points="171.6 242.64 216.32 81.6 102.22 93.25 171.6 242.64" style="fill:#e6b4c8"/><polygon points="180.28 163.92 112.97 247.07 266.79 234.31 180.28 163.92" style="fill:#e6b4c8"/><path d="M108.34,113.44s-17.91-2.53-39.95-8S22.7,91.05,22.7,91.05L22.8,75s-6.73-.65-9.72-6.28S14,57.58,14,57.58s-6.32-2.07-10.23-6C0,47.86.14,44.43.14,44.43S30.25,60.68,61,74.24s65.7,26.06,65.7,26.06" style="fill:none;stroke:#1d1d1b;stroke-width:1.6px"/><path d="M202.54,307.86a90.46,90.46,0,0,1,6.59,28.32c11.36-.91,23.26-5.61,23.26-5.61s-5.07,6.71-11.6,15.84c-5,6.92-11.69,16.6-11.69,16.6l2.13,4.09a66.11,66.11,0,0,0,20.45-7.85c6.33-3.79,14.06-11.75,14.06-11.75l11.9-3.68a66.5,66.5,0,0,0-9.15-14.15" style="fill:none;stroke:#1d1d1b;stroke-width:1.6px"/><path d="M145.73,306.43a90.51,90.51,0,0,1-7,28.22C149.25,339,162,340.2,162,340.2s-7.57,3.68-17.54,8.85c-7.57,3.92-17.95,9.5-17.95,9.5l0,4.61a65.84,65.84,0,0,0,21.78,2.27c7.35-.5,17.85-4.1,17.85-4.1l12.27,2.11a66,66,0,0,0-1.71-16.76" style="fill:none;stroke:#1d1d1b;stroke-width:1.6px"/><path d="M183.66,108.18s10.48,29.35,5.88,52.8c-3.15,16.08-11.4,28.86-16.26,35.3" style="fill:none;stroke:#1d1d1b;stroke-width:1.6px"/><path d="M160.67,188.94A107.65,107.65,0,0,0,177,206.48c5.65,4.91,16.17,10.81,16.17,10.81s11.68-18.95,16.39-41.53c5.93-28.47-8.09-58.48-8.09-58.48" style="fill:none;stroke:#1d1d1b;stroke-width:1.6px"/><path d="M134.73,65.37a9,9,0,0,0-2.68-2.89,8.86,8.86,0,0,0-3.74-1.18" style="fill:none;stroke:#1d1d1b;stroke-width:1.6px"/><path d="M138.06,4s-4.45,19.13-10.44,28.75-13,12.23-13,12.23a38.31,38.31,0,0,0,3.93,4.77A19.18,19.18,0,0,0,123.46,53a13.57,13.57,0,0,1-2.07,4.6,11,11,0,0,1-3.18,3.16s2,3.87,5.17,5.08c6.34,2.43,8.87-2.38,8.87-2.38" style="fill:none;stroke:#1d1d1b;stroke-width:1.69204914068246px"/><path d="M142.51,40a3.58,3.58,0,0,0,4.09-2.93,3.36,3.36,0,1,0-6.49-1.5,3.58,3.58,0,0,0,2.4,4.43" style="fill:#1d1d1b"/><path d="M218.5,10.54S200.81-4.57,184.3,1.77c-15.93,6.12-19.38,27.54-19.38,27.54S183,46.05,199,39.94c16.51-6.34,19.55-29.4,19.55-29.4" style="fill:#e6b4c8"/></svg>