<?xml version="1.0" encoding="utf-8"?>
<!-- Generator: Adobe Illustrator 23.0.6, SVG Export Plug-In . SVG Version: 6.00 Build 0)  -->
<svg version="1.1" id="Layer_1" xmlns="http://www.w3.org/2000/svg" xmlns:xlink="http://www.w3.org/1999/xlink" x="0px" y="0px"
	 viewBox="0 0 774 371" style="enable-background:new 0 0 774 371;" xml:space="preserve">
<style type="text/css">
	.st0{fill:#E6B4C8;}
	.st1{fill:#FFF56E;}
	.st2{fill:none;stroke:#1D1D1B;stroke-width:1.6;}
	.st3{fill:none;stroke:#1D1D1B;stroke-width:1.692;}
	.st4{fill:#1D1D1B;}
	.st5{fill:none;stroke:#1D1D1B;stroke-width:1.4133;}
	.st6{fill:#FFFFFF;fill-opacity:0;}
	.st7{fill:none;stroke:#1D1D1B;stroke-width:1.4946;}
	.st8{fill:#00C8F0;}
</style>
<path class="st0" d="M619.6,216.4l9.1,103.9c28.6-2.5,47.9-24.3,45.2-55.5C671.1,232.4,648.2,213.9,619.6,216.4"/>
<path class="st0" d="M722.2,254.3c-7.7-27.7-33-42.6-64.3-33.9l26.7,96.1C715.9,307.8,729.9,282,722.2,254.3"/>
<path class="st0" d="M627.7,94.7c16.4-1.4,27.4-14.2,25.8-32.8c-1.6-18-14.6-28.4-31-26.9c-16.4,1.4-27.4,14-25.9,31.9
	C598.3,85.5,611.4,96.2,627.7,94.7"/>
<polygon class="st0" points="650.1,234.1 689.7,91.8 588.9,102.1 "/>
<polygon class="st0" points="657.8,164.6 598.4,238 734.2,226.7 "/>
<g>
	<path class="st5" d="M594.3,120c0,0-15.8-2.2-35.3-7.1c-19.5-4.9-40.4-12.7-40.4-12.7l0.1-14.2c0,0-5.9-0.6-8.6-5.5
		c-2.7-5,0.8-9.8,0.8-9.8s-5.6-1.8-9-5.3c-3.3-3.3-3.2-6.3-3.2-6.3s26.6,14.4,53.8,26.3c27.2,12,58,23,58,23"/>
	<path class="st6" d="M514.5,102.8c0.9,0,80.4,22.1,80.4,22.1l23-16.8L494.2,51.6L514.5,102.8z"/>
</g>
<path class="st5" d="M677.5,291.7c5.4,13,5.8,25,5.8,25c10-0.8,20.5-5,20.5-5s-4.5,5.9-10.3,14c-4.4,6.1-10.3,14.7-10.3,14.7
	l1.9,3.6c4.2-0.8,11.1-2.8,18.1-6.9c5.6-3.3,12.4-10.4,12.4-10.4l10.5-3.3c0,0-3.2-6.9-8.1-12.5"/>
<path class="st6" d="M674.4,288.3h6.2l6.2,23.8c0,0,24.7-7.1,25.6-6.2c0.9,0.9,8.8,3.5,8.8,3.5l8.8,15l-12.4,6.2l-32.7,17.7
	l-7.1-7.1l13.2-21.2l-10.6,1.8L674.4,288.3z"/>
<path class="st5" d="M627.3,290.4c-1.1,14-6.2,24.9-6.2,24.9c9.3,3.8,20.6,4.9,20.6,4.9s-6.7,3.3-15.5,7.8
	c-6.7,3.5-15.9,8.4-15.9,8.4l0,4.1c4.1,1.1,11.1,2.6,19.2,2c6.5-0.4,15.8-3.6,15.8-3.6l10.8,1.9c0,0,0.3-7.6-1.5-14.8"/>
<polygon class="st6" points="603.7,343.1 614.3,345.7 634.6,345.7 653.2,345.7 662.9,343.9 655.8,321.9 628.4,313 632.8,288.3 
	623.1,288.3 615.2,316.6 626.7,321.9 604.6,335.1 "/>
<g>
	<path class="st5" d="M660.8,115.3c0,0,9.3,25.9,5.2,46.6c-2.8,14.2-10.1,25.5-14.4,31.2"/>
	<path class="st5" d="M640.5,186.7c0,0,5.3,7.6,14.4,15.5c5,4.3,14.3,9.6,14.3,9.6s10.3-16.7,14.5-36.7c5.2-25.2-7.1-51.7-7.1-51.7"
		/>
	<polygon class="st6" points="634.6,185.8 648.7,207 673.5,217.6 689.4,172.6 689.4,150.5 680.5,118.7 662,108.1 654.9,111.6 
		662,148.7 654,178.8 647,186.7 639,181.4 	"/>
</g>
<g>
	<path class="st5" d="M617.6,77.5c0,0-0.9-1.6-2.4-2.6c-1.5-0.9-3.3-1-3.3-1"/>
	<path class="st7" d="M620.5,23.3c0,0-3.9,16.9-9.2,25.4c-5.3,8.5-11.5,10.8-11.5,10.8s1.8,2.6,3.5,4.2c1.8,1.7,4.3,2.8,4.3,2.8
		s-0.4,2.1-1.8,4.1c-1.4,2-2.8,2.8-2.8,2.8s1.8,3.4,4.6,4.5c5.6,2.1,7.8-2.1,7.8-2.1"/>
	<path class="st4" d="M624.5,55.1c1.6,0.4,3.2-0.8,3.6-2.6c0.4-1.8-0.5-3.6-2.1-3.9c-1.6-0.4-3.2,0.8-3.6,2.6
		C621.9,53,622.9,54.7,624.5,55.1"/>
	<path class="st6" d="M594,57.7l7.1,23l16.8,1.8l6.2-7.1c0,0,9.7-29.1,9.7-30S631.1,18,631.1,18l-17.7,3.5L594,57.7z"/>
</g>
<path class="st0" d="M691.6,29.1c0,0-15.6-13.3-30.2-7.7c-14.1,5.4-17.1,24.3-17.1,24.3s16,14.8,30.1,9.4
	C688.9,49.4,691.6,29.1,691.6,29.1"/>
<g>
	<path class="st5" d="M141.4,139.2c0,0,13.4-5.7,29.3-14.7c16-8.9,32.4-20.8,32.4-20.8l-3.5-12.4c0,0,5.1-1.9,6.2-6.9
		c1.1-5-3-8.4-3-8.4s4.5-2.9,6.7-6.8c2.1-3.7,1.3-6.3,1.3-6.3s-19.9,18.9-41,35.9c-21,17-45.5,34.1-45.5,34.1"/>
	<polygon class="st6" points="132,142.5 150.6,142.5 207.1,116 207.1,98.4 210.7,82.5 214.2,59.5 206.2,59.5 117.9,131.1 	"/>
</g>
<polygon class="st8" points="151.2,278.4 155.1,327.9 105.6,331.8 101.1,283 "/>
<polygon class="st8" points="214.5,209.4 255.9,205.5 259.8,246.8 219.1,251.3 "/>
<path class="st8" d="M162.5,288.7c-52.7,12.4-100.4-15.9-114.4-75.5c-13.6-57.6,16.6-103.5,69.3-115.9
	c52.7-12.4,100.2,15.2,113.8,72.8C245.2,229.7,215.2,276.3,162.5,288.7"/>
<path class="st8" d="M93.3,57.8l-18.2,64.6c-17.8-5-27.4-21.1-21.9-40.5C58.8,61.7,75.5,52.8,93.3,57.8"/>
<path class="st8" d="M127.4,98.1c-7.8,23.5-30.2,35.4-56.9,26.6l27-81.8C124.1,51.7,135.1,74.6,127.4,98.1"/>
<g>
	<path class="st5" d="M94.3,142.9c0,0-0.7,28,9.9,46.8c7.2,12.9,17.8,21.5,23.8,25.6"/>
	<path class="st5" d="M136.6,205.5c0,0-2.7,9-9,19.6c-3.4,5.8-10.8,13.8-10.8,13.8s-15.3-12.9-25.7-30.9
		c-13.1-22.7-9.6-52.2-9.6-52.2"/>
	<path class="st6" d="M76.4,152.3c0,0-7.1,38,4.4,53s35.3,38.9,35.3,38.9l28.3-41.5l-17.7-0.9l-27.4-65.4L76.4,152.3z"/>
</g>
<g>
	<path class="st5" d="M222.5,215.3c13.9-1.1,24.8-6.3,24.8-6.3c3.9,9.2,5,20.4,5,20.4s3.2-6.7,7.7-15.4c3.4-6.7,8.3-15.8,8.3-15.8
		l4.1,0c1.2,4.1,2.6,11,2.1,19.1c-0.4,6.5-3.5,15.7-3.5,15.7l1.9,10.8c0,0-7.6,0.4-14.8-1.4"/>
	<path class="st6" d="M214.2,215c0,0,39.7,33.6,41.5,32.7c1.8-0.9,18.5,0,18.5,0l3.5-54.8L214.2,215z"/>
</g>
<g>
	<path class="st5" d="M108.6,40.3c0,0,10.3,0.5,19.9,6c7.5,4.3,12.9,11,14.6,13.7c2.2,3.7,1.2,6.1-1.9,8c-2.7,1.7-11,6.7-11,6.7
		s6.5,5.1,3.6,9.6c-3.2,4.7-10.7,0.7-10.7,0.7"/>
	<path class="st4" d="M105.4,59.1c-1.2,0.9-3.3,0-4.7-2c-1.4-1.9-1.5-4.2-0.3-5.1c1.2-0.9,3.3,0,4.7,2
		C106.4,56,106.6,58.3,105.4,59.1"/>
	<path class="st5" d="M122.1,88.3c0,0-0.2-1.6,0.5-3c0.6-1.4,1.9-2.4,1.9-2.4"/>
	<path class="st6" d="M117,73.6l-3.5,15l9.7,5.3l16.8-1.8V78.9l10.6-9.7l-6.2-17.7L132,40.1c0,0-20.3-9.7-29.1-7.1
		s-8.8,14.1-8.8,14.1l-0.9,9.7l15,11.5L117,73.6z"/>
</g>
<g>
	<polygon class="st6" points="150.6,326.3 170.9,338.6 167.4,347.5 126.7,347.5 109.1,351 110.8,328.9 140,286.5 150.6,290.9 
		155,319.2 	"/>
	<path class="st5" d="M143.1,289.1c1.8,15.2,7.8,26.9,7.8,26.9c-10,4.6-22.2,6.2-22.2,6.2s7.4,3.3,17.2,7.9
		c7.4,3.5,17.6,8.5,17.6,8.5l0.1,4.4c-4.4,1.4-12,3.3-20.9,3c-7.1-0.2-17.3-3.3-17.3-3.3l-11.7,2.5c0,0-0.7-8.3,1-16.2"/>
</g>
</svg>
