<?xml version="1.0" encoding="utf-8"?>
<!-- Generator: Adobe Illustrator 23.0.6, SVG Export Plug-In . SVG Version: 6.00 Build 0)  -->
<svg version="1.1" xmlns="http://www.w3.org/2000/svg" xmlns:xlink="http://www.w3.org/1999/xlink" x="0px" y="0px"
	 viewBox="0 0 599 768" style="enable-background:new 0 0 599 768;" xml:space="preserve">
<style type="text/css">
	.st0{fill:#E6B4C8;}
	.st1{fill:#FFF56E;}
	.st2{fill:none;stroke:#1D1D1B;stroke-width:1.6;}
	.st3{fill:none;stroke:#1D1D1B;stroke-width:1.692;}
	.st4{fill:#1D1D1B;}
	.st5{fill:#FFFFFF;fill-opacity:0;}
	.st6{fill:#00C8F0;}
	.st7{display:none;opacity:0.35;fill:none;stroke:#1D1D1B;stroke-width:1.4133;}
	.st8{fill:none;stroke:#1D1D1B;stroke-width:1.4133;}
	.st9{fill:none;stroke:#1D1D1B;stroke-width:1.5252;}
	.st10{fill:none;stroke:#1D1D1B;stroke-width:1.6129;}
	.st11{fill:none;stroke:#1D1D1B;stroke-width:1.4946;}
	.st12{display:none;}
	.st13{display:inline;fill:none;stroke:#1D1D1B;stroke-width:1.4133;}
	.st14{display:inline;fill:#FFFFFF;fill-opacity:0;}
</style>
<g id="Layer_1">
</g>
<g id="vertical_person_rechts">
	<g>
		<path class="st7" d="M137.1,550.3c0,0,11.6-8.8,24.9-21.4c13.3-12.5,26.4-28.1,26.4-28.1l-6.4-11.2c0,0,4.5-3.1,4.3-8.2
			c-0.1-5.2-5-7.4-5-7.4s3.6-3.9,4.8-8.2c1.2-4.1-0.3-6.4-0.3-6.4s-14.7,23.2-31,44.8c-16.2,21.6-35.8,44.1-35.8,44.1"/>
		<path class="st8" d="M131.3,459c-2.2-0.6-5.2-1.9-8-4.9c-5.3-5.5-5.8-10.9-5.8-10.9l12.4-8.3c0,0,4.4,1.4,7.3,4.4
			c4.1,4.1,5.8,10.9,5.8,10.9s19.7,4.3,32.3,17.7c18.2,19.2,22.4,35.6,22.4,35.6s-11.4,20.4-22.3,30.4c-10.9,10-31.5,22.4-31.5,22.4
			"/>
		<g>
			<path class="st8" d="M137.1,439.3c2.5,2.4,4,5.8,4.9,8.2l31.6-19.6l-7.5-12L133,436.4C134.3,437.1,135.8,438.1,137.1,439.3z"/>
			<path class="st8" d="M123.3,454.1c-2.1-2.2-3.4-4.3-4.3-6.1l-11.1,6.9l0.9,1.4l-16.3,10.1l3.1,5l16.3-10.1l0.9,1.4l11.8-7.3
				C124.1,455,123.7,454.6,123.3,454.1z"/>
		</g>
		<path class="st8" d="M120.4,539.4c0,0,17-8.4,30.8-19.1c13.8-10.7,22.5-25.3,22.5-25.3s-5.1-12.1-14.8-22c-9-9.2-24-13.5-24-13.5"
			/>
		<polygon class="st5" points="121.2,544.3 113,536.1 167.3,497.7 151.5,475.9 124.3,462.1 94.9,476.7 87.2,466.3 115.7,436.4 
			167.1,411.1 179,429.8 155.3,446.1 181.5,468.3 203.4,502 201.5,519 170.2,546.4 141.4,563 		"/>
	</g>
	<polygon class="st6" points="125.2,698.4 129.1,747.9 79.6,751.8 75.1,703 	"/>
	<polygon class="st6" points="188.5,629.4 229.9,625.5 233.8,666.8 193.1,671.3 	"/>
	<path class="st6" d="M136.5,708.7c-52.7,12.4-100.4-15.9-114.4-75.5C8.5,575.6,38.7,529.7,91.4,517.3
		c52.7-12.4,100.2,15.2,113.8,72.8C219.2,649.7,189.2,696.3,136.5,708.7"/>
	<path class="st6" d="M67.3,477.8l-18.2,64.6c-17.8-5-27.4-21.1-21.9-40.5C32.8,481.7,49.5,472.8,67.3,477.8"/>
	<path class="st6" d="M101.4,518.1c-7.8,23.5-30.2,35.4-56.9,26.6l27-81.8C98.1,471.7,109.1,494.6,101.4,518.1"/>
	<g>
		<path class="st8" d="M68.3,562.9c0,0-0.7,28,9.9,46.8c7.2,12.9,17.8,21.5,23.8,25.6"/>
		<path class="st8" d="M110.6,625.5c0,0-2.7,9-9,19.6c-3.4,5.8-10.8,13.8-10.8,13.8s-15.3-12.9-25.7-30.9
			c-13.1-22.7-9.6-52.2-9.6-52.2"/>
		<path class="st5" d="M50.4,572.3c0,0-7.1,38,4.4,53c11.5,15,35.3,38.9,35.3,38.9l28.3-41.5l-17.7-0.9l-27.4-65.4L50.4,572.3z"/>
	</g>
	<g>
		<path class="st8" d="M196.5,635.3c13.9-1.1,24.8-6.3,24.8-6.3c3.9,9.2,5,20.4,5,20.4s3.2-6.7,7.7-15.4c3.4-6.7,8.3-15.8,8.3-15.8
			l4.1,0c1.2,4.1,2.6,11,2.1,19.1c-0.4,6.5-3.5,15.7-3.5,15.7l1.9,10.8c0,0-7.6,0.4-14.8-1.4"/>
		<path class="st5" d="M188.2,635c0,0,39.7,33.6,41.5,32.7c1.8-0.9,18.5,0,18.5,0l3.5-54.8L188.2,635z"/>
	</g>
	<g>
		<path class="st8" d="M82.6,460.3c0,0,10.3,0.5,19.9,6c7.5,4.3,12.9,11,14.6,13.7c2.2,3.7,1.2,6.1-1.9,8c-2.7,1.7-11,6.7-11,6.7
			s6.5,5.1,3.6,9.6c-3.2,4.7-10.7,0.7-10.7,0.7"/>
		<path class="st4" d="M79.4,479.1c-1.2,0.9-3.3,0-4.7-2c-1.4-1.9-1.5-4.2-0.3-5.1c1.2-0.9,3.3,0,4.7,2
			C80.4,476,80.6,478.3,79.4,479.1"/>
		<path class="st8" d="M96.1,508.3c0,0-0.2-1.6,0.5-3c0.6-1.4,1.9-2.4,1.9-2.4"/>
		<path class="st5" d="M91,493.6l-3.5,15l9.7,5.3l16.8-1.8v-13.2l10.6-9.7l-6.2-17.7L106,460.1c0,0-20.3-9.7-29.1-7.1
			c-8.8,2.6-8.8,14.1-8.8,14.1l-0.9,9.7l15,11.5L91,493.6z"/>
	</g>
	<g>
		<polygon class="st5" points="124.6,746.3 144.9,758.6 141.4,767.5 100.7,767.5 83.1,771 84.8,748.9 114,706.5 124.6,710.9 
			129,739.2 		"/>
		<path class="st8" d="M117.1,709.1c1.8,15.2,7.8,26.9,7.8,26.9c-10,4.6-22.2,6.2-22.2,6.2s7.4,3.3,17.2,7.9
			c7.4,3.5,17.6,8.5,17.6,8.5l0.1,4.4c-4.4,1.4-12,3.3-20.9,3c-7.1-0.2-17.3-3.3-17.3-3.3l-11.7,2.5c0,0-0.7-8.3,1-16.2"/>
	</g>
</g>
<g id="vertical_person_links">
	<path class="st0" d="M514.7,106.5l80-79.1c-21.8-22-53.2-23.1-77.3,0.7C492.5,52.7,492.9,84.4,514.7,106.5"/>
	<path class="st0" d="M475.5-4.9c-17.7,25.4-12.6,56.7,16.1,76.8L553-16.5C524.3-36.5,493.2-30.3,475.5-4.9"/>
	<path class="st0" d="M379.1,191.7c-1.9-17.6-16-29.2-36-27c-19.3,2.1-30.2,16.5-28.3,34.1c1.9,17.6,15.7,29.3,35.1,27.1
		C369.9,223.7,381.1,209.4,379.1,191.7"/>
	<polygon class="st0" points="501.2,88.6 346.1,125.2 408.3,215.1 	"/>
	<polygon class="st0" points="445.3,110.5 547.3,109.2 444.3,4.2 	"/>
	<g>
		<path class="st9" d="M428.8,189.4c0,0-1.8,17.1-6.3,38.3c-4.5,21.2-12.1,44-12.1,44l-15.3,0.5c0,0-0.4,6.4-5.6,9.5
			c-5.3,3.1-10.6-0.4-10.6-0.4s-1.7,6.1-5.3,9.9c-3.4,3.7-6.7,3.7-6.7,3.7s14.4-29.2,26.3-59c11.9-29.8,22.6-63.5,22.6-63.5"/>
		<path class="st5" d="M413.4,276.1c0-1,20.7-87.6,20.7-87.6l-19-24.1L358.9,300L413.4,276.1z"/>
	</g>
	<g>
		<path class="st9" d="M539.3,5.5c7-13.4,16.8-22.1,16.8-22.1c-7.6-7.8-18.3-13.6-18.3-13.6s8-0.4,18.7-1.1
			c8.1-0.6,19.3-1.5,19.3-1.5l1.7-4.1c-3.6-2.9-9.9-7.3-18.2-10.2c-6.6-2.3-17.2-3.2-17.2-3.2l-9.9-6.5c0,0-3.6,7.4-4.8,15.3"/>
		<path class="st5" d="M538.4,10.7l-4.3-5.1L549.7-16c0,0-22.9-15.7-22.8-17c0.1-1.3-3.2-9.8-3.2-9.8l6.4-17.7l13.7,6l37.2,15
			l-1,10.7l-26.7,3.6l8.8,7.6L538.4,10.7z"/>
	</g>
	<g>
		<polygon class="st5" points="633.4,31.3 628.3,20.6 614.3,3.8 601.6,-11.6 593.4,-18.5 579.9,2.6 591.5,31.4 567.9,44.8 
			574.6,52.9 603.5,40 600,26.8 626.2,36 		"/>
		<path class="st9" d="M572.9,48.1c12.4-8.7,25-12,25-12c-3.2-10.4-10.1-20.4-10.1-20.4s7.3,3.3,17.2,7.5c7.5,3.2,17.9,7.4,17.9,7.4
			l3.4-2.8c-1.9-4.2-5.5-11-11.6-17.4c-4.8-5.1-13.9-10.6-13.9-10.6l-5.9-10.3c0,0-6.5,5-11.2,11.5"/>
	</g>
	<g>
		<path class="st9" d="M383.4,140.3c0,0,19.7-22.2,41.4-29.2c14.9-4.8,29.3-3.7,37-2.6"/>
		<path class="st9" d="M461.4,122.4c0,0,4.4-8.9,7.2-21.7c1.5-7,1.6-18.5,1.6-18.5s-21.2-1-42.2,5.4c-26.5,8.1-45.1,33.6-45.1,33.6"
			/>
		<polygon class="st5" points="463.6,128.4 476.3,104 473.5,75.1 422.6,83.5 401.7,95 376.3,119.8 375.9,142.9 382.9,147.7 
			414.3,121.8 446.9,113.7 458,116.2 457.2,126.5 		"/>
	</g>
	<g>
		<path class="st9" d="M360.8,203.1c0,0-1.7,1-2.7,2.6c-1,1.6-1,3.6-1,3.6"/>
		<path class="st10" d="M302.3,201.3c0,0,18.3,3.8,27.6,9.3c9.3,5.5,11.9,12.1,11.9,12.1s2.8-2,4.5-3.8c1.8-1.9,2.9-4.8,2.9-4.8
			s2.2,0.4,4.4,1.9c2.2,1.5,3.1,3,3.1,3s3.6-2,4.7-5c2.2-6.1-2.5-8.4-2.5-8.4"/>
		<path class="st4" d="M336.4,196.3c0.4-1.7-0.9-3.4-2.9-3.8c-1.9-0.4-3.8,0.7-4.2,2.4c-0.4,1.7,0.9,3.4,2.9,3.8
			C334.2,199.1,336.1,198,336.4,196.3"/>
		<path class="st5" d="M340.1,229.1l24.6-8.2l1.5-18.2l-7.8-6.5c0,0-31.7-9.8-32.6-9.7c-1,0-29.5,3.5-29.5,3.5l4.2,19L340.1,229.1z"
			/>
	</g>
	<path class="st0" d="M306.7,124.5c0,0-14,17.2-7.6,32.8c6.2,15.1,26.7,17.9,26.7,17.9s15.6-17.6,9.4-32.7
		C328.8,126.9,306.7,124.5,306.7,124.5"/>
</g>
<g id="horizontal_person_rechts">
</g>
<g id="horizontal_person_links">
</g>
</svg>
