<svg id="Layer_1" data-name="Layer 1" xmlns="http://www.w3.org/2000/svg" viewBox="0 0 270 375">
	<title>
		figure-1
	</title>
	<path d="M109.63,132.17s15.14-6.5,33.2-16.6,36.74-23.52,36.74-23.52L175.63,78s5.76-2.17,7-7.82-3.41-9.5-3.41-9.5,5.06-3.32,7.56-7.68c2.39-4.18,1.43-7.14,1.43-7.14s-22.58,21.44-46.39,40.68-51.53,38.55-51.53,38.55" style="fill:none;stroke:#1d1d1b;stroke-width:1.6px" />
	<polygon points="120.65 289.81 125.07 345.86 69.02 350.28 63.95 295.02 120.65 289.81" style="fill:#00c8f0" />
	<polygon points="192.34 211.74 239.18 207.22 243.69 254.06 197.53 259.12 192.34 211.74" style="fill:#00c8f0" />
	<path d="M133.5,301.52C73.82,315.57,19.87,283.53,4,216-11.38,150.83,22.8,98.86,82.47,84.81S195.92,102,211.26,167.19c15.9,67.53-18.09,120.28-77.76,134.33" style="fill:#00c8f0" />
	<path d="M55.13,40.08,34.51,113.21c-20.14-5.68-31-23.91-24.81-45.9C16.12,44.52,35,34.4,55.13,40.08" style="fill:#00c8f0" />
	<path d="M93.71,85.7c-8.79,26.66-34.21,40.05-64.37,30.11L59.87,23.2C90,33.15,102.5,59,93.71,85.7" style="fill:#00c8f0" />
	<path d="M56.26,136.43s-.75,31.73,11.15,52.95c8.17,14.55,20.18,24.3,26.93,29" style="fill:none;stroke:#1d1d1b;stroke-width:1.6px" />
	<path d="M104.19,207.22A109.62,109.62,0,0,1,94,229.37C90.14,235.92,81.86,245,81.86,245s-17.33-14.61-29.07-34.94C38,184.4,42,150.91,42,150.91" style="fill:none;stroke:#1d1d1b;stroke-width:1.6px" />
	<path d="M111.56,301.92a98.57,98.57,0,0,0,8.84,30.41c-11.28,5.16-25.09,7-25.09,7s8.39,3.69,19.47,8.89c8.41,3.94,19.95,9.56,19.95,9.56l.15,5a71.9,71.9,0,0,1-23.6,3.4c-8-.23-19.62-3.7-19.62-3.7L78.4,365.34A72.31,72.31,0,0,1,79.55,347" style="fill:none;stroke:#1d1d1b;stroke-width:1.6px" />
	<path d="M201.41,218.38a90.33,90.33,0,0,0,28.09-7.11c4.36,10.47,5.62,23.13,5.62,23.13s3.64-7.54,8.75-17.49c3.88-7.55,9.39-17.91,9.39-17.91l4.6,0a65.59,65.59,0,0,1,2.35,21.66c-.47,7.32-4,17.79-4,17.79l2.16,12.2A66.16,66.16,0,0,1,241.64,249" style="fill:none;stroke:#1d1d1b;stroke-width:1.6px" />
	<path d="M68.87,21.6a56.64,56.64,0,0,1,23,5.19,51.23,51.23,0,0,1,17.54,14.34c2.8,4,1.82,6.77-1.56,9.17L95.93,58.69s7.79,5.24,4.78,10.51c-3.19,5.57-12.08,1.64-12.08,1.64" style="fill:none;stroke:#1d1d1b;stroke-width:1.6px" />
	<path d="M68.8,41.55c-1.37,1-3.74,0-5.29-2.21s-1.7-4.77-.33-5.74,3.74,0,5.29,2.23,1.7,4.76.33,5.72" style="fill:#1d1d1b" />
	<path d="M87.73,74.56a6.77,6.77,0,0,1,2.64-6.15" style="fill:none;stroke:#1d1d1b;stroke-width:1.6px" />
</svg>
