<?xml version="1.0" encoding="utf-8"?>
<!-- Generator: Adobe Illustrator 23.0.6, SVG Export Plug-In . SVG Version: 6.00 Build 0)  -->
<svg version="1.1" xmlns="http://www.w3.org/2000/svg" xmlns:xlink="http://www.w3.org/1999/xlink" x="0px" y="0px"
	 viewBox="0 0 1030 449" style="enable-background:new 0 0 1030 449;" xml:space="preserve">
<style type="text/css">
	.st0{fill:#E6B4C8;}
	.st1{fill:#FFF56E;}
	.st2{fill:none;stroke:#1D1D1B;stroke-width:1.6;}
	.st3{fill:none;stroke:#1D1D1B;stroke-width:1.692;}
	.st4{fill:#1D1D1B;}
	.st5{fill:#FFFFFF;fill-opacity:0;}
	.st6{fill:#00C8F0;}
	.st7{display:none;opacity:0.35;fill:none;stroke:#1D1D1B;stroke-width:1.4133;}
	.st8{fill:none;stroke:#1D1D1B;stroke-width:1.4133;}
	.st9{fill:none;stroke:#1D1D1B;stroke-width:1.5252;}
	.st10{fill:none;stroke:#1D1D1B;stroke-width:1.6129;}
	.st11{fill:none;stroke:#FF4646;stroke-width:0.9852;stroke-miterlimit:10;}
	.st12{fill:none;stroke:#1D1D1B;stroke-width:1.1553;}
	.st13{fill:none;stroke:#1D1D1B;stroke-width:1.2217;}
	.st14{display:none;}
	.st15{display:inline;fill:none;stroke:#1D1D1B;stroke-width:1.4133;}
	.st16{display:inline;fill:#FFFFFF;fill-opacity:0;}
	.st17{display:none;opacity:0.35;fill:none;stroke:#1D1D1B;stroke-width:1.1553;}
</style>
<g id="Layer_1">
</g>
<g id="vertical_person_rechts">
</g>
<g id="vertical_person_links">
</g>
<g id="background">
	<path class="st11" d="M-534.6,14.3L1495-163.2 M1481.9-312.7L-547.7-135.1 M1468.7-463.3L-560.8-285.8 M1534.3,285.5L-495.3,463
		 M-508.4,313.6L1521.2,136 M-521.6,163L1508-14.6 M-469,764.3l2029.6-177.6 M-482,614.9l2029.6-177.6 M-442.8,1063.6l2029.6-177.6
		 M-456,913l2029.6-177.6 M133.8-631.1l171.5,1960.2 M283.3-644.2L454.8,1316 M433.9-657.4l171.5,1960.2 M-314.9-591.8l171.5,1960.2
		 M6.1,1355.3L-165.4-604.9 M-462.9-574.8l171.5,1960.2 M-14.8-618.1l171.5,1960.2 M883-696.6l171.5,1960.2 M1032.5-709.7
		L1204,1250.5 M1183.1-722.9l171.5,1960.2 M1336.1-735.9l171.5,1960.2 M583.8-670.5l171.5,1960.2 M734.4-683.6l171.5,1960.2"/>
</g>
<g id="horizontal_person_rechts">
	<path class="st6" d="M930.5,232.8l7.4,84.9c23.4-2,39.2-19.9,36.9-45.4C972.6,245.8,953.9,230.7,930.5,232.8"/>
	<path class="st6" d="M1014.4,263.8c-6.3-22.6-27-34.8-52.6-27.7l21.8,78.6C1009.2,307.5,1020.6,286.4,1014.4,263.8"/>
	<path class="st6" d="M937.2,133.3c13.4-1.2,22.4-11.6,21.1-26.8c-1.3-14.7-12-23.2-25.3-22c-13.4,1.2-22.4,11.4-21.1,26.1
		C913.1,125.8,923.8,134.5,937.2,133.3"/>
	<polygon class="st6" points="955.5,247.2 987.8,130.9 905.4,139.4 	"/>
	<polygon class="st6" points="961.7,190.4 913.1,250.4 1024.2,241.2 	"/>
	<g>
		<path class="st12" d="M926.7,168.2c0,0-12.9-1.8-28.8-5.8c-15.9-4-33-10.4-33-10.4l0.1-11.6c0,0-4.9-0.5-7-4.5
			c-2.2-4.1,0.6-8,0.6-8s-4.6-1.5-7.4-4.3c-2.7-2.7-2.6-5.2-2.6-5.2s21.7,11.7,44,21.5c22.2,9.8,47.4,18.8,47.4,18.8"/>
		<path class="st5" d="M861.5,154.1c0.7,0,65.7,18.1,65.7,18.1l18.8-13.7l-101.1-46.2L861.5,154.1z"/>
	</g>
	<g>
		<path class="st12" d="M977.8,294.3c4.4,10.6,4.8,20.4,4.8,20.4c8.2-0.7,16.8-4,16.8-4s-3.7,4.8-8.4,11.4c-3.6,5-8.4,12-8.4,12
			l1.5,3c3.4-0.7,9.1-2.3,14.8-5.7c4.6-2.7,10.1-8.5,10.1-8.5l8.6-2.7c0,0-2.6-5.7-6.6-10.2"/>
		<path class="st5" d="M975.3,291.3h5.1l5.1,19.5c0,0,20.2-5.8,20.9-5.1c0.7,0.7,7.2,2.9,7.2,2.9l7.2,12.3l-10.1,5.1l-26.7,14.4
			l-5.8-5.8l10.8-17.3l-8.7,1.4L975.3,291.3z"/>
	</g>
	<g>
		<polygon class="st5" points="917.3,336.7 925.9,338.9 942.5,338.9 957.7,338.9 965.6,337.4 959.9,319.4 937.5,312.2 941.1,291.9 
			933.1,291.9 926.6,315 936,319.4 918,330.2 		"/>
		<path class="st12" d="M936.8,293.3c-0.9,11.4-5.1,20.4-5.1,20.4c7.6,3.1,16.8,4,16.8,4s-5.5,2.7-12.7,6.4c-5.5,2.8-13,6.9-13,6.9
			l0,3.3c3.4,0.9,9.1,2.1,15.7,1.6c5.3-0.4,12.9-3,12.9-3l8.9,1.5c0,0,0.3-6.2-1.2-12.1"/>
	</g>
	<g>
		<path class="st12" d="M964.2,150.1c0,0,7.6,21.2,4.2,38.1c-2.3,11.6-8.2,20.8-11.7,25.5"/>
		<path class="st12" d="M947.6,208.5c0,0,4.3,6.2,11.8,12.7c4.1,3.5,11.7,7.8,11.7,7.8s8.4-13.7,11.8-30c4.3-20.6-5.8-42.2-5.8-42.2
			"/>
		<polygon class="st5" points="942.8,207.8 954.3,225.1 974.5,233.8 987.5,196.9 987.5,178.9 980.3,152.9 965.1,144.2 959.4,147.1 
			965.1,177.4 958.6,202 952.9,208.5 946.4,204.2 		"/>
	</g>
	<g>
		<path class="st12" d="M928.8,119.2c0,0-0.7-1.3-1.9-2.1c-1.2-0.8-2.7-0.8-2.7-0.8"/>
		<path class="st13" d="M931.3,74.9c0,0-3.2,13.8-7.5,20.8c-4.3,6.9-9.4,8.8-9.4,8.8s1.5,2.1,2.8,3.4c1.4,1.4,3.5,2.3,3.5,2.3
			s-0.3,1.7-1.5,3.3c-1.2,1.6-2.3,2.3-2.3,2.3s1.5,2.8,3.7,3.7c4.6,1.8,6.4-1.7,6.4-1.7"/>
		<path class="st4" d="M934.5,100.9c1.3,0.3,2.6-0.6,3-2.1c0.3-1.5-0.4-2.9-1.7-3.2c-1.3-0.3-2.6,0.7-3,2.1
			C932.4,99.2,933.2,100.6,934.5,100.9"/>
		<path class="st5" d="M909.5,103.1l5.8,18.8l13.7,1.4l5.1-5.8c0,0,7.9-23.8,7.9-24.5s-2.2-22.4-2.2-22.4l-14.4,2.9L909.5,103.1z"/>
	</g>
	<path class="st6" d="M989.3,79.6c0,0-12.8-10.9-24.7-6.3c-11.5,4.4-14,19.9-14,19.9s13.1,12.1,24.6,7.7
		C987.1,96.3,989.3,79.6,989.3,79.6"/>
</g>
<g id="horizontal_person_links">
	<g class="st14">
		<path class="st15" d="M37.4,225.2c0,0,13.4-5.7,29.3-14.7c16-8.9,32.4-20.8,32.4-20.8l-3.5-12.4c0,0,5.1-1.9,6.2-6.9
			c1.1-5-3-8.4-3-8.4s4.5-2.9,6.7-6.8c2.1-3.7,1.3-6.3,1.3-6.3s-19.9,18.9-41,35.9c-21,17-45.5,34.1-45.5,34.1"/>
		<polygon class="st16" points="28,228.5 46.6,228.5 103.1,202 103.1,184.4 106.7,168.5 110.2,145.5 102.2,145.5 13.9,217.1 		"/>
	</g>
	<g>
		<path class="st17" d="M99.4,241.7c0,0,10.9-4.7,24-12c13-7.3,26.5-17,26.5-17l-2.8-10.2c0,0,4.2-1.6,5.1-5.6
			c0.9-4.1-2.5-6.9-2.5-6.9s3.7-2.4,5.5-5.5c1.7-3,1-5.2,1-5.2s-16.3,15.5-33.5,29.4c-17.2,13.9-37.2,27.8-37.2,27.8"/>
		<path class="st12" d="M113,168.1c-1.6-0.9-3.7-2.6-5.4-5.5c-3.1-5.4-2.5-9.8-2.5-9.8l11.4-4.1c0,0,3.2,2,4.9,4.9
			c2.5,4.1,2.5,9.8,2.5,9.8s14.7,7.4,22.1,20.4c10.6,18.8,10.6,32.7,10.6,32.7s-13.1,13.9-23.7,19.6c-10.6,5.7-29.4,11.4-29.4,11.4"
			/>
		<g>
			<path class="st12" d="M121.5,153.7c1.5,2.4,2,5.4,2.3,7.5l28.9-9.2l-3.5-11l-30.3,9.7C119.7,151.4,120.7,152.5,121.5,153.7z"/>
			<path class="st12" d="M107.6,162.7c-1.2-2.1-1.8-4.1-2.2-5.7l-10.1,3.2l0.4,1.3l-14.9,4.8l1.4,4.5l14.9-4.8l0.4,1.3l10.8-3.4
				C108.1,163.5,107.8,163.1,107.6,162.7z"/>
		</g>
		<path class="st12" d="M88.3,229.7c0,0,15.2-3.3,28.3-9s22.9-15.5,22.9-15.5s-1.6-10.6-7.4-20.4c-5.3-9-16.3-15.5-16.3-15.5"/>
		<polygon class="st5" points="88,233.8 83.1,225.6 133.7,206 125.6,185.6 106.8,169.2 80.6,174.9 76.5,165.1 105.1,147.2 
			150.9,137.3 156.6,154.5 134.6,162.7 150.9,185.6 161.5,216.6 156.6,229.7 126.4,245.2 100.2,252.6 		"/>
	</g>
	<polygon class="st6" points="107.3,355.5 110.5,396 70,399.2 66.4,359.3 	"/>
	<polygon class="st6" points="159.1,299.2 192.9,295.9 196.1,329.7 162.8,333.4 	"/>
	<path class="st6" d="M116.6,364c-43.1,10.1-82-13-93.5-61.8c-11.1-47.1,13.6-84.6,56.7-94.7c43.1-10.1,81.9,12.4,93,59.5
		C184.2,315.7,159.7,353.8,116.6,364"/>
	<path class="st6" d="M60,175.2L45.1,228c-14.5-4.1-22.4-17.3-17.9-33.1C31.8,178.4,45.5,171.1,60,175.2"/>
	<path class="st6" d="M87.9,208.1c-6.3,19.2-24.7,28.9-46.5,21.7l22-66.9C85.2,170.2,94.2,188.9,87.9,208.1"/>
	<g>
		<path class="st12" d="M60.8,244.8c0,0-0.5,22.9,8.1,38.2c5.9,10.5,14.6,17.5,19.4,20.9"/>
		<path class="st12" d="M95.4,295.9c0,0-2.2,7.4-7.3,16c-2.8,4.7-8.8,11.3-8.8,11.3s-12.5-10.6-21-25.2
			c-10.7-18.5-7.8-42.7-7.8-42.7"/>
		<path class="st5" d="M46.2,252.4c0,0-5.8,31,3.6,43.3s28.9,31.8,28.9,31.8l23.1-33.9l-14.4-0.7L65,239.4L46.2,252.4z"/>
	</g>
	<g>
		<path class="st12" d="M165.6,303.9c11.4-0.9,20.3-5.1,20.3-5.1c3.2,7.6,4.1,16.7,4.1,16.7s2.6-5.4,6.3-12.6
			c2.8-5.5,6.8-12.9,6.8-12.9l3.3,0c0.9,3.3,2.1,9,1.7,15.6c-0.3,5.3-2.9,12.8-2.9,12.8l1.6,8.8c0,0-6.2,0.3-12.1-1.2"/>
		<path class="st5" d="M158.8,303.7c0,0,32.5,27.4,33.9,26.7c1.4-0.7,15.2,0,15.2,0l2.9-44.8L158.8,303.7z"/>
	</g>
	<g>
		<path class="st12" d="M72.5,160.9c0,0,8.4,0.4,16.3,4.9c6.1,3.5,10.6,9,11.9,11.2c1.8,3,1,5-1.6,6.5c-2.2,1.4-9,5.4-9,5.4
			s5.3,4.2,2.9,7.8c-2.6,3.9-8.8,0.6-8.8,0.6"/>
		<path class="st4" d="M69.9,176.3c-1,0.7-2.7,0-3.8-1.6c-1.1-1.6-1.2-3.4-0.2-4.1c1-0.7,2.7,0,3.8,1.6
			C70.8,173.7,70.9,175.6,69.9,176.3"/>
		<path class="st12" d="M83.5,200.1c0,0-0.1-1.3,0.4-2.5c0.5-1.2,1.5-2,1.5-2"/>
		<path class="st5" d="M79.4,188.1l-2.9,12.3l7.9,4.3l13.7-1.4v-10.8l8.7-7.9l-5.1-14.4l-10.1-9.4c0,0-16.6-7.9-23.8-5.8
			c-7.2,2.2-7.2,11.6-7.2,11.6l-0.7,7.9l12.3,9.4L79.4,188.1z"/>
	</g>
	<g>
		<polygon class="st5" points="106.8,394.7 123.4,404.8 120.6,412 87.3,412 72.9,414.9 74.3,396.8 98.2,362.2 106.8,365.8 
			110.4,388.9 		"/>
		<path class="st12" d="M100.7,364.3c1.5,12.4,6.4,22,6.4,22C99,390,89,391.3,89,391.3s6.1,2.7,14.1,6.4c6.1,2.9,14.4,6.9,14.4,6.9
			l0.1,3.6c-3.6,1.2-9.8,2.7-17,2.5c-5.8-0.2-14.2-2.7-14.2-2.7l-9.6,2c0,0-0.6-6.8,0.8-13.2"/>
	</g>
</g>
</svg>
