<svg id="Layer_1" data-name="Layer 1" xmlns="http://www.w3.org/2000/svg" viewBox="0 0 100 100"><defs><style>.cls-1{fill:#fff56e;}.cls-2{fill:none;stroke:#000;stroke-miterlimit:10;stroke-width:2px;}</style></defs><title>print</title><rect class="cls-1" x="4" y="28" width="92" height="44"/><rect class="cls-1" x="25" y="19" width="46" height="64"/><path class="cls-2" d="M29,44a263.86,263.86,0,0,1,0-28.14,400.62,400.62,0,0,1,46,0A159.32,159.32,0,0,0,75,44"/><path class="cls-2" d="M75,61a89.15,89.15,0,0,1,0,19,414.88,414.88,0,0,0-46,0,90.05,90.05,0,0,0,0-19"/><circle class="cls-2" cx="87.5" cy="35.5" r="3"/><path class="cls-2" d="M24,61a455.46,455.46,0,0,0,57,0"/></svg>