<svg id="Layer_1" data-name="Layer 1" xmlns="http://www.w3.org/2000/svg" viewBox="0 0 100 100"><defs><style>.cls-1{fill:#fff56e;}.cls-2{fill:none;stroke:#000;stroke-miterlimit:10;stroke-width:2px;}</style></defs><title>stack</title><rect class="cls-1" x="15.47" y="14.28" width="60.8" height="76.75"/><polyline class="cls-1" points="15.47 14.28 34.93 9.55 83.57 9.55 83.57 79.22 76.27 91.03"/><path class="cls-2" d="M14.25,87.38c20,1.46,40.75,2.22,62,2.43A51.69,51.69,0,0,0,86,75.22"/><path class="cls-2" d="M14.57,83.22c20.07.38,40.81,0,62.06-.9a51.89,51.89,0,0,0,8.93-15.1"/><path class="cls-2" d="M14.27,75.34c20,1.39,40.76,2.08,62,2.22A52,52,0,0,0,86,62.94"/><path class="cls-2" d="M14.25,67.92c20,1.46,40.75,2.22,62,2.43A51.55,51.55,0,0,0,86,55.76"/><path class="cls-2" d="M14.57,63.76c20.07.38,40.81,0,62.06-.9a51.89,51.89,0,0,0,8.93-15.09"/><path class="cls-2" d="M14.27,55.88c20,1.39,40.76,2.08,62,2.23A52,52,0,0,0,86,43.48"/><path class="cls-2" d="M14.25,50.9c20,1.45,40.75,2.21,62,2.43A51.69,51.69,0,0,0,86,38.74"/><path class="cls-2" d="M14.57,46.74c20.07.38,40.81,0,62.06-.9a51.89,51.89,0,0,0,8.93-15.1"/><path class="cls-2" d="M14.27,38.86c20,1.39,40.76,2.08,62,2.22A52,52,0,0,0,86,26.46"/><path class="cls-2" d="M14.25,31.44c20,1.46,40.75,2.22,62,2.43A51.55,51.55,0,0,0,86,19.28"/><path class="cls-2" d="M14.57,27.28c20.07.38,40.81,0,62.06-.9a51.89,51.89,0,0,0,8.93-15.09"/><path class="cls-2" d="M14.27,19.4c20,1.39,40.76,2.08,62,2.23A52,52,0,0,0,86,7"/><path class="cls-2" d="M21.55,15.63a111.67,111.67,0,0,0,15.81-4.86"/><path class="cls-2" d="M32.79,16.45A113.15,113.15,0,0,0,48,10"/><path class="cls-2" d="M43.44,16.87A112.06,112.06,0,0,0,59.24,12"/><path class="cls-2" d="M58.59,18.23a112.75,112.75,0,0,0,14.69-7.62"/></svg>