<svg id="Layer_1" data-name="Layer 1" xmlns="http://www.w3.org/2000/svg" viewBox="0 0 100 100"><defs><style>.cls-1{fill:#fff56e;}.cls-2{fill:none;stroke:#000;stroke-miterlimit:10;stroke-width:2px;}</style></defs><title>stack</title><rect class="cls-1" x="15.47" y="14.28" width="60.8" height="76.75"/><polyline class="cls-1" points="15.47 14.28 34.93 9.55 83.57 9.55 83.57 79.22 76.27 91.03"/><path class="cls-2" d="M14.25,87.38c20,1.46,40.75,2.22,62,2.43A51.69,51.69,0,0,0,86,75.22"/><path class="cls-2" d="M14.57,79.07c20.07.38,40.81,0,62.06-.9a51.89,51.89,0,0,0,8.93-15.09"/><path class="cls-2" d="M14.25,64.64c20,1.46,40.75,2.22,62,2.44A51.68,51.68,0,0,0,86,52.48"/><path class="cls-2" d="M14.27,53.5c20,1.39,40.76,2.08,62,2.23A52,52,0,0,0,86,41.1"/><path class="cls-2" d="M14.57,45c20.07.38,40.81,0,62.06-.9A51.89,51.89,0,0,0,85.56,29"/><path class="cls-2" d="M14.25,30.54C34.28,32,55,32.76,76.27,33A51.68,51.68,0,0,0,86,18.38"/><path class="cls-2" d="M14.27,19.4c20,1.39,40.76,2.08,62,2.23A52,52,0,0,0,86,7"/><path class="cls-2" d="M21.55,15.63a111.67,111.67,0,0,0,15.81-4.86"/><path class="cls-2" d="M32.79,16.45A113.15,113.15,0,0,0,48,10"/><path class="cls-2" d="M43.44,16.87A112.06,112.06,0,0,0,59.24,12"/><path class="cls-2" d="M58.59,18.23a112.75,112.75,0,0,0,14.69-7.62"/></svg>