<svg id="Layer_1" data-name="Layer 1" xmlns="http://www.w3.org/2000/svg" viewBox="0 0 298.69 117.23"><title>newsletter_red</title><path d="M-10,109.13l90-66.7C98.34,67.2,94.59,98.26,67.54,118.32,39.5,139.11,8.37,133.9-10,109.13" style="fill:#ff4646"/><path d="M75.41,72.18c5.36-4.31,10-8.32,10-8.32l-5.2-5.79a14.31,14.31,0,0,0,7.62-5A11.63,11.63,0,0,0,90.16,45s9.62-3.26,13-6.38,3.29-5.85,3.29-5.85L89.25,40.52s10.09-5.33,13.21-9.28c3-3.78,2.49-6.85,2.49-6.85l-17.84,12s10.79-8.57,13.41-13.27C103,18.62,102,15.46,102,15.46L83.78,32.63s8.34-8.34,10.32-13.35c1.89-4.8.42-7.79.42-7.79a302.61,302.61,0,0,1-44,47.78" style="fill:none;stroke:#1d1d1b;stroke-width:1.6px"/><path d="M256.49,28.4s2.35,3.56,5.76,8.8A413.94,413.94,0,0,0,297,1.4L237.12.82l8.82,10.3-1.87,16.11A316.13,316.13,0,0,0,282.29,8.36" style="fill:none;stroke:#1d1d1b;stroke-width:1.6px"/><path d="M237.68,29.82a260.41,260.41,0,0,1-63.12,15.64,217.35,217.35,0,0,1-65.39-2.75" style="fill:none;stroke:#1d1d1b;stroke-width:1.6px;stroke-dasharray:6,3"/></svg>