<?xml version="1.0" encoding="UTF-8"?>
<svg width="426px" height="589px" viewBox="0 0 426 589" version="1.1" xmlns="http://www.w3.org/2000/svg" xmlns:xlink="http://www.w3.org/1999/xlink">
    <title>Weihnachten</title>
    <defs>
        <polygon id="path-1" points="0 0.02635 80 0.02635 80 16.17635 0 16.17635"></polygon>
    </defs>
    <g id="Weihnachten" stroke="none" stroke-width="1" fill="none" fill-rule="evenodd">
        <path d="M207.9586,435.6181 C177.1186,435.6181 154.3946,457.5311 154.3946,492.4291 L261.5226,492.4291 C261.5226,457.5311 238.7986,435.6181 207.9586,435.6181" id="Fill-1-Copy" fill="#1D1D1B"></path>
        <polygon id="Fill-10-Copy" fill="#268F0F" points="200.133952 65.1799975 59.8335152 220.179997 356.833515 216.376968"></polygon>
        <polygon id="Fill-10-Copy-2" fill="#268F0F" points="199.648938 144.179997 33.8335152 327.179997 384.833515 322.678826"></polygon>
        <polygon id="Fill-10-Copy-3" fill="#268F0F" points="198.230719 231.179997 -0.166484801 451.179997 419.833515 445.796446"></polygon>
        <g id="Group-2" transform="translate(115.000000, 413.717663)">
            <polygon id="Fill-6-Copy" fill="#E5B5C8" points="0 100.282337 79 99.2564836 77.975434 20.2823367 0 20.2823367"></polygon>
            <g id="Group-5-Copy" transform="translate(39.000000, 59.782337) rotate(90.000000) translate(-39.000000, -59.782337) translate(-1.000000, 51.282337)">
                <mask id="mask-2" fill="white">
                    <use xlink:href="#path-1"></use>
                </mask>
                <g id="Clip-4"></g>
                <polygon id="Fill-3" fill="#FEF377" mask="url(#mask-2)" points="0 16.17635 80 15.8137047 80 1.11487088 0 0.02635"></polygon>
                <polygon id="Fill-3-Copy" fill="#FEF377" mask="url(#mask-2)" points="0 18.72635 92.371134 18.3064449 92.371134 1.2867426 0 0.02635"></polygon>
            </g>
            <path d="M39,16.1214597 C39,16.1214597 38.3530402,4.93694695 30.7697577,1.35565848 C23.4508177,-2.10060752 15,3.89609091 15,3.89609091 C15,3.89609091 15.2220635,15.7711939 22.5406554,19.2275622 C30.1241613,22.8089763 39,16.1214597 39,16.1214597" id="Fill-17-Copy" fill="#FEF377"></path>
            <path d="M60,4.05718658 C60,4.05718658 50.6381251,-2.34707791 42.9642261,1.52777323 C35.5579756,5.2676663 35,15.768878 35,15.768878 C35,15.768878 44.6452308,22.942 52.0513426,19.2024499 C59.7254837,15.327497 60,4.05718658 60,4.05718658" id="Fill-17-Copy-2" fill="#FEF377"></path>
        </g>
        <g id="Group" transform="translate(162.503546, 280.000000)">
            <polygon id="Fill-8-Copy" fill="#FEF377" transform="translate(106.505126, 105.353515) rotate(81.000000) translate(-106.505126, -105.353515) " points="154.516583 106.15162 58.4936684 70.5319487 59.5414319 140.17508"></polygon>
            <polygon id="Fill-10-Copy" fill="#FEF377" transform="translate(120.716154, 130.388038) rotate(77.000000) translate(-120.716154, -130.388038) " points="85.8240148 132.419411 155.049693 186.105996 155.608292 74.6700798"></polygon>
            <path d="M148.87961,160.195353 C130.792824,160.18017 117.476587,172.931465 117.493684,193.256635 L180.321239,193.309421 C180.304125,172.984252 166.966397,160.210563 148.87961,160.195353" id="Fill-1-Copy" fill="#FEF377" transform="translate(148.907462, 176.752387) rotate(71.000000) translate(-148.907462, -176.752387) "></path>
            <path d="M119.306348,162.520341 C99.4611239,162.503682 84.8503396,176.597309 84.8692362,199.06197 L153.805026,199.119888 C153.786111,176.655227 139.151573,162.537029 119.306348,162.520341" id="Fill-1-Copy-2" fill="#FEF377" transform="translate(119.337131, 180.820115) rotate(71.000000) translate(-119.337131, -180.820115) "></path>
            <path d="M87.800511,50.912135 C98.9677673,49.9326049 106.49857,41.2243294 105.388051,28.5043289 C104.316698,16.2281969 95.4042237,9.10999691 84.2369674,10.0895269 C73.0703137,11.068453 65.5262545,19.6293763 66.5976073,31.9055084 C67.7081266,44.6255089 76.6332547,51.891665 87.800511,50.912135" id="Fill-5-Copy" fill="#FEF377"></path>
            <path d="M130.496454,6.53468445 C130.496454,6.53468445 119.930923,-3.02872698 110.071354,0.983043067 C100.556404,4.85551555 98.4964541,18.4211995 98.4964541,18.4211995 C98.4964541,18.4211995 109.306264,29.0211115 118.821811,25.1492722 C128.680783,21.1368689 130.496454,6.53468445 130.496454,6.53468445" id="Fill-77-Copy" fill="#FEF377"></path>
            <path d="M82.4964541,3 C82.4964541,3 79.8338261,14.3391829 76.2615564,20.0395905 C72.6886896,25.7411834 68.4964541,27.2873278 68.4964541,27.2873278 C68.4964541,27.2873278 69.7166759,29.0438522 70.8401401,30.1117527 C72.0346793,31.2466192 73.775123,31.9873936 73.775123,31.9873936 C73.775123,31.9873936 73.4920172,33.3664194 72.5369831,34.7140363 C71.5825462,36.0616532 70.6358739,36.5878994 70.6358739,36.5878994 C70.6358739,36.5878994 71.8507203,38.8807445 73.7291332,39.5942584 C77.5134336,41.0331388 79.0221367,38.1826386 79.0221367,38.1826386" id="Stroke-65-Copy" stroke="#1D1D1B" stroke-width="1.692"></path>
            <path d="M86.9960696,27 C88.3769707,27 89.4964541,25.6584507 89.4964541,24.0008126 C89.4964541,22.3423619 88.3769707,21 86.9960696,21 C85.6151685,21 84.4964541,22.3423619 84.4964541,24.0008126 C84.4964541,25.6584507 85.6151685,27 86.9960696,27" id="Fill-35-Copy" fill="#1D1D1B"></path>
            <path d="M105.521017,197 C105.094012,206.923115 101.706721,214.779696 101.706721,214.779696 C108.472078,217.257392 116.561858,217.737171 116.561858,217.737171 C116.561858,217.737171 111.853942,220.205218 105.653948,223.649441 C100.948745,226.266515 94.4964541,229.97341 94.4964541,229.97341 L94.6234164,232.853156 C97.5994354,233.560226 102.654056,234.391665 108.464482,233.796632 C113.110544,233.320605 119.681116,230.845053 119.681116,230.845053 L127.496454,231.898422 C127.496454,231.898422 127.535962,226.507744 126.039542,221.467117" id="Stroke-25-Copy" stroke="#1D1D1B" stroke-width="1.6" transform="translate(110.996454, 215.500000) rotate(-1.000000) translate(-110.996454, -215.500000) "></path>
            <path d="M147.756848,193.916117 C147.320836,203.745829 143.918403,211.530916 143.918403,211.530916 C150.699567,213.979752 158.810223,214.448478 158.810223,214.448478 C158.810223,214.448478 154.087976,216.897003 147.868954,220.313685 C143.149308,222.909826 136.677118,226.586902 136.677118,226.586902 L136.802126,229.439339 C139.785403,230.137331 144.852644,230.95684 150.67881,230.362746 C155.337459,229.887472 161.927263,227.430011 161.927263,227.430011 L169.762335,228.46713 C169.762335,228.46713 169.806194,223.127347 168.309848,218.135547" id="Stroke-25-Copy-2" stroke="#1D1D1B" stroke-width="1.6" transform="translate(153.219726, 212.241787) rotate(-18.000000) translate(-153.219726, -212.241787) "></path>
            <g id="Group-Copy" transform="translate(128.163593, 96.410542) rotate(-32.000000) translate(-128.163593, -96.410542) translate(112.663593, 64.910542)" stroke="#1D1D1B" stroke-width="1.6">
                <path d="M17.63826,0.409124006 C17.63826,0.409124006 22.0224507,17.6777498 18.3392257,30.826241 C15.8124221,39.8463761 10.6314709,46.7277526 7.62569315,50.1619811" id="Stroke-19"></path>
                <path d="M0.101343857,45.4277609 C0.101343857,45.4277609 3.10595308,50.5566635 8.56774913,56.096365 C11.5652567,59.1382468 17.3034271,62.9779709 17.3034271,62.9779709 C17.3034271,62.9779709 24.9560963,52.8858759 28.7868695,40.418216 C33.6195737,24.6896588 27.0866051,7.11511374 27.0866051,7.11511374" id="Stroke-21"></path>
            </g>
            <path d="M71.8564039,95.2567274 C71.8564039,95.2567274 61.5148818,96.3539167 48.453751,96.3659343 C35.3914409,96.3778212 20.9703197,94.759428 20.9703197,94.759428 L18.8021505,85.7879653 C18.8021505,85.7879653 14.9571659,86.3689331 12.5108714,83.6518561 C10.0374804,80.9053421 11.4623364,77.3645088 11.4623364,77.3645088 C11.4623364,77.3645088 7.65291595,77.0963577 4.93321416,75.467257 C2.32607186,73.9058153 1.94338784,71.9770129 1.94338784,71.9770129 C1.94338784,71.9770129 20.9867094,76.8119303 40.0326614,80.0576808 C59.0780239,83.3034318 80.3014067,85.3787386 80.3014067,85.3787386" id="Stroke-23-Copy" stroke="#1D1D1B" stroke-width="1.6" transform="translate(41.122397, 84.171474) rotate(-21.000000) translate(-41.122397, -84.171474) "></path>
        </g>
        <polygon id="Star" fill="#FEF377" transform="translate(203.928337, 65.242455) rotate(-36.000000) translate(-203.928337, -65.242455) " points="203.928337 93.2424547 171.012363 110.547406 177.298755 73.8949305 150.669172 47.937503 187.47035 42.5899789 203.928337 9.24245469 220.386324 42.5899789 257.187502 47.937503 230.55792 73.8949305 236.844311 110.547406"></polygon>
    </g>
</svg>