<svg id="Layer_1" data-name="Layer 1" xmlns="http://www.w3.org/2000/svg" xmlns:xlink="http://www.w3.org/1999/xlink" viewBox="0 0 1001.6 226.12"><defs><clipPath id="clip-path"><rect x="-98.4" y="-484.88" width="1200" height="1200" style="fill:none"/></clipPath></defs><title>logo</title><g style="clip-path:url(#clip-path)"><path d="M257.58,40.41l-2.41-13.86L152,44.43l28.82-26L171.42,8l-36,32.48L82.57,8,75.21,20l48,29.44-57.81,10,2.41,13.87,59.12-10.25L121.8,97.59l13.92,2.06,5.77-39,60.23,37,7.35-12L162.31,56.93ZM659.13,30.32V96.6H675.7V53.79a14.88,14.88,0,0,1,13.81-9.54c7.78,0,11.8,5.65,11.8,14.31v38h16.57V56.3c0-17.07-9.54-27.11-23.1-27.11-9.29,0-16.19,4.64-19.08,11.17v-10ZM8.72,96.6h49V81.66H25.29V58.81H57.72V43.88H25.29V23.67H63.58V8.73H8.72Zm255.9,30.13h16.57V90.2A22.79,22.79,0,0,0,299,98c15.94,0,28.49-13.3,28.49-35.27,0-21.72-12.3-33.77-28-33.77-8,0-14.31,3.26-18.33,8.53V30.32H264.62Zm30.5-43.44a15.89,15.89,0,0,1-13.93-8V52.16a16,16,0,0,1,14.44-8.53c9,0,15.31,6.27,15.31,19.2s-6.4,20.46-15.82,20.46M478,96.6h16.57V30.32H478ZM477.59,22h17.33V5.46H477.59Zm72.68,22.35V30.32H529.8V14.75H517.25l-.88,6.78c-.75,6.28-4.14,8.79-11.42,8.79h-3.14V44.38h11.42V71.12c0,16.32,9.29,26,25.36,26a41.4,41.4,0,0,0,6.4-.5V82h-4.77c-6.53,0-10.42-3.52-10.42-10.92V44.38Zm7.28,52.22h16.57V30.32H557.55ZM557.17,22h17.32V5.46H557.17ZM583.8,63c0,21.59,14.06,35.15,33.14,35.15S650.08,84.55,650.08,63c0-20.84-14.06-34.15-33.14-34.15S583.8,42.12,583.8,63m49.71,0c0,12.55-7,20.33-16.57,20.33S600.37,75.51,600.37,63c0-11.68,7-19.33,16.57-19.33S633.51,51.28,633.51,63M394.45,67a42.41,42.41,0,0,0,.38-5c0-20.08-11.17-33.14-29.75-33.14-19.58,0-31.25,13.06-31.25,33.77,0,21.59,10.38,35.52,30.21,35.52,15.69,0,25.31-8.54,27.7-21.59L376.3,73.74c-1.38,6.27-5,10.42-12.14,10.42-9,0-13-6.15-13.64-17.2ZM350.52,55.29c1.26-8.28,6.53-12.55,14.56-12.55,7.66,0,12.18,4.39,13.31,12.55ZM401.43,62c0-21.38,11.59-33.23,26.3-33.23,8.55,0,15.14,4.06,18.91,10.35V4.73h16.6V96.62h-28c-20.5,0-33.85-13.46-33.85-34.59m30.83-18.39c-8.05,0-14.23,6.07-14.23,18.9,0,12.32,6.93,20.17,18.38,20.17h10.23V52.35a16.94,16.94,0,0,0-14.38-8.71m-12.65,108.5h16.57v66.29H419.61Zm-.37-24.85h17.32v16.57H419.24Zm47.51,24.85v10.05c2.89-6.53,9.79-11.17,19.08-11.17,13.56,0,23.1,10,23.1,27.11v40.3H492.36v-38c0-8.66-4-14.31-11.8-14.31a14.88,14.88,0,0,0-13.81,9.54v42.81H450.18V152.14Zm55.88,66.29V126.54H539.2v56.61l24.35-31h18.58L554.9,186.82l18,31.61H555.71L539.2,189v29.45Zm90.08,1.5c-19.08,0-33.14-13.55-33.14-35.15,0-20.83,14.06-34.14,33.14-34.14s33.14,13.31,33.14,34.14c0,21.6-14.06,35.15-33.14,35.15m0-14.81c9.54,0,16.57-7.78,16.57-20.34,0-11.67-7-19.33-16.57-19.33s-16.57,7.66-16.57,19.33c0,12.56,7,20.34,16.57,20.34m346.71-53v10.05c2.88-6.53,9.79-11.17,19.08-11.17,13.56,0,23.1,10,23.1,27.11v40.3H985v-38c0-8.66-4-14.31-11.81-14.31a14.88,14.88,0,0,0-13.8,9.54v42.81H942.85V152.14Zm-915.49-23c-24.72,0-42.33,16.81-42.33,45.18S18.29,220,42.89,220c15.81,0,27.86-7.28,34.89-18.33V170.27H44.65v13.94H61.34v13.68c-4,4.26-10.42,7.15-18,7.15-15.56,0-25.23-12-25.23-30.75s10.59-30.12,25.77-30.12c11,0,20.5,5,23.14,18.07l16.19-3.14c-3-18.95-19.37-30-39.33-30m64.38,89.36V180.32c3-8.54,8.16-13.56,17.07-13.56H130V152.08c-1.38-.13-3.26-.38-5.14-.38-9.16,0-14.06,5.14-16.57,12.68v-12.3H91.74v66.39Zm30.06-66.27v40.92c0,16.82,9.92,26.86,23.09,26.86a20.88,20.88,0,0,0,19-11.55v10H197V152.2H180.42v43.68c-3,5.4-7.66,9.29-13.68,9.29-7.41,0-11.8-5.78-11.8-13.68V152.2Zm71.27,0v66.27H226.2v-42.8A14.89,14.89,0,0,1,240,166.13c7.78,0,11.8,5.65,11.8,14.31v38h16.57V178.18c0-17.07-9.54-27.11-23.1-27.11-9.28,0-16.19,4.64-19.08,11.17v-10ZM304,150.67c-14.71,0-26.3,11.85-26.3,33.23,0,21.13,13.35,34.59,33.85,34.59h28V126.6H322.92V161c-3.77-6.28-10.36-10.34-18.91-10.34m-9.7,33.74c0-12.83,6.18-18.9,14.23-18.9a16.92,16.92,0,0,1,14.38,8.71v30.36H312.69c-11.45,0-18.38-7.85-18.38-20.17m115,4.44a42.41,42.41,0,0,0,.38-5c0-20.08-11.17-33.14-29.75-33.14-19.58,0-31.25,13.06-31.25,33.77,0,21.59,10.38,35.52,30.21,35.52,15.69,0,25.31-8.54,27.69-21.59l-15.43-2.76c-1.38,6.27-5,10.42-12.14,10.42-9,0-13-6.15-13.64-17.2Zm-43.93-11.67c1.26-8.29,6.53-12.55,14.56-12.55,7.66,0,12.17,4.39,13.3,12.55Zm567.33,6.65a44.68,44.68,0,0,1-.38,5H888.38c.63,11.05,4.6,17.2,13.64,17.2,7.15,0,10.76-4.15,12.13-10.42l15.44,2.76c-2.38,13.05-12,21.59-27.69,21.59-19.84,0-30.21-13.93-30.21-35.52,0-20.71,11.67-33.77,31.25-33.77,18.57,0,29.75,13.06,29.75,33.14m-29.75-19.2c-8,0-13.31,4.26-14.56,12.55h27.86c-1.13-8.16-5.64-12.55-13.3-12.55M655.73,225.51l-12.13-7.13L667,178.52l21.44,9,26.65-35.76,29.24,40.86,24.51-48.14,34.47,25,26.72-44.86,24.13,30.59,15.19-14,9.52,10.36L852.54,175.8l-20.85-26.45-24.13,40.52L774,165.5l-27.54,54.09-31.51-44-21.7,29.12L673,196.24Z" style="fill:#00c8f0"/></g></svg>