<?xml version="1.0" encoding="UTF-8"?>
<svg width="38px" height="29px" viewBox="0 0 38 29" version="1.1" xmlns="http://www.w3.org/2000/svg" xmlns:xlink="http://www.w3.org/1999/xlink">
    <title>Stroke 1</title>
    <g id="Page-1" stroke="none" stroke-width="1" fill="none" fill-rule="evenodd">
        <g id="BGE_Mobile_iPhone-SE_Modal_6-Copy" transform="translate(-216.000000, -399.000000)" stroke="#FFFFFF" stroke-width="3">
            <g id="Group-12" transform="translate(55.000000, 307.000000)">
                <g id="Group-8-Copy" transform="translate(150.000000, 75.000000)">
                    <path d="M24.8664506,44 C35.1156807,44 43.550061,36.1832771 43.6434932,26.3429984 C43.6434932,26.2344709 43.6434932,26.1273173 43.6434932,26.0187898 L43.6434932,25.164308 C44.8920872,24.2535018 46.0288457,22.4978301 46.5172414,20.4344351 C44.4702266,20.9976787 41.8541248,21.0526293 41.8541248,21.0526293 C40.6295966,19.7338149 38.8699567,18.985113 37.0267941,19 C33.3942631,19.0524275 30.4638893,21.8576556 30.4086793,25.3360286 C30.3690414,25.7989874 30.4299139,26.2660675 30.5884655,26.7056723 C25.2642453,26.4583946 20.309507,24.024083 16.9954949,20.0264269 C16.9954949,20.0264269 14.3921338,26.4377882 16.0158723,31.0756188 C17.965208,36.6379933 24.5082938,38.3497045 24.5082938,38.3497045 C21.9601427,40.1232352 18.939168,40.6864788 15.5288924,41.1549327 C15.5288924,41.1549327 19.2322053,44 24.8664506,44 Z" id="Stroke-1"></path>
                </g>
            </g>
        </g>
    </g>
</svg>