<?xml version="1.0" encoding="UTF-8"?>
<svg width="36px" height="36px" viewBox="0 0 36 36" version="1.1" xmlns="http://www.w3.org/2000/svg" xmlns:xlink="http://www.w3.org/1999/xlink">
    <title>Group 7</title>
    <g id="Page-1" stroke="none" stroke-width="1" fill="none" fill-rule="evenodd">
        <g id="BGE_Mobile_iPhone-SE_Modal_6-Copy" transform="translate(-67.000000, -319.000000)" stroke="#FFFFFF" stroke-width="3">
            <g id="Group-12" transform="translate(55.000000, 307.000000)">
                <g id="Group-7" transform="translate(14.000000, 14.000000)">
                    <path d="M27.3133034,27.3133034 C24.2914733,30.3351335 20.272914,32 16,32 C13.4978322,32 11.1015441,31.4377425 8.87928805,30.3302655 L7.44200198,29.6146649 L1.11477904,31.1140184 L2.44740245,24.6492736 L1.73910398,23.2631018 C0.585380695,21.0031186 0,18.5593672 0,16 C0,11.725869 1.6636495,7.70852666 4.68669658,4.68547958 C7.68053548,1.69164068 11.7648133,0 16,0 C20.274131,0 24.2914733,1.6636495 27.3133034,4.68547958 C30.3351335,7.70852666 32,11.725869 32,15.998783 C32,20.2351867 30.3083593,24.3182475 27.3133034,27.3133034 Z" id="Stroke-1"></path>
                    <path d="M25.98074,20.2067868 L21.9414593,18.8953552 C21.4451018,18.7565988 20.9114241,18.8928993 20.549419,19.2502276 L19.6263681,20.1625812 C19.2369949,20.546924 18.647337,20.6709452 18.1323194,20.4683364 C16.3459298,19.7671871 13.1189837,17.0510009 12.1598567,15.4313583 C11.8836878,14.964744 11.928472,14.3802483 12.2693291,13.9541558 L13.0741996,12.9423396 C13.3901766,12.5469454 13.4573528,12.0140228 13.2483601,11.557232 L11.3960383,7.81326662 C11.0153731,6.97827269 9.91567368,6.73514211 9.19788343,7.32454959 C8.14421213,8.18901389 6.18988201,10.197911 6.03686953,11.6517828 C5.76940869,14.2169333 6.90394024,17.4500789 11.1920217,21.3315727 C16.1468892,25.8159813 20.1152616,26.4078446 22.6978137,25.8012461 C24.1632503,25.4574251 26.0404522,23.3809917 26.7793905,22.251294 C27.2832121,21.4813805 26.8851308,20.4585129 25.98074,20.2067868 Z" id="Stroke-3"></path>
                </g>
            </g>
        </g>
    </g>
</svg>