<svg xmlns="http://www.w3.org/2000/svg" viewBox="0 0 1152.64 727.1"><style>.prefix__st4{fill:#ff4664}.prefix__st5,.prefix__st6{fill:none;stroke:#1d1d1b;stroke-width:1.6}.prefix__st6{stroke-width:1.5871}.prefix__st7{fill:#1d1d1b}</style><g id="prefix__Ebene_3"><path d="M1018.73 491.58l90.37-122.32-32.11-23.5-34.97 49.14c.4-6.97.04-14.32-1.16-21.99-5.3-33.68-25.23-56.27-51.83-64.35 26.5-31.55 24.61-71.32-2.52-101.04l-46.98 42.89 55.62-130.84-36.68-15.4-45.59 112.78c-11.12-5.72-31.79-14.3-52.99-12.53L875.8 86.19l-37.72-4.91-13.98 119.91c-13-17.84-30.12-28.65-30.12-28.65s-17.84 8.23-32.92 23.76l18.98-85.01-38.87-8.5-11.25 54.98c-9.57-44.12-45.43-67.29-87.49-60.67l5.77 36.66-31.51 2.81L651.1 33.46l-32.79-11.1-30.28 85.62c-3.59-9.46-9.23-18.5-16.85-26.71l-81.39 75.56-16.51-110.4c-26.53 3.97-47.13 18.7-57.67 40.69l-6.27-49.59-39.4 5.52 14.38 99.5c-14.06-17.69-32.4-27.91-32.4-27.91s-21.48 11.37-36.2 31.3l3.08-48.14-37.99-1.92-5.16 111.98c-4.7-3.84-10.07-6.95-16.19-8.92-14.14-4.56-28.27-2.79-40.68 1.42l-24.68-77.59-37.75 12.56 25.88 76.63-33.95-36.1c-26.94 25.33-33.25 60.75-15.46 92.29-17.11 12.07-27.4 31.72-28.3 55.33-.28 7.44.4 14.55 1.96 21.23l-64.27-2.93c-1.66 36.4 17.87 65.88 51.67 76.53l-61.31 11.2 7.67 39.04 37.74-7.59c-10.53 11.81-16.71 27.56-17.4 45.62-1.19 31.21 14.48 56.76 41.81 67.88l-47.49-.09c-.09 44.44 30.84 77.24 79.37 77.34 8.74.02 16.9-.98 24.45-2.83l4.56.18-3.24 57.44 852.39-43.53-15-77.34c15.7 4.67 36.28 7.06 54.76-2.77 37.4-19.9 37.89-75.63 37.89-75.63s-36.86-24.37-71.35-15.65z" fill="#7d69f6"/><path class="prefix__st4" d="M362.24 503.22l126.67-18.01-19.97 85.21-106.7-67.2z"/><path fill="none" stroke="#1d1d1b" d="M72.71 682.75l1058.49-36.96"/><path class="prefix__st5" d="M710.2 177.35l-102.99 71.07M646.55 280.88l102.99-71.06M661.18 419.18s30.38-19.84 41.69-46.98c9.67-23.19 10.1-45.53 10.1-45.53-5.81-1.53-17.49-4.6-17.49-4.6s5.18-4.77 4.34-10.86c-.29-2.12-1.3-4.23-2.41-5.8l68.53-47.29-16.39-48.3-39.34-32.46-16.39-48.3-102.99 71.06 16.39 48.3 39.34 32.46 16.39 48.3 19.03-13.13c.64 9.71 2.58 34.53-6.4 56.85-9.02 22.41-36.67 43.45-36.67 43.45"/><path class="prefix__st4" d="M758.7 464.02c-17.3-57.49-63.78-85.88-115.52-78.39.07-.26.15-.52.22-.78 7.15-27.15-6.87-52.23-37.59-60.32l-3.41 12.96c-20.99-4.22-39.59 7.48-44.76 31.29-4.61 21.23 5.4 38.28 23.39 44.59-30.67 26.2-45.03 67.28-31.26 113.02 11.99 39.85 38.68 65.44 70.79 75.92l8.33 54.14 55.68-7.82-6.07-43.18c3.59-.7 7.19-1.56 10.78-2.59 61.73-17.66 89.41-72.41 69.42-138.84z"/><path class="prefix__st5" d="M667.4 606.59c3.06 17.03 10.68 29.81 10.68 29.81-10.94 5.84-24.61 8.54-24.61 8.54s8.6 3.17 19.97 7.68c8.63 3.43 20.49 8.33 20.49 8.33l.46 5c-4.9 1.91-13.32 4.51-23.36 4.83-8.03.26-19.8-2.5-19.8-2.5l-13.07 3.63s-1.34-9.29.03-18.34M607.43 321.5s11.68-.94 23.23 3.79c9.05 3.7 16.11 10.4 18.39 13.24 3.04 3.78 2.23 6.65-1 9.24-2.84 2.27-11.34 9.1-11.34 9.1s8.1 4.76 5.41 10.2c-2.85 5.76-11.96 2.38-11.96 2.38"/><path class="prefix__st7" d="M608.58 341.42c-1.31 1.05-3.74.2-5.42-1.89-1.68-2.1-1.98-4.65-.67-5.7 1.31-1.05 3.73-.2 5.42 1.9 1.68 2.09 1.98 4.64.67 5.69"/><path class="prefix__st5" d="M629.49 373.21s-.29-1.82.3-3.45c.59-1.63 1.96-2.85 1.96-2.85"/><g><path class="prefix__st5" d="M809.52 406.06s30.96-15.77 43.84-36.2c13.68-21.7 15.64-48.43 16.66-56.5l-25.35 18.63 1.82 2.23-4.73 3.85-9.66-11.87 4.73-3.85 1.83 2.25 80.35-72.01 12.51 15.37-48.54 35.96s5.6 3.09 5.27 9.59c-.32 6.43-6.21 9.91-6.21 9.91l16.39 7.65s-4.41 21.9-18.07 42.99c-15.98 24.68-49.41 38.77-49.41 38.77"/><path class="prefix__st4" d="M856.7 523.62l35.1-7.86-60.58-40.32 9.27-102.24-111.34 27.55 57.05 80.72-45.03 68.01 22.74-5.09c-2.95 4.47-5.38 9.49-7.18 15-10.09 30.9 4.43 60.83 39.4 72.24l26.84-82.22c1.27 13.72 8.09 27.49 20.87 39.41 25.96 24.21 58.87 22.16 81.04-1.61l-68.18-63.59zM755.03 341.54c-.41 4.23-.05 8.77 1.2 13.53 5.38 20.45 22.01 29.8 40 25.07s27.87-21.05 22.5-41.5c-5.19-19.74-21.76-28.85-39.75-24.12-9.78 2.57-17.18 8.51-21.07 16.56-3.79-5.4-12.85-16.01-25.56-16.29-17.68-.39-29.23 19.8-29.23 19.8s10.65 20.68 28.32 21.08c10.41.22 18.7-7.81 23.59-14.13z"/><path class="prefix__st5" d="M901.9 568.86c13.98 9.27 28.03 12.51 28.03 12.51-3.24 11.58-10.51 22.95-10.51 22.95s7.98-3.89 18.76-8.83c8.18-3.74 19.56-8.76 19.56-8.76l3.81 3.03c-1.95 4.71-5.76 12.35-12.27 19.58-5.2 5.79-15.02 12.18-15.02 12.18l-6.22 11.57s-7.4-5.3-12.82-12.31M800.19 357.74s.36-2.06 1.58-3.62c1.23-1.55 3.14-2.34 3.14-2.34"/><path d="M776.88 300.9s10.5 16.61 19.31 23.73c8.81 7.12 16.3 7.28 16.3 7.28s-.96 3.47-2.14 5.79c-1.26 2.47-3.6 4.6-3.6 4.6s1.21 2.04 3.47 3.66c2.26 1.62 4.05 1.94 4.05 1.94s-.65 4.32-3.22 6.49c-5.19 4.38-9.15.66-9.15.66" fill="none" stroke="#1d1d1b" stroke-width="1.692"/><path class="prefix__st7" d="M784.51 336.33c-1.56.98-3.72.34-4.83-1.42-1.11-1.77-.76-4 .8-4.98 1.56-.98 3.72-.34 4.83 1.43 1.11 1.76.75 3.99-.8 4.97"/><g><path class="prefix__st5" d="M780.05 422.18s-23.94 15.71-31.69 37.36c-12.35 34.49 4.05 69.32 4.05 69.32s-15.16 4.4-21.39-6.34c-4.11-7.08 1.46-14.78 1.46-14.78-10.59-2.17-20.34-5.31-20.34-5.31s1.26-21.5 10.04-41.88c11.07-25.71 38.74-41.33 38.74-41.33"/></g><path class="prefix__st5" d="M797.27 606.11c-7.14 15.18-8.29 29.55-8.29 29.55-11.93-1.52-24.24-7.05-24.24-7.05s5.02 7.33 11.47 17.27c4.9 7.55 11.52 18.08 11.52 18.08l-2.44 4.21c-4.95-1.24-13.06-3.9-21.16-9.28-6.49-4.3-14.24-13.08-14.24-13.08l-12.36-4.46s4.16-8.09 10.31-14.48"/></g><g><path class="prefix__st4" d="M579.8 493.13l-.53-29.29-28.48.14-.74-5.37c6.68-1.06 13.55-2.97 20.56-5.83l-53.14-130.21c-42.42 17.31-57.78 55.8-42.48 93.28 7.75 18.98 21.3 32.64 38.29 39.25l-55.32 6.94-19.38-125.94c8 2.76 14.26 3.54 14.26 3.54s23.02-27.45 13.03-52.79c-7.2-18.26-30.11-24.62-41.26-26.68l15.12-40.45c-23.41-8.75-43.8 1-51.53 21.69-6.85 18.33-.55 36.7 17.27 46.72-1.21 6.92-1.07 14.44 1.83 21.81 3.28 8.33 9.33 14.38 15.97 18.76l-17.93 3 22.87 132.87-11.43.06.59 32.18 25.54-.58 10.17 81.11 9.98-1.38-12.99 77 57.42-48.41L536 659.04l21.63-96.19 6.72-.93-9.46-68.22 24.91-.57z"/><path class="prefix__st5" d="M426.13 265.88s13.62-5.6 20.77-8.19c7.55-2.73 15.07.68 17.86 7.76 2.79 7.08-.01 13.13-7.88 17.56-4.26 2.4-8.46 3.93-8.46 3.93s4.03 9.34 7 15.62c1.59 3.35 4.86 8.93 4.86 8.93s-1.95 2.26-5.5 3.23c-4.02 1.09-7.26.39-7.26.39s.97 4.97 4.8 8.41c3.83 3.43 6.99 2.68 6.99 2.68"/><path class="prefix__st7" d="M429.92 288.09c-1.66.66-3.71-.58-4.57-2.76-.86-2.18-.21-4.48 1.45-5.13 1.66-.66 3.71.58 4.57 2.76s.21 4.47-1.45 5.13"/><path class="prefix__st5" d="M537.96 384.71s10.9 4.35 19.17 13.72c6.48 7.34 9.83 16.49 10.61 20.05 1.04 4.74-.96 6.95-5.02 7.83l-14.18 3.38s5.09 7.61.26 11.29c-5.12 3.9-11.8-3.18-11.8-3.18"/><path class="prefix__st5" d="M534.72 440.83s.56-1.78 1.83-2.99c1.27-1.22 3.06-1.7 3.06-1.7M533.87 402.47c-.78-2.94-2.91-4.93-4.74-4.44-1.84.49-2.69 3.27-1.91 6.21"/><path class="prefix__st6" d="M639.32 491.43s-1.81 7.39-8.08 10.21c-8.26 3.72-16.5-.83-16.5-.83.52 9.78.01 19.03.01 19.03s-19.12 3.82-38.98.8c-25.05-3.8-45.07-24.46-45.07-24.46"/><path class="prefix__st6" d="M528.91 478.76s20.63 17.45 41.15 20.93c24.74 4.2 46.44-13.24 46.44-13.24l-1.49-10.22"/><ellipse transform="rotate(-9.416 631.949 473.518)" class="prefix__st6" cx="631.92" cy="473.5" rx="17.13" ry="7.81"/><path class="prefix__st6" d="M624.55 478.83l10.92-4.35 3.82-6.3-10.91 4.34zM621.91 488.89c7.04 1.95 17.75.22 23.92-3.86 3.08-2.04 4.45-4.29 4.16-6.26l-1.16-8"/><path class="prefix__st5" d="M513.43 520.72s-7.13 6.92-15.21 16.75c-9.79 11.9-14.46 20.53-14.46 20.53s-5.04-4.25-10.33-9.46c0 0-6.48 5.83-7.68 12.82-1.49 8.75 2.69 16.52 6.72 23.78 3.91 7.05-7.03 13.16-7.03 13.16l1.59 3.15-4.29 3.51s-4.3-3.9-12.22-14.95c-7.58-10.58-9.76-19.8-9.76-19.8l-5.26.97-12.77-15.63 5-5.15 3.29 2.45s5.71-5.41 14.09-11.77c8.39-6.36 12.77-9.45 12.77-9.45s-3.34-3.94-6.93-8.78M476.58 616.63c-8.5 15.07-10.78 29.77-10.78 29.77-12.17-2.48-24.43-9.12-24.43-9.12s4.61 7.93 10.5 18.66c4.47 8.15 10.49 19.49 10.49 19.49l-2.83 4.14c-5-1.66-13.15-5.02-21.1-11.18-6.35-4.92-13.68-14.56-13.68-14.56l-12.39-5.54s4.9-8.01 11.72-14.11M550.03 609.83c3.28 16.99 11.07 29.66 11.07 29.66-10.88 5.99-24.52 8.87-24.52 8.87s8.65 3.06 20.09 7.41c8.68 3.31 20.62 8.06 20.62 8.06l.52 4.99c-4.88 1.98-13.27 4.69-23.32 5.14-8.03.36-19.85-2.23-19.85-2.23l-13.03 3.8s-1.46-9.28-.21-18.34"/><g><path class="prefix__st5" d="M521.18 322.42c7.25-8.16 10.95-15.83 10.95-15.83L519.69 294s6.52-2.05 8.29-8.25c.64-2.23.44-4.21-.08-5.83 22.83-1.92 50.29-4.35 51.63-5 5.01-2.45 1.07-20.82-8.8-41.02s-21.93-34.61-26.95-32.16c-2.39 1.17-56.49 60.25-56.49 60.25s-16.16 1.48-16.63 1.71c-2.11 1.03-.45 8.76 3.7 17.27s9.23 14.57 11.34 13.54c.48-.24 11.58-12.05 11.58-12.05l12.98-.95c-2.83 7.64-14.04 28.63-37.12 51.89-21.78 21.94-50.44 39.26-50.44 39.26"/></g><path class="prefix__st5" d="M456.18 386.24s17.4-4.42 38.55-12.23c21.16-7.81 43.54-19.08 43.54-19.08l-1.84-15.84s6.57-1.36 8.91-7.24c2.36-5.94-2.06-10.82-2.06-10.82s6-2.72 9.44-6.99c3.29-4.09 2.76-7.45 2.76-7.45s-27.95 19.26-56.85 35.93c-28.9 16.68-62.02 32.76-62.02 32.76"/></g><g><path class="prefix__st5" d="M364.25 265.96l-6.22-15.57 62.82-11.17L363.2 88.81l-122.75 56.4 45.7 117.62 62.86-11.04M339.86 383.29s22.41-17.83 28.15-40.09c9.16-35.47-10.35-68.67-10.35-68.67s14.69-5.76 21.88 4.36c4.73 6.67-.11 14.85-.11 14.85 10.75 1.2 20.74 3.44 20.74 3.44s.7 21.53-6.18 42.62c-8.68 26.61-34.81 44.69-34.81 44.69"/><path class="prefix__st6" d="M213.19 312.51s-5.88-4.59-13.26-10.37c-7.39-5.78-10.01-16.5-6.68-26.05 3.32-9.55 12.75-15.84 21.34-16.09s16.93-.5 16.93-.5l16.01-36.77c.59-1.34 2.39-1.45 3.16-.21 4.89 7.92.7 36.66-10.55 69.03-11.23 32.31-25.72 57.36-34.45 60.51-1.38.5-2.75-.75-2.37-2.19l9.87-37.36z"/><path class="prefix__st4" d="M395.83 516.62l-32.25-90.72c8.69-22.17 3.7-46.3-13.79-65.47l-100.2 91.39c5.61 6.15 11.86 11.04 18.54 14.62l28.62 83.95 25.29-8.62-66.62 77.84 90.83 35.87.57-122.16 49.01-16.7zM276.79 381.21c.06-.18.1-.36.16-.54 21.99 4.76 45.15-5.43 45.15-5.43s6.63-40.84-18.24-60.08c-22.29-17.25-57.85-1.88-62.81.4-.1-.03-.2-.07-.3-.11l-.09.29c-.12.06-.19.09-.19.09s-.04.28-.08.75l-31.35 96.74c31.87 10.33 58.62-3.94 67.75-32.11z"/><path class="prefix__st5" d="M308.22 297.06s3.97 18.71 9.58 28.19c5.61 9.47 12.36 12.13 12.36 12.13s-2.03 2.85-3.88 4.57c-1.97 1.83-4.81 3-4.81 3s.42 2.27 1.92 4.52c1.51 2.24 3.02 3.13 3.02 3.13s-2.14 3.14-5.28 4.02c-5.05 1.42-8.3-1.36-8.3-1.36s-.41 8.83 7.39 12.24"/><path class="prefix__st7" d="M303.16 332.06c-1.76.37-3.52-.94-3.95-2.94-.42-2 .66-3.91 2.41-4.29s3.52.94 3.95 2.94c.43 2-.65 3.92-2.41 4.29"/><path class="prefix__st5" d="M286.79 435.59s-26.82 10.02-39.18 29.42c-19.68 30.9-11.41 68.5-11.41 68.5s-15.76.93-19.45-10.92c-2.44-7.81 4.7-14.09 4.7-14.09-9.85-4.47-18.66-9.68-18.66-9.68s6-20.69 19.07-38.62c16.49-22.62 46.93-31.73 46.93-31.73M326.93 622.65c-8.65 14.65-11.17 29.06-11.17 29.06-11.92-2.68-23.85-9.45-23.85-9.45s4.38 7.89 9.97 18.55c4.24 8.1 9.94 19.37 9.94 19.37l-2.87 4.02c-4.88-1.73-12.83-5.19-20.53-11.4-6.15-4.97-13.17-14.58-13.17-14.58l-12.08-5.69s4.97-7.78 11.8-13.64"/></g></g></svg>