<?xml version="1.0" encoding="utf-8"?>
<svg version="1.1" xmlns="http://www.w3.org/2000/svg" xmlns:xlink="http://www.w3.org/1999/xlink" x="0px" y="0px"
	viewBox="0 0 1152.64 727.1" style="enable-background:new 0 0 1152.64 727.1;" xml:space="preserve">
	<style type="text/css">
		.st0 {
			fill: #FF4646;
		}

		.st1 {
			display: none;
		}

		.st2 {
			display: inline;
		}

		.st3 {
			fill: #FFF56E;
		}

		.st4 {
			fill: #FF4664;
		}

		.st5 {
			fill: none;
			stroke: #1D1D1B;
			stroke-width: 1.6;
		}

		.st6 {
			fill: none;
			stroke: #1D1D1B;
			stroke-width: 1.5871;
		}

		.st7 {
			fill: #1D1D1B;
		}

		.st8 {
			fill: #E6B4C8;
		}

		.st9 {
			fill: #00C8F0;
		}

		.st10 {
			fill: none;
			stroke: #1D1D1B;
			stroke-width: 1.692;
		}

		.st11 {
			fill: none;
			stroke: #1D1D1B;
			stroke-width: 0.5;
		}

		.st12 {
			fill: #3200FA;
		}

		.st13 {
			fill: #7D64FA;
		}

		.st14 {
			fill: none;
			stroke: #1D1D1B;
			stroke-width: 1.6;
			stroke-dasharray: 6, 3;
		}

		.st15 {
			fill: none;
			stroke: #1D1D1B;
			stroke-width: 1.25;
		}

		.st16 {
			fill: none;
			stroke: #FF4646;
			stroke-width: 45;
			stroke-miterlimit: 10;
		}

		.st17 {
			fill: none;
			stroke: #FF4646;
			stroke-width: 13;
			stroke-miterlimit: 10;
		}

		.st18 {
			fill: none;
			stroke: #FF4646;
			stroke-width: 4;
			stroke-miterlimit: 10;
		}

		.st19 {
			fill: #FFFFFF;
		}

		.st20 {
			fill: none;
			stroke: #FF4646;
			stroke-width: 3;
			stroke-miterlimit: 10;
		}

		.st21 {
			fill: #785FFF;
		}

		.st22 {
			fill: none;
			stroke: #1D1D1B;
		}

		.st23 {
			fill: none;
			stroke: #1D1D1B;
			stroke-miterlimit: 10;
		}

		.st24 {
			fill: none;
			stroke: #1D1D1B;
			stroke-dasharray: 6, 3;
		}

		.st25 {
			fill: none;
			stroke: #1D1D1B;
			stroke-width: 0.75;
		}

		.st26 {
			fill: #FF6743;
		}

		.st27 {
			fill: #FF5753;
		}

		.st28 {
			fill: #FF7832;
			stroke: #FF7832;
			stroke-miterlimit: 10;
		}

		.st29 {
			fill: #FFE4D6;
			stroke: #FF7832;
			stroke-miterlimit: 10;
		}

		.st30 {
			fill: #FF6743;
			stroke: #FF7832;
			stroke-miterlimit: 10;
		}

		.st31 {
			fill: #FF5753;
			stroke: #FF7832;
			stroke-miterlimit: 10;
		}

		.st32 {
			fill: #785FFF;
			stroke: #FF7832;
			stroke-miterlimit: 10;
		}

		.st33 {
			fill: #FF4664;
			stroke: #FF7832;
			stroke-miterlimit: 10;
		}

		.st34 {
			fill: url(#SVGID_1_);
		}

		.st35 {
			fill: #FF7832;
		}

		.st36 {
			fill: #FF703A;
		}

		.st37 {
			fill: #FF5F4B;
		}

		.st38 {
			fill: #FF4E5C;
		}
	</style>
	<g id="Ebene_2">
	</g>
	<g id="Ebene_4" class="st1">
	</g>
	<g id="Ebene_1">
	</g>
	<g id="Ebene_3">
		<path class="st21" d="M1018.73,491.58l90.37-122.32l-32.11-23.5l-34.97,49.14c0.4-6.97,0.04-14.32-1.16-21.99
		c-5.3-33.68-25.23-56.27-51.83-64.35c26.5-31.55,24.61-71.32-2.52-101.04l-46.98,42.89l55.62-130.84l-36.68-15.4l-45.59,112.78
		c-11.12-5.72-31.79-14.3-52.99-12.53L875.8,86.19l-37.72-4.91L824.1,201.19c-13-17.84-30.12-28.65-30.12-28.65
		s-17.84,8.23-32.92,23.76l18.98-85.01l-38.87-8.5l-11.25,54.98c-9.57-44.12-45.43-67.29-87.49-60.67l5.77,36.66l-31.51,2.81
		l34.41-103.11l-32.79-11.1l-30.28,85.62c-3.59-9.46-9.23-18.5-16.85-26.71l-81.39,75.56l-16.51-110.4
		c-26.53,3.97-47.13,18.7-57.67,40.69l-6.27-49.59l-39.4,5.52l14.38,99.5c-14.06-17.69-32.4-27.91-32.4-27.91
		s-21.48,11.37-36.2,31.3l3.08-48.14l-37.99-1.92l-5.16,111.98c-4.7-3.84-10.07-6.95-16.19-8.92c-14.14-4.56-28.27-2.79-40.68,1.42
		l-24.68-77.59l-37.75,12.56l25.88,76.63l-33.95-36.1c-26.94,25.33-33.25,60.75-15.46,92.29c-17.11,12.07-27.4,31.72-28.3,55.33
		c-0.28,7.44,0.4,14.55,1.96,21.23l-64.27-2.93c-1.66,36.4,17.87,65.88,51.67,76.53l-61.31,11.2l7.67,39.04l37.74-7.59
		c-10.53,11.81-16.71,27.56-17.4,45.62c-1.19,31.21,14.48,56.76,41.81,67.88l-47.49-0.09c-0.09,44.44,30.84,77.24,79.37,77.34
		c8.74,0.02,16.9-0.98,24.45-2.83l4.56,0.18l-3.24,57.44l852.39-43.53l-15-77.34c15.7,4.67,36.28,7.06,54.76-2.77
		c37.4-19.9,37.89-75.63,37.89-75.63S1053.22,482.86,1018.73,491.58z" />
		<path class="st4" d="M362.24,503.22l126.67-18.01l-19.97,85.21L362.24,503.22z" />
		<line class="st22" x1="72.71" y1="682.75" x2="1131.2" y2="645.79" />
		<g>
			<g>
				<line class="st5" x1="710.2" y1="177.35" x2="607.21" y2="248.42" />
				<line class="st5" x1="646.55" y1="280.88" x2="749.54" y2="209.82" />
				<path class="st5" d="M661.18,419.18c0,0,30.38-19.84,41.69-46.98c9.67-23.19,10.1-45.53,10.1-45.53
				c-5.81-1.53-17.49-4.6-17.49-4.6s5.18-4.77,4.34-10.86c-0.29-2.12-1.3-4.23-2.41-5.8l68.53-47.29l-16.39-48.3l-39.34-32.46
				l-16.39-48.3l-102.99,71.06l16.39,48.3l39.34,32.46l16.39,48.3l19.03-13.13c0.64,9.71,2.58,34.53-6.4,56.85
				c-9.02,22.41-36.67,43.45-36.67,43.45" />
			</g>
			<g>
				<path class="st4" d="M758.7,464.02c-17.3-57.49-63.78-85.88-115.52-78.39c0.07-0.26,0.15-0.52,0.22-0.78
				c7.15-27.15-6.87-52.23-37.59-60.32l-3.41,12.96c-20.99-4.22-39.59,7.48-44.76,31.29c-4.61,21.23,5.4,38.28,23.39,44.59
				c-30.67,26.2-45.03,67.28-31.26,113.02c11.99,39.85,38.68,65.44,70.79,75.92l8.33,54.14l55.68-7.82l-6.07-43.18
				c3.59-0.7,7.19-1.56,10.78-2.59C751.01,585.2,778.69,530.45,758.7,464.02z" />
				<path class="st5" d="M667.4,606.59c3.06,17.03,10.68,29.81,10.68,29.81c-10.94,5.84-24.61,8.54-24.61,8.54s8.6,3.17,19.97,7.68
				c8.63,3.43,20.49,8.33,20.49,8.33l0.46,5c-4.9,1.91-13.32,4.51-23.36,4.83c-8.03,0.26-19.8-2.5-19.8-2.5l-13.07,3.63
				c0,0-1.34-9.29,0.03-18.34" />
				<g>
					<path class="st5" d="M607.43,321.5c0,0,11.68-0.94,23.23,3.79c9.05,3.7,16.11,10.4,18.39,13.24c3.04,3.78,2.23,6.65-1,9.24
					c-2.84,2.27-11.34,9.1-11.34,9.1s8.1,4.76,5.41,10.2c-2.85,5.76-11.96,2.38-11.96,2.38" />
					<path class="st7" d="M608.58,341.42c-1.31,1.05-3.74,0.2-5.42-1.89c-1.68-2.1-1.98-4.65-0.67-5.7c1.31-1.05,3.73-0.2,5.42,1.9
					C609.59,337.82,609.89,340.37,608.58,341.42" />
					<path class="st5" d="M629.49,373.21c0,0-0.29-1.82,0.3-3.45c0.59-1.63,1.96-2.85,1.96-2.85" />
				</g>
			</g>
		</g>
		<g>
			<path class="st5"
				d="M809.52,406.06c0,0,30.96-15.77,43.84-36.2c13.68-21.7,15.64-48.43,16.66-56.5l-25.35,18.63l1.82,2.23
			l-4.73,3.85l-9.66-11.87l4.73-3.85l1.83,2.25l80.35-72.01l12.51,15.37l-48.54,35.96c0,0,5.6,3.09,5.27,9.59
			c-0.32,6.43-6.21,9.91-6.21,9.91s10.95,5.11,16.39,7.65c0,0-4.41,21.9-18.07,42.99c-15.98,24.68-49.41,38.77-49.41,38.77" />
			<g>
				<path class="st4" d="M856.7,523.62l35.1-7.86l-60.58-40.32l9.27-102.24l-111.34,27.55l57.05,80.72l-45.03,68.01l22.74-5.09
				c-2.95,4.47-5.38,9.49-7.18,15c-10.09,30.9,4.43,60.83,39.4,72.24l26.84-82.22c1.27,13.72,8.09,27.49,20.87,39.41
				c25.96,24.21,58.87,22.16,81.04-1.61L856.7,523.62z" />
				<path class="st4" d="M755.03,341.54c-0.41,4.23-0.05,8.77,1.2,13.53c5.38,20.45,22.01,29.8,40,25.07
				c17.99-4.73,27.87-21.05,22.5-41.5c-5.19-19.74-21.76-28.85-39.75-24.12c-9.78,2.57-17.18,8.51-21.07,16.56
				c-3.79-5.4-12.85-16.01-25.56-16.29c-17.68-0.39-29.23,19.8-29.23,19.8s10.65,20.68,28.32,21.08
				C741.85,355.89,750.14,347.86,755.03,341.54z" />
			</g>
			<path class="st5" d="M901.9,568.86c13.98,9.27,28.03,12.51,28.03,12.51c-3.24,11.58-10.51,22.95-10.51,22.95s7.98-3.89,18.76-8.83
			c8.18-3.74,19.56-8.76,19.56-8.76l3.81,3.03c-1.95,4.71-5.76,12.35-12.27,19.58c-5.2,5.79-15.02,12.18-15.02,12.18l-6.22,11.57
			c0,0-7.4-5.3-12.82-12.31" />
			<g>
				<path class="st5" d="M800.19,357.74c0,0,0.36-2.06,1.58-3.62c1.23-1.55,3.14-2.34,3.14-2.34" />
				<path class="st10" d="M776.88,300.9c0,0,10.5,16.61,19.31,23.73c8.81,7.12,16.3,7.28,16.3,7.28s-0.96,3.47-2.14,5.79
				c-1.26,2.47-3.6,4.6-3.6,4.6s1.21,2.04,3.47,3.66c2.26,1.62,4.05,1.94,4.05,1.94s-0.65,4.32-3.22,6.49
				c-5.19,4.38-9.15,0.66-9.15,0.66" />
				<path class="st7" d="M784.51,336.33c-1.56,0.98-3.72,0.34-4.83-1.42c-1.11-1.77-0.76-4,0.8-4.98c1.56-0.98,3.72-0.34,4.83,1.43
				C786.42,333.12,786.06,335.35,784.51,336.33" />
			</g>
			<g>
				<path class="st5" d="M780.05,422.18c0,0-23.94,15.71-31.69,37.36c-12.35,34.49,4.05,69.32,4.05,69.32s-15.16,4.4-21.39-6.34
				c-4.11-7.08,1.46-14.78,1.46-14.78c-10.59-2.17-20.34-5.31-20.34-5.31s1.26-21.5,10.04-41.88
				c11.07-25.71,38.74-41.33,38.74-41.33" />
			</g>
			<path class="st5" d="M797.27,606.11c-7.14,15.18-8.29,29.55-8.29,29.55c-11.93-1.52-24.24-7.05-24.24-7.05s5.02,7.33,11.47,17.27
			c4.9,7.55,11.52,18.08,11.52,18.08l-2.44,4.21c-4.95-1.24-13.06-3.9-21.16-9.28c-6.49-4.3-14.24-13.08-14.24-13.08l-12.36-4.46
			c0,0,4.16-8.09,10.31-14.48" />
		</g>
		<g>
			<path class="st4" d="M579.8,493.13l-0.53-29.29l-28.48,0.14l-0.74-5.37c6.68-1.06,13.55-2.97,20.56-5.83l-53.14-130.21
			c-42.42,17.31-57.78,55.8-42.48,93.28c7.75,18.98,21.3,32.64,38.29,39.25l-55.32,6.94l-19.38-125.94c8,2.76,14.26,3.54,14.26,3.54
			s23.02-27.45,13.03-52.79c-7.2-18.26-30.11-24.62-41.26-26.68l15.12-40.45c-23.41-8.75-43.8,1-51.53,21.69
			c-6.85,18.33-0.55,36.7,17.27,46.72c-1.21,6.92-1.07,14.44,1.83,21.81c3.28,8.33,9.33,14.38,15.97,18.76l-17.93,3l22.87,132.87
			l-11.43,0.06l0.59,32.18l25.54-0.58l10.17,81.11l9.98-1.38l-12.99,77l57.42-48.41l28.51,54.49l21.63-96.19l6.72-0.93l-9.46-68.22
			L579.8,493.13z" />
			<g>
				<path class="st5" d="M426.13,265.88c0,0,13.62-5.6,20.77-8.19c7.55-2.73,15.07,0.68,17.86,7.76c2.79,7.08-0.01,13.13-7.88,17.56
				c-4.26,2.4-8.46,3.93-8.46,3.93s4.03,9.34,7,15.62c1.59,3.35,4.86,8.93,4.86,8.93s-1.95,2.26-5.5,3.23
				c-4.02,1.09-7.26,0.39-7.26,0.39s0.97,4.97,4.8,8.41c3.83,3.43,6.99,2.68,6.99,2.68" />
				<path class="st7" d="M429.92,288.09c-1.66,0.66-3.71-0.58-4.57-2.76c-0.86-2.18-0.21-4.48,1.45-5.13
				c1.66-0.66,3.71,0.58,4.57,2.76S431.58,287.43,429.92,288.09" />
			</g>
			<g>
				<path class="st5" d="M537.96,384.71c0,0,10.9,4.35,19.17,13.72c6.48,7.34,9.83,16.49,10.61,20.05c1.04,4.74-0.96,6.95-5.02,7.83
				l-14.18,3.38c0,0,5.09,7.61,0.26,11.29c-5.12,3.9-11.8-3.18-11.8-3.18" />
				<path class="st5" d="M534.72,440.83c0,0,0.56-1.78,1.83-2.99c1.27-1.22,3.06-1.7,3.06-1.7" />
				<path class="st5" d="M533.87,402.47c-0.78-2.94-2.91-4.93-4.74-4.44c-1.84,0.49-2.69,3.27-1.91,6.21" />
			</g>
			<g>
				<path class="st6" d="M639.32,491.43c0,0-1.81,7.39-8.08,10.21c-8.26,3.72-16.5-0.83-16.5-0.83c0.52,9.78,0.01,19.03,0.01,19.03
				s-19.12,3.82-38.98,0.8c-25.05-3.8-45.07-24.46-45.07-24.46" />
				<path class="st6"
					d="M528.91,478.76c0,0,20.63,17.45,41.15,20.93c24.74,4.2,46.44-13.24,46.44-13.24l-1.49-10.22" />

				<ellipse transform="matrix(0.9865 -0.1636 0.1636 0.9865 -68.953 109.7668)" class="st6" cx="631.92" cy="473.5"
					rx="17.13" ry="7.81" />
				<polygon class="st6" points="624.55,478.83 635.47,474.48 639.29,468.18 628.38,472.52 			" />
				<path class="st6" d="M621.91,488.89c7.04,1.95,17.75,0.22,23.92-3.86c3.08-2.04,4.45-4.29,4.16-6.26l-1.16-8" />
			</g>
			<path class="st5" d="M513.43,520.72c0,0-7.13,6.92-15.21,16.75c-9.79,11.9-14.46,20.53-14.46,20.53s-5.04-4.25-10.33-9.46
			c0,0-6.48,5.83-7.68,12.82c-1.49,8.75,2.69,16.52,6.72,23.78c3.91,7.05-7.03,13.16-7.03,13.16l1.59,3.15l-4.29,3.51
			c0,0-4.3-3.9-12.22-14.95c-7.58-10.58-9.76-19.8-9.76-19.8l-5.26,0.97l-12.77-15.63l5-5.15l3.29,2.45c0,0,5.71-5.41,14.09-11.77
			c8.39-6.36,12.77-9.45,12.77-9.45s-3.34-3.94-6.93-8.78" />
			<path class="st5" d="M476.58,616.63c-8.5,15.07-10.78,29.77-10.78,29.77c-12.17-2.48-24.43-9.12-24.43-9.12s4.61,7.93,10.5,18.66
			c4.47,8.15,10.49,19.49,10.49,19.49l-2.83,4.14c-5-1.66-13.15-5.02-21.1-11.18c-6.35-4.92-13.68-14.56-13.68-14.56l-12.39-5.54
			c0,0,4.9-8.01,11.72-14.11" />
			<path class="st5" d="M550.03,609.83c3.28,16.99,11.07,29.66,11.07,29.66c-10.88,5.99-24.52,8.87-24.52,8.87s8.65,3.06,20.09,7.41
			c8.68,3.31,20.62,8.06,20.62,8.06l0.52,4.99c-4.88,1.98-13.27,4.69-23.32,5.14c-8.03,0.36-19.85-2.23-19.85-2.23l-13.03,3.8
			c0,0-1.46-9.28-0.21-18.34" />
			<g>
				<path class="st5"
					d="M521.18,322.42c7.25-8.16,10.95-15.83,10.95-15.83L519.69,294c0,0,6.52-2.05,8.29-8.25
				c0.64-2.23,0.44-4.21-0.08-5.83c22.83-1.92,50.29-4.35,51.63-5c5.01-2.45,1.07-20.82-8.8-41.02s-21.93-34.61-26.95-32.16
				c-2.39,1.17-56.49,60.25-56.49,60.25s-16.16,1.48-16.63,1.71c-2.11,1.03-0.45,8.76,3.7,17.27c4.15,8.51,9.23,14.57,11.34,13.54
				c0.48-0.24,11.58-12.05,11.58-12.05l12.98-0.95c-2.83,7.64-14.04,28.63-37.12,51.89c-21.78,21.94-50.44,39.26-50.44,39.26" />
			</g>
			<path class="st5" d="M456.18,386.24c0,0,17.4-4.42,38.55-12.23c21.16-7.81,43.54-19.08,43.54-19.08l-1.84-15.84
			c0,0,6.57-1.36,8.91-7.24c2.36-5.94-2.06-10.82-2.06-10.82s6-2.72,9.44-6.99c3.29-4.09,2.76-7.45,2.76-7.45
			s-27.95,19.26-56.85,35.93c-28.9,16.68-62.02,32.76-62.02,32.76" />
		</g>
		<g>
			<g>
				<polyline class="st5" points="364.25,265.96 358.03,250.39 420.85,239.22 363.2,88.81 240.45,145.21 286.15,262.83 
				349.01,251.79 			" />
				<path class="st5"
					d="M339.86,383.29c0,0,22.41-17.83,28.15-40.09c9.16-35.47-10.35-68.67-10.35-68.67s14.69-5.76,21.88,4.36
				c4.73,6.67-0.11,14.85-0.11,14.85c10.75,1.2,20.74,3.44,20.74,3.44s0.7,21.53-6.18,42.62c-8.68,26.61-34.81,44.69-34.81,44.69" />
			</g>
			<path class="st6"
				d="M213.19,312.51c0,0-5.88-4.59-13.26-10.37c-7.39-5.78-10.01-16.5-6.68-26.05
			c3.32-9.55,12.75-15.84,21.34-16.09c8.59-0.25,16.93-0.5,16.93-0.5l16.01-36.77c0.59-1.34,2.39-1.45,3.16-0.21
			c4.89,7.92,0.7,36.66-10.55,69.03c-11.23,32.31-25.72,57.36-34.45,60.51c-1.38,0.5-2.75-0.75-2.37-2.19L213.19,312.51z" />
			<g>
				<g>
					<path class="st4" d="M395.83,516.62l-32.25-90.72c8.69-22.17,3.7-46.3-13.79-65.47l-100.2,91.39
					c5.61,6.15,11.86,11.04,18.54,14.62l28.62,83.95l25.29-8.62l-66.62,77.84l90.83,35.87l0.57-122.16L395.83,516.62z" />
					<path class="st4" d="M276.79,381.21c0.06-0.18,0.1-0.36,0.16-0.54c21.99,4.76,45.15-5.43,45.15-5.43s6.63-40.84-18.24-60.08
					c-22.29-17.25-57.85-1.88-62.81,0.4c-0.1-0.03-0.2-0.07-0.3-0.11l-0.09,0.29c-0.12,0.06-0.19,0.09-0.19,0.09
					s-0.04,0.28-0.08,0.75l-31.35,96.74C240.91,423.65,267.66,409.38,276.79,381.21z" />
				</g>
				<path class="st5" d="M308.22,297.06c0,0,3.97,18.71,9.58,28.19c5.61,9.47,12.36,12.13,12.36,12.13s-2.03,2.85-3.88,4.57
				c-1.97,1.83-4.81,3-4.81,3s0.42,2.27,1.92,4.52c1.51,2.24,3.02,3.13,3.02,3.13s-2.14,3.14-5.28,4.02
				c-5.05,1.42-8.3-1.36-8.3-1.36s-0.41,8.83,7.39,12.24" />
				<path class="st7" d="M303.16,332.06c-1.76,0.37-3.52-0.94-3.95-2.94c-0.42-2,0.66-3.91,2.41-4.29s3.52,0.94,3.95,2.94
				C306,329.77,304.92,331.69,303.16,332.06" />
			</g>
			<path class="st5"
				d="M286.79,435.59c0,0-26.82,10.02-39.18,29.42c-19.68,30.9-11.41,68.5-11.41,68.5s-15.76,0.93-19.45-10.92
			c-2.44-7.81,4.7-14.09,4.7-14.09c-9.85-4.47-18.66-9.68-18.66-9.68s6-20.69,19.07-38.62c16.49-22.62,46.93-31.73,46.93-31.73" />
			<path class="st5" d="M326.93,622.65c-8.65,14.65-11.17,29.06-11.17,29.06c-11.92-2.68-23.85-9.45-23.85-9.45s4.38,7.89,9.97,18.55
			c4.24,8.1,9.94,19.37,9.94,19.37l-2.87,4.02c-4.88-1.73-12.83-5.19-20.53-11.4c-6.15-4.97-13.17-14.58-13.17-14.58l-12.08-5.69
			c0,0,4.97-7.78,11.8-13.64" />
		</g>
	</g>
	<g id="Ebene_5">
	</g>
</svg>