<svg xmlns="http://www.w3.org/2000/svg" viewBox="0 0 280 33.6" preserveAspectRatio="xMinYMin meet">
	<linearGradient id="prefix__a" gradientUnits="userSpaceOnUse" x1=".49" y1="25.245" x2="223.71" y2="25.245"
		gradientTransform="matrix(1 0 0 -1 0 36)">
		<stop offset="0" stop-color="#00c8f0" />
		<stop offset="1" stop-color="#43006a" />
	</linearGradient>
	<path fill="url(#prefix__a)" stroke="#F5F5F5" stroke-width=".98" stroke-miterlimit="10" d="M.5.5h223.2V21H.5z" />
	<path fill="#FC484C" stroke="#F5F5F5" stroke-width=".98" stroke-miterlimit="10" d="M222.7.5h56.8V21h-56.8z" />
	<g fill="#F5F5F5">
		<path
			d="M2 29.3c0-2.5 1.3-4.1 3.3-4.1s3.3 1.6 3.3 4.1-1.3 4.2-3.3 4.2S2 31.9 2 29.3zm5.1 0c0-1.8-.7-2.7-1.7-2.7s-1.8.9-1.8 2.7.8 2.8 1.8 2.8 1.7-1 1.7-2.8zM9.5 27.3c-.1-1.2.7-2.3 1.9-2.4h.3c1.2 0 2.2.9 2.3 2.1v.3c.1 1.2-.7 2.3-1.9 2.4h-.3c-1.2 0-2.2-.9-2.3-2.1v-.3zm3.2 0c0-.8-.4-1.2-1-1.2s-1 .5-1 1.2.4 1.2 1 1.2 1-.4 1-1.2zm3.5-2.3h1.1L13 33.4h-1.1l4.3-8.4zm-1 6.1c0-1.2 1-2.3 2.3-2.3s2.3 1 2.3 2.3c.1 1.2-.8 2.4-2 2.5-1.2.1-2.4-.8-2.5-2-.1-.3-.1-.4-.1-.5zm3.3 0c0-.8-.4-1.2-.9-1.2s-1 .4-1 1.2.4 1.2 1 1.2.9-.4.9-1.2z" />
	</g>
	<g fill="#F5F5F5">
		<path
			d="M199.5 30.9c0 .7.7 1.3 1.4 1.3 1.1 0 1.7-.9 1.8-2.4-.4.7-1.1 1-1.9 1-1.4.1-2.6-1-2.7-2.5v-.2c0-1.5 1.2-2.8 2.7-2.8h.3c2 0 3.1 1.5 3.1 4s-1.1 4.3-3.3 4.3c-1.5.2-2.8-.9-3-2.4l1.6-.3zm.3-2.9c0 .8.6 1.4 1.4 1.4.8 0 1.4-.6 1.4-1.4 0-.8-.6-1.4-1.4-1.4-.7 0-1.4.5-1.4 1.3-.1 0-.1.1 0 .1zM206.4 30.9c0 .7.7 1.3 1.4 1.3 1.1 0 1.7-.9 1.8-2.4-.4.7-1.1 1-1.9 1-1.4.1-2.6-1-2.7-2.5v-.2c-.1-1.5 1.1-2.8 2.7-2.8h.3c1.9 0 3.1 1.5 3.1 4s-1.1 4.3-3.3 4.3c-1.5.2-2.8-.9-3-2.4l1.6-.3zm.2-2.9c0 .8.6 1.4 1.4 1.4.8 0 1.4-.6 1.4-1.4 0-.8-.6-1.4-1.4-1.4-.7 0-1.4.5-1.4 1.3v.1zM212 27.3c-.1-1.3.9-2.3 2.1-2.4 1.3-.1 2.3.9 2.4 2.1v.3c.1 1.3-.9 2.3-2.1 2.4-1.3.1-2.3-.9-2.4-2.1v-.3zm3.2 0c0-.8-.4-1.2-.9-1.2s-1 .5-1 1.2.4 1.2 1 1.2.9-.4.9-1.2zm3.6-2.3h1.1l-4.4 8.4h-1.1l4.4-8.4zm-1 6.1c0-1.2 1-2.3 2.3-2.3 1.2 0 2.3 1 2.3 2.3.1 1.2-.8 2.4-2 2.5-1.2.1-2.4-.8-2.5-2-.2-.2-.2-.4-.1-.5zm3.2 0c0-.8-.4-1.2-.9-1.2s-1 .4-1 1.2.4 1.3 1 1.3.8-.5.9-1.3z" />
	</g>
	<g fill="#F5F5F5">
		<path
			d="M237.3 29.2c0-.6-.4-.9-1.1-.9-.7 0-1.4.5-1.4 1.2l-1.5-.3c.2-1.4 1.5-2.4 2.9-2.3 1.3-.2 2.5.8 2.6 2v4.5h-1.5v-.7c-.4.5-1 .8-1.6.8-1 .1-1.8-.7-1.9-1.7v-.2c0-1 .7-1.6 2.2-1.9l1-.2c.2.1.3 0 .3-.3zm0 2.6v-1.2l-1 .2c-.6.1-.9.4-.9.9 0 .4.4.7.8.7h.1c.4-.1.8-.3 1-.6zM240.4 24.6h1.6v3.1c.4-.5 1.1-.8 1.8-.8 1.5 0 2.7 1.1 2.7 3.2s-1.2 3.4-2.7 3.4c-.7 0-1.3-.2-1.7-.7v.6h-1.6l-.1-8.8zm2.9 7.6c.9 0 1.5-.7 1.5-2s-.6-1.8-1.5-1.8c-.6 0-1.1.3-1.4.8v2.2c.4.4.9.7 1.4.8zM251.3 27.4h-1.8v-1.1h.4c.7 0 1.4-.3 1.9-.9h1.1v8.1h-1.6v-6.1zM254.1 29.3c0-2.5 1.3-4.1 3.3-4.1s3.3 1.6 3.3 4.1-1.3 4.2-3.3 4.2-3.3-1.6-3.3-4.2zm5 0c0-1.8-.7-2.7-1.7-2.7s-1.8.9-1.8 2.7.8 2.8 1.8 2.8 1.7-1 1.7-2.8zM261.5 29.3c0-2.5 1.3-4.1 3.3-4.1s3.3 1.6 3.3 4.1-1.3 4.2-3.3 4.2-3.3-1.6-3.3-4.2zm5.1 0c0-1.8-.7-2.7-1.7-2.7s-1.8.9-1.8 2.7.8 2.8 1.8 2.8 1.7-1 1.7-2.8zM269 27.3c-.1-1.3.9-2.3 2.1-2.4 1.3-.1 2.3.9 2.4 2.1v.3c.1 1.3-.9 2.3-2.1 2.4-1.3.1-2.3-.9-2.4-2.1v-.3zm3.2 0c0-.8-.4-1.2-1-1.2s-1 .5-1 1.2.4 1.2 1 1.2 1-.4 1-1.2zm3.6-2.3h1.1l-4.4 8.4h-1.1l4.4-8.4zm-1 6.1c0-1.2 1-2.3 2.3-2.3 1.2 0 2.3 1 2.3 2.3.1 1.2-.8 2.4-2 2.5-1.2.1-2.4-.8-2.5-2-.2-.2-.2-.4-.1-.5zm3.2 0c0-.8-.4-1.2-.9-1.2s-1 .4-1 1.2.4 1.3 1 1.3.8-.5.9-1.3z" />
	</g>
</svg>