<svg xmlns="http://www.w3.org/2000/svg" width="268.8" height="140.1" viewBox="0 0 268.8 140.1">
  <defs>
    <style>
      .a {
        fill: #f0f0f0;
      }

      .b {
        fill: none;
        stroke: #f0f0f0;
        stroke-miterlimit: 10;
        stroke-width: 2.83px;
      }
    </style>
  </defs>
  <path class="a" d="M51.2,85a18.9,18.9,0,0,0-26.7,26.7l13.3,13.4,13.4-13.4A18.8,18.8,0,0,0,51.2,85Zm-6.7,20.1a9.4,9.4,0,0,1-13.3,0,9.5,9.5,0,0,1,0-13.4,9.4,9.4,0,0,1,13.3,0,9.5,9.5,0,0,1,0,13.4Z" transform="translate(-5.6 -4.2)"/>
  <path class="a" d="M133.2,54.2a33.1,33.1,0,0,0-46.8,46.9l23.4,23.4,23.4-23.4C145.1,88.3,144.2,67.8,133.2,54.2ZM121.5,89.4a16.6,16.6,0,1,1,0-23.5,16.7,16.7,0,0,1,0,23.5Z" transform="translate(-5.6 -4.2)"/>
  <path class="a" d="M246.4,18.7a49.6,49.6,0,0,0-70.1,70.2h0L211.4,124l35-35.1a49.6,49.6,0,0,0,.1-70.2ZM228.9,71.3a24.8,24.8,0,1,1,0-35,24.8,24.8,0,0,1,0,35Z" transform="translate(-5.6 -4.2)"/>
  <g>
    <line class="b" y1="130.3" x2="260" y2="130.3"/>
    <polygon class="a" points="268.8 130.3 251.8 120.5 251.8 140.1 268.8 130.3"/>
  </g>
</svg>
