<svg id="ba43e008-da25-4159-a61e-0fd6437d6389" data-name="Layer 1" xmlns="http://www.w3.org/2000/svg" xmlns:xlink="http://www.w3.org/1999/xlink" width="280" height="33.57" viewBox="0 0 280 33.57">
  <defs>
    <style>
      .a61a5f24-d1f3-484f-8aea-8ca7859268d0, .ffa2a978-262d-4be3-b5c3-10a98e52914b {
        stroke: #f5f5f5;
        stroke-miterlimit: 10;
        stroke-width: 0.98px;
      }

      .a61a5f24-d1f3-484f-8aea-8ca7859268d0 {
        fill: url(#e154f2c7-515a-4871-8a4c-c5512d427314);
      }

      .ffa2a978-262d-4be3-b5c3-10a98e52914b {
        fill: #fc484c;
      }

      .ac0c30dc-4b34-4bc3-bf82-374126481ccd {
        fill: #f5f5f5;
      }
    </style>
    <linearGradient id="e154f2c7-515a-4871-8a4c-c5512d427314" x1="0.49" y1="10.75" x2="223.71" y2="10.75" gradientUnits="userSpaceOnUse">
      <stop offset="0" stop-color="#00c8f0"/>
      <stop offset="1" stop-color="#43006a"/>
    </linearGradient>
  </defs>
  <rect class="a61a5f24-d1f3-484f-8aea-8ca7859268d0" x="0.49" y="0.49" width="223.22" height="20.53"/>
  <rect class="ffa2a978-262d-4be3-b5c3-10a98e52914b" x="222.71" y="0.49" width="56.8" height="20.53"/>
  <g>
    <path class="ac0c30dc-4b34-4bc3-bf82-374126481ccd" d="M2,29.34c0-2.54,1.3-4.12,3.34-4.12s3.31,1.58,3.31,4.12-1.26,4.22-3.31,4.22S2,31.9,2,29.34Zm5.06,0c0-1.78-.73-2.7-1.72-2.7s-1.76.92-1.76,2.7.77,2.8,1.76,2.8S7.1,31.14,7.1,29.34Z" transform="translate(0 0)"/>
    <path class="ac0c30dc-4b34-4bc3-bf82-374126481ccd" d="M9.49,27.32a2.18,2.18,0,0,1,2.27-2.41A2.18,2.18,0,0,1,14,27.32a2.19,2.19,0,0,1-2.26,2.43A2.19,2.19,0,0,1,9.49,27.32Zm3.22,0c0-.78-.41-1.23-1-1.23s-1,.45-1,1.23.41,1.24,1,1.24S12.71,28.11,12.71,27.32ZM16.25,25h1.12L13,33.42H11.89Zm-1,6.06a2.26,2.26,0,1,1,4.52,0,2.27,2.27,0,1,1-4.52,0Zm3.21,0c0-.78-.39-1.22-.94-1.22s-1,.44-1,1.22.4,1.25,1,1.25S18.45,31.87,18.45,31.08Z" transform="translate(0 0)"/>
  </g>
  <g>
    <path class="ac0c30dc-4b34-4bc3-bf82-374126481ccd" d="M199.51,30.91a1.37,1.37,0,0,0,1.41,1.29c1.07,0,1.74-.85,1.79-2.43a2.08,2.08,0,0,1-1.91,1,2.56,2.56,0,0,1-2.66-2.7,2.77,2.77,0,0,1,3-2.84c2,0,3.11,1.47,3.11,4s-1.08,4.31-3.31,4.31a2.72,2.72,0,0,1-3-2.36Zm.24-2.87a1.42,1.42,0,1,0,1.41-1.42A1.34,1.34,0,0,0,199.75,28Z" transform="translate(0 0)"/>
    <path class="ac0c30dc-4b34-4bc3-bf82-374126481ccd" d="M206.4,30.91a1.37,1.37,0,0,0,1.41,1.29c1.07,0,1.74-.85,1.79-2.43a2.09,2.09,0,0,1-1.91,1,2.56,2.56,0,0,1-2.66-2.7,2.76,2.76,0,0,1,3-2.84c1.95,0,3.1,1.47,3.1,4s-1.08,4.31-3.31,4.31a2.71,2.71,0,0,1-3-2.36Zm.24-2.87a1.42,1.42,0,1,0,1.41-1.42A1.34,1.34,0,0,0,206.64,28Z" transform="translate(0 0)"/>
    <path class="ac0c30dc-4b34-4bc3-bf82-374126481ccd" d="M212,27.32a2.27,2.27,0,1,1,4.53,0,2.27,2.27,0,1,1-4.53,0Zm3.22,0c0-.78-.41-1.23-.95-1.23s-1,.45-1,1.23.41,1.24,1,1.24S215.17,28.11,215.17,27.32Zm3.54-2.3h1.12l-4.36,8.4h-1.12Zm-1,6.06a2.26,2.26,0,1,1,4.52,0,2.27,2.27,0,1,1-4.52,0Zm3.21,0c0-.78-.39-1.22-.94-1.22s-1,.44-1,1.22.4,1.25,1,1.25S220.91,31.87,220.91,31.08Z" transform="translate(0 0)"/>
  </g>
  <g>
    <path class="ac0c30dc-4b34-4bc3-bf82-374126481ccd" d="M237.31,29.22c0-.57-.43-.93-1.1-.93a1.36,1.36,0,0,0-1.42,1.23l-1.5-.26a2.76,2.76,0,0,1,2.94-2.32,2.36,2.36,0,0,1,2.65,2.53v4h-1.52v-.66a1.93,1.93,0,0,1-1.65.79,1.79,1.79,0,0,1-1.92-1.86c0-1,.69-1.6,2.16-1.89l1-.19C237.21,29.56,237.31,29.46,237.31,29.22Zm0,2.53V30.58l-1,.19c-.59.12-.91.43-.91.88a.75.75,0,0,0,.85.72A1.41,1.41,0,0,0,237.31,31.75Z" transform="translate(0 0)"/>
    <path class="ac0c30dc-4b34-4bc3-bf82-374126481ccd" d="M240.42,24.64H242v3.13a2.14,2.14,0,0,1,1.75-.81c1.5,0,2.68,1.15,2.68,3.22s-1.2,3.37-2.72,3.37a2.18,2.18,0,0,1-1.71-.74v.61h-1.58Zm2.91,7.51c.9,0,1.51-.72,1.51-2s-.59-1.83-1.46-1.83a1.54,1.54,0,0,0-1.38.81v2.21A1.52,1.52,0,0,0,243.33,32.15Z" transform="translate(0 0)"/>
    <path class="ac0c30dc-4b34-4bc3-bf82-374126481ccd" d="M251.27,27.39h-1.79V26.33l.37,0a2.37,2.37,0,0,0,1.85-.92h1.15v8.06h-1.58Z" transform="translate(0 0)"/>
    <path class="ac0c30dc-4b34-4bc3-bf82-374126481ccd" d="M254.05,29.34c0-2.54,1.3-4.12,3.33-4.12s3.32,1.58,3.32,4.12-1.26,4.22-3.32,4.22S254.05,31.9,254.05,29.34Zm5.06,0c0-1.78-.73-2.7-1.73-2.7s-1.75.92-1.75,2.7.77,2.8,1.75,2.8S259.11,31.14,259.11,29.34Z" transform="translate(0 0)"/>
    <path class="ac0c30dc-4b34-4bc3-bf82-374126481ccd" d="M261.5,29.34c0-2.54,1.3-4.12,3.34-4.12s3.31,1.58,3.31,4.12-1.26,4.22-3.31,4.22S261.5,31.9,261.5,29.34Zm5.06,0c0-1.78-.73-2.7-1.72-2.7s-1.75.92-1.75,2.7.76,2.8,1.75,2.8S266.56,31.14,266.56,29.34Z" transform="translate(0 0)"/>
    <path class="ac0c30dc-4b34-4bc3-bf82-374126481ccd" d="M269,27.32a2.27,2.27,0,1,1,4.53,0,2.27,2.27,0,1,1-4.53,0Zm3.22,0c0-.78-.41-1.23-.95-1.23s-1,.45-1,1.23.41,1.24,1,1.24S272.17,28.11,272.17,27.32Zm3.54-2.3h1.12l-4.36,8.4h-1.12Zm-1,6.06a2.26,2.26,0,1,1,4.52,0,2.27,2.27,0,1,1-4.52,0Zm3.21,0c0-.78-.39-1.22-.94-1.22s-1,.44-1,1.22.4,1.25,1,1.25S277.91,31.87,277.91,31.08Z" transform="translate(0 0)"/>
  </g>
</svg>
