<svg xmlns="http://www.w3.org/2000/svg" width="115.8" height="131" viewBox="0 0 115.8 131">
  <defs>
    <style>
      .a {
        fill: #f0f0f0;
      }
    </style>
  </defs>
  <g>
    <g>
      <path class="a"
        d="M74.5,19l9.6,14.8L77.3,50.1l17.1-4.5,13.3,11.5,1-17.7,4.7-2.8a56.6,56.6,0,0,0-11.5-16.7,59.6,59.6,0,0,0-5.5-4.7l-4.3,5.2Z"
        transform="translate(-8 -4)" />
      <path class="a"
        d="M112.9,42l-.8,15.3-.5,8.8-6.7-5.7-11.7-10L78.4,54.3l-8.5,2.3,3.4-8.2,5.9-14.2L70.9,21.3l-4.8-7.4,8.8.7,15.3,1.3,2.6-3.2a55.5,55.5,0,0,0-68.7,7.2,53.7,53.7,0,0,0-.7,76l.7.7L63,135l38.9-38.4A53.7,53.7,0,0,0,115,40.7Z"
        transform="translate(-8 -4)" />
    </g>
    <path class="a" d="M107.7,57.1l1-17.7,15.1-9.1-16.5-6.4-4-17.2L92.1,20.4,74.5,19l9.6,14.8L77.3,50.1l17.1-4.5Z"
      transform="translate(-8 -4)" />
  </g>
</svg>